<?xml version="1.0" standalone="no"?>
<!DOCTYPE svg PUBLIC "-//W3C//DTD SVG 1.1//EN" "http://www.w3.org/Graphics/SVG/1.1/DTD/svg11.dtd" >
<svg xmlns="http://www.w3.org/2000/svg">
<metadata>
Created by FontPrep 20130207 at Tue Apr 11 17:40:03 2017
 By Martin Campillo
Generated with Fons http://osp.kitchen/tools/fons/ from hd scan found in Specimen de caracteres Plantin, MIB G 158 B, KRB Brussels.
Prepared by Paol Darcel et Ludi in April 2016 - zigzaganimal.be
</metadata>
<defs>
<font id="973d297050819e09a32711cdf1ec1450" horiz-adv-x='1024' >
  <font-face 
    font-family="AntiqueNobleRegular"
    font-weight="400"
    font-stretch="normal"
    units-per-em="2048"
    panose-1="2 1 6 3 0 0 0 0 0 0"
    ascent="1597"
    descent="-451"
    x-height="729"
    cap-height="1231"
    bbox="60.7195 -348 1677 1662.78"
    underline-thickness="51"
    underline-position="-105"
    unicode-range="U+0020-201C"
  />
<missing-glyph horiz-adv-x="1024" 
d="M205 102h614v861h-614v-861zM102 0v1065h820v-1065h-820z" />
    <glyph glyph-name=".notdef" horiz-adv-x="1024" 
d="M205 102h614v861h-614v-861zM102 0v1065h820v-1065h-820z" />
    <glyph glyph-name=".null" horiz-adv-x="0" 
 />
    <glyph glyph-name="nonmarkingreturn" horiz-adv-x="681" 
 />
    <glyph glyph-name="space" unicode=" " horiz-adv-x="409" 
 />
    <glyph glyph-name="exclam" unicode="!" horiz-adv-x="423" 
d="M121 1081q0 23 -6 52l4 20l-4 36q0 33 22 44q11 2 21 6l30 -8l25 4q6 0 57 -2q54 0 41 -45l-8 -23q0 -12 6 -24v-120l2 -24v-13q0 -7 -4 -112l2 -21q0 -5 1 -10t0 -11t-4 -12q-3 -7 -3 -11l4 -23q2 -12 2 -36l-8 -35l4 -25l-6 -49v-31l-4 -33v-9l2 -19l-6 -43
q-2 -8 -1 -28t-1 -30l-10 -94q0 -6 2 -34t-15 -52q-8 -10 -44 -15t-54 9t-21 22t3 48l-7 32v29q4 16 4 19q-10 16 -10 18l6 47q0 4 -3 12q-3 7 -4 11t0 14t-2 19t-3 14v63l-4 23l6 20l-6 21v12l-8 41l4 29l-2 32l4 24l-2 17l2 42v20l-6 35l2 18v19q0 12 2 18l-4 16q0 3 2 15
t1 30t-1 41zM271 205q11 0 23 -9q12 -8 14 -16q3 -8 -1 -45l2 -35l-6 -28q13 -25 3 -49q-9 -23 -20 -26q-33 -9 -81 3l-22 -8q-34 0 -59 10q-5 2 -4 20t-3 25q-4 8 -4 16l6 23q2 8 0 25l-8 22q0 2 6 28t12 29q7 10 23 1q55 -32 64 -30q8 3 26 23t29 21z" />
    <glyph glyph-name="quotedbl" unicode="&#x22;" horiz-adv-x="774" 
d="M340 1153q0 -4 1 -20t-3 -26q-4 -9 -4 -11l4 -21l-6 -35q-2 -4 -2 -15t-8 -24q-8 -14 -11 -18q-2 -4 -6 -17q-4 -12 -8 -20t-15 -21q-22 -26 -31 -48q-8 -21 -22 -31q-15 -10 -41 -16t-31 -3t-11 7q-7 5 -21 8q-13 4 -16 17q-2 13 14 43t17 36l13 78q1 6 3 11t2 11l-6 39
l6 41l-8 58q0 10 6 26q8 16 38 18t44 5q14 4 22 3t22 4t17 1q4 -4 8 -7t13 -4q8 0 10 -2t11 -18q8 -16 4 -31q-5 -14 -5 -18zM664 1153q0 -4 1 -21t-3 -25q-5 -9 -5 -11l5 -21l-9 -48q0 -12 -8 -26q-11 -20 -17 -39t-20 -34q-14 -16 -30 -46t-28 -38q-11 -8 -40 -14t-38 1
q-10 7 -24 11t-16 17t14 43t18 36t6 39q5 33 6 39t3 11t2 11l-6 39l6 41l-8 58q0 10 6 26q9 16 33 18t40 4q16 3 20 4t12 0t21 4t17 1q5 -4 8 -6t5 -3t9 -2t11 -3q5 -5 7 -11t6 -15t0 -23q-4 -13 -4 -17z" />
    <glyph glyph-name="ampersand" unicode="&#x26;" horiz-adv-x="1169" 
d="M113 189l-11 36q0 10 -9 27t-3 80q6 62 10 87t8 32q4 8 6 11q3 3 18 34t25 37l12 8t5 4l16 18q8 8 13 20q8 17 27 26t22 14q11 17 34 27q22 10 25 24l-18 39q-4 4 -16 11t-20 28q-9 20 -24 30q-19 14 -21 26q-2 13 -12 20t-10 22l-4 20l-18 50q-2 4 -2 18v16q-3 65 5 85
q7 20 7 25t2 9l8 19q12 37 15 36q4 6 11 16t9 12q2 3 8 11t9 13q25 22 35 25q11 4 18 15q6 11 12 15l43 10h19q10 0 30 10l21 -2q13 0 22 7l17 -3q14 0 14 5l37 -7l20 2q3 0 25 -7q23 -7 31 -8q14 -2 20 -11q6 -10 21 -10q14 -1 25 -11t21 -14t16 -16q5 -12 10 -19t11 -10
q5 -4 8 -11q3 -8 5 -10l5 -5t5 -6q6 -8 9 -26q3 -17 14 -35q12 -18 12 -28t-2 -18t-1 -18t0 -13q-1 -4 -4 -13q-3 -8 -4 -14t1 -25t0 -23t-4 -11q-2 -6 -5 -10q-4 -4 -6 -15t-8 -18q-11 -28 -35 -55q-6 -11 -19 -27t-21 -28t-31 -27t-28 -21t-12 -11q-20 -14 -20 -26
q0 -11 49 -65q8 -4 14 -14q8 -13 23 -25t23 -31q16 -16 21 -23t9 -11t7 -14q4 -9 10 -16t10 -12q18 -8 21 -10q4 -4 11 -16q15 -26 34 -41q0 -5 7 -16t14 -13q8 -2 20 12q18 21 37 37q6 12 6 21l18 18q20 30 37 17q18 -13 26 -17q14 -7 21 -19q8 -12 24 -19t33 -29
q14 -23 -6 -45t-48 -42q-28 -22 -31 -26t-14 -10t-15 -20q-5 -20 9 -25q23 -8 35 -29t28 -30t35 -36q18 -26 20 -28t5 -4t7 -6t8 -6q5 -3 14 -27t5 -27q-4 -4 -10 -6t-12 0q-7 2 -11 2q-24 -12 -25 -12l-28 4h-23l-31 4l-34 -6q-41 9 -45 12q-5 4 -10 11t-19 22t-15 19
q-2 4 -2 16t-6 17q-5 5 -25 6t-33 -8t-20 -12t-21 -17q-15 -13 -24 -17l-79 -37q-7 -2 -19 -4t-18 -4l-56 -16l-28 6q-3 -1 -31 -15q-9 1 -21 5t-20 2t-12 -2t-12 4l-10 5q-3 1 -10 0t-11 -1l-29 8q-8 4 -20 5q-15 1 -31 14q-17 12 -41 17t-28 8t-10 12q-7 9 -11 14
q-59 50 -84 100q-6 12 -6 23zM380 168h7l23 -10l39 2l20 -6q42 14 98 14q23 6 43 31q12 6 25 6q41 16 49 45q2 8 -12 21t-22 25t-15 23q-9 18 -62 71t-55 61q-4 12 -14 19q-11 7 -19 28q-4 4 -14 12t-14 12q0 2 -6 16t-16 19q-10 6 -26 -5q-16 -12 -22 -20t-13 -18t-15 -16
t-13 -13q-4 -6 -7 -9t-7 -5q-13 -7 -18 -21q-7 -21 -17 -29q-9 -8 -11 -17q-1 -9 -2 -12t-5 -6q-5 -3 -7 -7t-4 -7q-2 -4 0 -12t0 -12q-8 -72 16 -106t48 -48t30 -19q8 -7 18 -7zM539 1083q-4 -1 -12 9q-9 10 -31 10q-22 8 -52 4q-80 -11 -100 -89q-20 -81 32 -137
q20 -22 23 -33q5 -11 7 -15t5 -5q3 -2 5 -4t5 -4t5 -4q16 -31 33 -29q4 0 22 17q31 23 51 57l20 20t31 64q15 49 10 71t-17 36t-18 18q-5 4 -11 7t-8 7z" />
    <glyph glyph-name="quotesingle" unicode="'" horiz-adv-x="450" 
d="M340 1153q0 -4 1 -20t-3 -26q-4 -9 -4 -11l4 -21l-6 -35q-2 -4 -2 -15t-8 -24q-8 -14 -11 -18q-2 -4 -6 -17q-4 -12 -8 -20t-15 -21q-22 -26 -31 -48q-8 -21 -22 -31q-15 -10 -41 -16t-31 -3t-11 7q-7 5 -21 8q-13 4 -16 17q-2 13 14 43t17 36l13 78q1 6 3 11t2 11l-6 39
l6 41l-8 58q0 10 6 26q8 16 38 18t44 5q14 4 22 3t22 4t17 1q4 -4 8 -7t13 -4q8 0 10 -2t11 -18q8 -16 4 -31q-5 -14 -5 -18z" />
    <glyph glyph-name="parenleft" unicode="(" horiz-adv-x="618" 
d="M340 786q-4 -8 -10 -16t-6 -26q0 -17 -9 -35l-6 -58l-6 -26q-2 -7 -1 -27t1 -30t-6 -17l2 -21l-4 -49q0 -20 6 -32v-51l-6 -28l6 -26v-41l-4 -22q2 -15 7 -33l11 -39q5 -19 9 -29t9 -32t13 -44l14 -53q4 -8 12 -23q11 -19 15 -33q3 -14 19 -36q16 -21 18 -25t3 -7t2 -7
t3 -6q6 -6 11 -9t7 -12q3 -8 6 -11t9 -8q11 -9 18 -21t22 -26q15 -13 19 -19t8 -36q4 -29 0 -44l3 -11v-10l-7 -18v-11q0 -21 -30 -18q-6 0 -14 10t-23 11t-22 14q-7 14 -11 18t-14 9t-15 9t-11 14q-5 9 -12 13t-22 21q-14 18 -18 32t-18 19t-21 17q-6 12 -10 19t-6 11
t-9 12t-10 18q-2 9 -11 15q-9 7 -15 19q-5 12 -7 16t-8 15q-6 10 -8 14l-5 10t-5 8t-3 10t-11 17q-9 8 -24 54q-14 46 -18 52q-12 18 -12 53q-8 27 -11 34q-3 6 -6 14t-5 14t-2 20t-2 21l-7 29q-2 4 -2 14v14l-6 45l4 27l-4 96l6 27q6 82 15 114l10 27q2 4 1 9t-2 11
q-2 9 6 20q7 11 8 23q2 13 10 25q14 20 15 36q2 16 11 44q10 27 16 37t17 23q10 14 13 20t9 21q8 20 19 33t18 24q8 12 13 17q4 5 8 11t7 10t11 9q8 6 12 10q13 25 22 33q11 9 17 22q6 12 22 24t25 30t21 24q6 0 18 8t16 12q3 4 8 9q5 6 8 9t10 5q6 2 18 7t16 5
q27 -6 21 -67v-53q-7 -43 -25 -58q-18 -14 -22 -18q-2 -5 -8 -17l-8 -16q-3 -4 -13 -9t-14 -9l-13 -27q-2 -4 -10 -10t-12 -18q-4 -13 -22 -45t-32 -73q-16 -43 -20 -51z" />
    <glyph glyph-name="parenright" unicode=")" horiz-adv-x="616" 
d="M512 299q0 -19 -4 -37l-8 -20q-21 -42 -21 -82q-9 -20 -21 -56t-17 -46q-5 -11 -10 -16t-10 -19t-16 -29q-12 -14 -16 -29q-6 -22 -27 -37q-6 -12 -7 -17t-7 -11t-16 -28t-16 -25q-7 -3 -10 -4l-6 -2t-6 -3q-5 -3 -12 -27q-7 -23 -25 -34t-25 -21q-8 -12 -25 -22
q-16 -9 -24 -25t-21 -16q-14 0 -18 -2t-8 -10q-5 -7 -19 -9q-25 -3 -25 19v10l-6 18l4 22l-4 19q0 42 7 54t21 24t19 21q4 2 8 11t13 16q10 8 12 10t5 9q5 11 11 16t10 13q3 9 5 12t15 20q16 21 20 36q4 14 15 34t13 23q2 4 14 58q2 3 12 25t9 46l11 33q11 31 18 72
q0 19 -5 22v41l7 26l-7 28v43q0 4 3 8l4 33l-4 49l2 20l-7 19v55q0 12 -6 27q0 39 -7 59t-6 34t-10 31t-27 60q-16 42 -32 74t-20 42q-8 20 -17 25q-8 5 -13 17t-8 15q-6 6 -17 13t-17 21t-8 18q-4 4 -23 21t-21 40q-3 22 -3 40v28q-7 62 20 68q9 0 25 -8t19 -10q4 -3 10 -9
t8 -9t14 -11q12 -7 18 -9q10 -2 20 -21t24 -30q21 -17 27 -31q6 -13 11 -15q5 -3 10 -8t9 -14t8 -15q5 -6 13 -10t11 -9q3 -4 10 -15t13 -20t16 -20q19 -22 24 -39t21 -37t28 -51t15 -49t6 -25q3 -6 9 -14q14 -19 14 -43l13 -21l-2 -29q2 -6 12 -26q6 -33 12 -115l6 -27
l-4 -96l4 -26l-6 -46v-28q-8 -16 -8 -35z" />
    <glyph glyph-name="plus" unicode="+" horiz-adv-x="849" 
d="M109 377q1 31 41 29q20 -2 25 0t8 2l16 -2q55 4 67 4l23 -7q8 0 20 3q31 -15 37 0q8 12 5 32t-3 24v11l-6 35l4 55l-6 24l10 26q0 28 37 22q12 -2 57 2t60 -12q12 -10 17 -35t-3 -33l2 -74v-52q0 -25 -6 -28q-38 -8 -8 -6q83 6 115 13l55 -4q4 0 11 3t11 4t14 -5t14 -6
q5 -1 11 -5t8 -12t1 -20t4 -60t-13 -57q-11 -12 -31 -16t-27 -2q-7 3 -9 3l-74 -2q-4 1 -37 5t-39 0q-4 -8 -4 -17l2 -29l-8 -26l4 -19l-2 -61l8 -25l-6 -24v-8q0 -12 -6 -21t-66 -12l-24 -4l-33 6h-10q-17 0 -25 8q-8 12 -4 49l-2 19l-2 82l4 22q2 53 -5 61t-65 5l-18 -4
h-61l-25 -9l-33 9h-10q-4 0 -7 2t-13 26q0 4 -3 41l-4 25z" />
    <glyph glyph-name="comma" unicode="," horiz-adv-x="436" 
d="M330 18v-92q-5 -16 -10 -24t-7 -16t-10 -22q-8 -13 -7 -26q2 -14 -11 -29q-17 -21 -18 -30q-1 -8 -14 -28q-13 -19 -16 -29q-10 -33 -59 -48q-2 0 -11 -5t-16 -1t-11 4l-17 -2q-8 0 -19 8q-21 17 -6 46q15 30 17 39t3 11t4 9q3 6 3 10l10 33l2 22q0 6 2 11l6 24v123
q0 97 9 100q10 16 41 15q32 -2 36 -2l23 8q6 0 22 -5t26 -3q29 5 33 -31q1 -18 -2 -30q-3 -10 -3 -40z" />
    <glyph glyph-name="hyphen" unicode="-" horiz-adv-x="606" 
d="M328 365l39 -3q7 0 33 7l20 -2l22 6l28 -11q23 0 20 -37q-1 -13 4 -60t-13 -56q-10 -12 -33 -17t-31 -1q-9 4 -40 -1l-25 7l-26 -2l-23 2q-9 -9 -18 -9t-17 6t-12 3l-18 -2h-27l-25 -9q-27 9 -37 9t-13 2t-13 26q0 4 -2 41l-4 25l6 45q0 17 10 24q10 8 47 4l18 3
q9 0 15 -3q22 5 33 5q14 -7 22 -7l19 2l18 -4z" />
    <glyph glyph-name="period" unicode="." horiz-adv-x="401" 
d="M274 102q8 0 14 -7t10 -22q3 -15 0 -43t-3 -32v-12q0 -8 1 -16t-2 -18t-4 -22t-5 -18q-4 -2 -29 -6l-27 -6l-30 4q-20 0 -34 -4t-32 4q-18 4 -26 12t2 90q1 24 -1 50t4 34t18 12q11 4 17 6q5 2 21 4q16 1 20 3l31 -11q9 0 23 9q12 1 18 -5t14 -6z" />
    <glyph glyph-name="slash" unicode="/" horiz-adv-x="1085" 
d="M852 1208q0 6 4 11q0 6 14 2t25 -1t22 0t24 0t17 0t12 -1q7 2 11 -1t12 -1t17 2q4 -2 0 -8t-4 -15t-18 -34q-22 -30 -24 -42q-2 -13 -10 -21q-8 -7 -15 -22t-26 -41q-10 -18 -43 -76t-43 -82t-12 -26t-3 -4t-4 -6t-3 -12q0 -7 -4 -13t-9 -15q-4 -8 -12 -18t-11 -15
t-6 -15q-7 -23 -22 -33l-2 -11l-14 -28q-10 -21 -14 -35t-10 -22q-7 -9 -10 -19t-6 -13t-12 -19t-25 -53q-24 -52 -57 -107q-32 -55 -46 -86t-28 -55l-56 -103q-7 -18 -23 -45q-18 -30 -18 -35t-8 -26t-10 -25l-15 -30q-12 -26 -23 -43t-28 -64q-2 0 -24 -50t-35 -72
q-13 -21 -13 -34l-32 -64q1 -2 -2 -10t-22 -3q-20 5 -28 2t-12 0t-24 0t-27 0q-9 3 -23 1t-21 1t-4 13q4 11 23 35t26 42t13 28q6 9 11 19t11 16t13 28q8 21 13 34q5 12 7 18t8 16t16 28q9 18 13 22q4 5 18 35q13 31 19 43t32 68t42 80q15 24 68 130q52 106 63 126
q12 21 13 24t3 12q4 19 14 26t18 28q7 22 21 42t16 34q1 13 4 19t8 14q5 9 10 17q6 8 12 18t21 43q21 46 28 53q8 8 15 28t16 34q8 12 12 23t28 57t27 56q4 9 19 36t27 56q13 28 20 37q23 27 41 67l12 20q2 4 2 10z" />
    <glyph glyph-name="zero" unicode="0" horiz-adv-x="1064" 
d="M108 406q-10 21 -10 174l-4 36l4 18l-2 17q-3 8 1 22q3 13 2 21t2 24t0 24t-3 12t2 7t3 7t3 6l13 55l2 37q4 8 13 46t21 54q15 19 21 36q6 16 16 29q11 13 14 17t6 13q4 10 19 23q16 13 41 38t29 28t13 5q10 2 14 4t18 12q24 17 31 17h8q4 0 14 6q17 10 35 10q8 4 23 13
l28 -9q12 0 23 11l35 -7q35 4 85 -5t55 -11t12 -8t11 -8t13 -4q10 -2 14 -4t8 -8q6 -7 20 -12q15 -6 20 -20t11 -18t25 -14q20 -10 25 -30q4 -20 14 -30t12 -13t4 -7t4 -6t6 -7q5 -5 6 -9l5 -21q2 -4 8 -11t27 -73v-20q0 -5 9 -25q11 -26 15 -53q3 -27 11 -43v-31l6 -53
l-6 -27q8 -24 12 -61l-8 -37l8 -41l-4 -21v-11l-17 -89q0 -19 -10 -44t-23 -78q-12 -54 -28 -72t-18 -30q-4 -17 -29 -42q0 -17 -18 -25t-21 -12q-2 -4 -6 -10t-7 -12q-6 -13 -28 -22t-35 -21q-34 -35 -77 -30q-10 1 -22 -8q-12 -10 -31 -10t-27 -4t-9 -5q-2 -1 -20 9t-48 4
t-33 -5t-9 5q-5 4 -9 5t-12 2q-8 0 -11 2q-7 3 -11 10q-4 6 -14 4q-12 -3 -19 7q-8 9 -16 8q-9 -1 -12 1t-8 6t-8 5t-13 5t-35 23q-25 18 -31 21t-10 14t-12 17q-7 7 -9 11t-9 16q-7 13 -31 44t-30 56q-7 26 -9 35q-1 9 -9 23t-11 37t-5 33t-2 20q-1 10 -11 32zM305 379
q0 -25 12 -37q0 -20 15 -35q2 -4 3 -16t8 -19q7 -8 14 -22t12 -21q7 -6 25 -21t24 -23t34 -17q28 -10 35 -21l21 5l31 -7l35 7h16q23 0 46 19q22 19 28 23t9 5q3 2 7 10q7 15 18 20q25 12 52 97l12 36v21q8 32 8 47q10 40 10 46v9l-2 15l4 18v53l4 56l-8 55l2 27l-4 28
q-4 47 -4 49l-12 17l-2 19q0 6 -5 16q-5 11 -6 24q-2 14 -6 22t-11 25q-7 19 -11 25t-8 10t-5 7q0 3 -4 9t-7 12q-3 5 -23 19t-44 36q-25 22 -47 20t-36 3t-22 2q-9 -3 -28 -6q-19 -4 -27 -6t-13 -5t-9 -4t-11 -4t-11 -5q-7 -4 -13 -13t-16 -15q-16 -9 -28 -38
q-43 -59 -44 -67q-1 -9 -2 -17q-2 -14 -10 -23q-8 -10 -8 -34l-8 -113q-2 -6 -6 -17t-4 -17l4 -74l-6 -27q-2 -10 -2 -32l8 -35q2 -10 2 -33v-33z" />
    <glyph glyph-name="one" unicode="1" horiz-adv-x="636" 
d="M334 586l2 39l4 15q0 3 -3 8t-5 5v17l2 20v31q10 30 10 41q-10 22 -8 39l4 22l-4 47l2 29q-8 20 -29 2q-23 -18 -37 -24t-116 -60q-37 -18 -56 -3q-18 15 -16 50l4 21l-10 35q0 4 7 30t12 33q5 8 15 8l19 4q15 15 28 15h17q4 2 7 4t9 5q13 7 28 8q16 1 33 19q19 19 48 37
t38 28q9 11 20 33q15 30 26 32q12 2 18 7t11 5l30 -2l25 8q8 -2 4 -11q-8 -18 16 -8t26 -17q1 -9 1 -20t3 -26t1 -22q-6 -21 -6 -26l2 -20l-4 -30l4 -21q2 -6 0 -14t-2 -12l2 -33l-2 -35l2 -19v-9l-6 -22l4 -22l-4 -26q6 -80 5 -87q-1 -8 -7 -22t-6 -17t8 -19t8 -33l-8 -27
l6 -17l-2 -17l2 -48l-4 -14q0 -25 2 -35l2 -25l-10 -43l12 -28l-4 -27l4 -18l-2 -29q4 -61 4 -88l-8 -47l4 -21v-16l2 -21l-10 -28q0 -10 6 -22t7 -20t-2 -16t-4 -15q-3 -21 -44 -30q-8 -2 -19 3q-10 5 -20 4t-34 -5t-40 1t-16 14l-14 8q-6 4 0 27t-2 43l2 53v5l-2 14l4 18
l-2 26l4 21l-6 22l6 23q2 4 0 10t0 11t2 20l-2 84l-4 22l10 31q-6 25 -3 37t3 18l-4 25v80z" />
    <glyph glyph-name="two" unicode="2" horiz-adv-x="989" 
d="M184 -23q-22 -5 -32 -4l-21 -4q-9 1 -19 11q-17 16 -14 33t10 24q7 8 12 15t7 8q2 2 15 20t28 32t39 38q4 6 10 21t28 37l25 25q4 6 20 21t26 35t14 26q8 7 26 23t24 22t9 16q4 9 10 16t25 31q18 24 24 31t11 12q4 5 7 10t8 11t7 11q6 8 22 20t25 27q9 14 15 22q6 7 9 13
t17 20q18 25 38 58q53 88 63 99q9 11 11 30q1 18 7 52t2 51t-9 26q-6 11 -8 27t-16 26q-10 21 -15 24l-21 15q-4 2 -10 13t-24 13q-19 2 -25 4t-14 4q-9 2 -22 7t-20 5q-6 -1 -32 -1t-37 -4q-11 -5 -31 -9t-26 -7q-7 -3 -38 -35t-35 -38t-15 -35t-11 -60q0 -32 -2 -36
q-1 -4 -15 -16t-28 -12l-17 2l-16 -4l-19 2q-2 0 -12 -2t-22 3q-13 5 -16 6t-9 1t-8 1t-7 2q-6 1 -8 3t-5 4q-13 9 -5 49l2 21q8 16 8 26v27q10 55 31 76q25 53 33 61t34 38t56 44q39 27 47 31q7 4 25 5t42 10t37 8t23 1t31 3l20 -2h11l84 -5q16 -8 21 -8t13 2t12 1t11 -7
q6 -6 10 -7t11 0q6 1 10 0t7 -4q9 -9 21 -13t24 -16t18 -14q5 -3 9 -6q5 -3 9 -5q4 -3 9 -9t5 -8q2 -2 9 -7t9 -8t6 -7t5 -7q2 -3 17 -17t17 -26q3 -12 17 -42q20 -41 20 -106v-21l4 -25q0 -8 -4 -29t-2 -45q2 -25 -10 -40t-14 -19q-43 -114 -53 -122q-10 -9 -16 -20
q-7 -10 -13 -17q-6 -6 -16 -24q-10 -17 -31 -38q-20 -20 -45 -56q0 -7 -27 -34t-43 -53q-15 -26 -34 -46t-24 -25q-6 -6 -12 -16t-10 -15t-14 -16t-12 -16q-4 -4 -12 -10t-11 -9q-2 -2 -8 -12t-15 -19q-19 -19 15 -30q12 -4 40 1t36 4q8 -2 25 2q16 4 24 2l12 -3l25 7
q27 0 39 -7l32 5l42 -4l57 12l34 -8q7 0 23 8q6 0 28 -9t23 -40q0 -6 -4 -24t-1 -28t3 -14q15 -74 -49 -74q-26 0 -39 9q-2 0 -11 -2t-19 1q-11 3 -21 3t-21 -7q-6 0 -26 5l-49 -5l-41 2l-45 -4q-7 7 -24 7l-13 -3h-6q-31 -2 -47 -2t-30 5l-26 -3l-29 5l-26 -9q-20 0 -35 2
l-20 5q-23 0 -33 -5l-19 2l-18 -2l-21 11q-9 0 -24 -11l-14 2h-9z" />
    <glyph glyph-name="three" unicode="3" horiz-adv-x="1034" 
d="M434 125q11 -11 37 -4l29 -2l30 4h25l47 14q4 2 22 6q18 5 32 11q16 6 50 36t38 35q4 7 6 15t5 14q19 38 19 55v27q0 69 -24 103t-27 39q-4 5 -16 14q-11 9 -17 14l-8 8t-8 3t-16 11t-21 11q-10 0 -14 2l-21 6q-2 4 -35 3t-41 -1h-23l-19 2h-9q-4 0 -13 -3t-18 -2
q-8 1 -12 1t-18 -3t-25 -1q-32 18 -20 77q2 9 3 16t-2 24q-3 16 -3 24q0 35 33 35l77 -10l25 8q58 -12 108 7q49 20 70 36t31 38t15 29q19 31 -5 109q-2 2 -4 11q-2 11 -22 32q-20 22 -25 29q-16 12 -70 26l-29 8q-3 2 -25 2t-36 2t-26 0t-55 -16q-44 -14 -54 -20
q-63 -48 -77 -68t-22 -34q-17 -38 -57 -15q-2 2 -7 8q-6 8 -21 11q-14 3 -39 19q-25 17 -27 23q-8 23 23 65t44 50t17 12t8 6q35 18 35 29q21 24 46 33q27 9 38 15q10 6 52 15t58 17l35 -4q15 0 35 10l31 -6h6l14 2q60 0 73 -8t28 -9q14 -1 20 -2t12 -6q7 -4 23 -8
q23 -6 39 -19t27 -14q10 -2 13 -4t6 -8q2 -6 16 -20q22 -23 26 -37q3 -13 15 -24q25 -22 31 -64q5 -42 13 -70l-4 -22l2 -31l-8 -29q-4 -8 -5 -20q-1 -13 -9 -23t-12 -16t-8 -17q-5 -10 -8 -15t-8 -15t-16 -16q-9 -5 -19 -15t-32 -17q-22 -8 -22 -22q0 -4 16 -16
q0 -11 24 -21t27 -14t7 -8l24 -24q24 -24 30 -37t21 -27l4 -14q0 -10 8 -18q17 -18 17 -60l6 -30q0 -3 1 -7q1 -3 -2 -17t-2 -24t-2 -52t-5 -48l-5 -15q-5 -13 -7 -26t-10 -22q-9 -9 -12 -16t-5 -9t-7 -8q-5 -5 -7 -8t-4 -12q-1 -8 -5 -12t-10 -9q-14 -12 -33 -38
q-20 -10 -28 -18q-9 -8 -13 -10t-9 -4q-5 -3 -7 -5t-16 -11q-19 -12 -32 -14t-20 -7q-14 -11 -26 -11h-14q-4 0 -46 -12l-20 2l-20 -8l-17 2l-18 -4l-13 4q-30 -15 -75 -4q-5 0 -21 8h-22l-33 6l-21 -4l-26 8l-25 -4q-2 0 -20 11t-29 10q-12 6 -45 14t-54 21q-27 16 -37 17
t-20 13q-4 6 -4 8q-2 2 -9 7t-6 24t27 43q25 25 29 31t5 11t3 9q26 43 91 -4q4 -2 11 -2h9q4 -2 10 -6t10 -5t11 -1q8 0 13 -2t17 -11q13 -9 19 -11t18 -2q18 1 30 -9t28 -10h20z" />
    <glyph glyph-name="four" unicode="4" horiz-adv-x="1054" 
d="M793 785q0 -11 -5 -46l7 -53q0 -33 -7 -68q0 -8 7 -22l-2 -31l6 -51q0 -10 -4 -36t1 -31t11 -9t10 -3t14 2t15 3l37 -4l28 8q31 6 50 -16q5 -10 3 -17q-1 -7 -1 -15t8 -17l-2 -39q0 -4 3 -24t-4 -31q-8 -13 -24 -15t-51 -1t-43 1l-10 -2q-4 0 -14 1q-27 3 -31 -15
q-4 -4 -1 -26t3 -91l4 -22l-2 -60l4 -22q2 -3 -2 -13q-5 -10 -9 -22q-5 -12 -14 -12h-16l-19 -2h-10l-20 2h-21q-13 -13 -20 -11q-6 2 -21 17q-27 0 -35 16q-7 24 -2 40q4 17 4 26l-2 28q0 7 5 27l-5 51q-2 31 0 39l5 23q0 17 -39 20l-27 -2q-4 4 -23 4l-30 -4l-37 -2l-37 4
l-49 -2q-32 8 -90 8l-27 -6l-24 2l-60 -6l-22 4q-4 2 -12 -1t-14 -3q-5 0 -36 27q-8 6 -3 17t5 17q-14 14 -8 40q8 34 19 45q11 12 17 28t8 22q3 6 11 9q7 4 11 9t11 17q7 13 10 17t10 11t18 25t23 31q20 22 32 47t19 33q6 7 9 11t6 7t6 7t8 9t11 18q6 14 17 25q12 12 21 30
q9 19 19 31q11 12 23 32q18 30 30 39t19 21q30 51 50 71q0 13 11 24t39 55t42 61q14 16 17 21t13 19t16 28q12 26 40 26l16 4l19 -4l20 6l41 -6q14 -2 19 -9t4 -42l4 -19l-4 -18l2 -23v-41l-2 -20l4 -47l-6 -35l6 -49q0 -12 -11 -37l7 -47v-16zM621 776l4 33q0 51 -17 51
q-9 -5 -19 -23q-9 -18 -13 -24l-8 -12q-3 -7 -7 -13l-8 -12q-10 -15 -23 -25t-19 -25q-7 -15 -9 -18q-2 -4 -6 -10t-6 -8t-7 -11q-4 -9 -18 -22q-14 -12 -19 -18l-38 -61q0 -10 -10 -20t-20 -28q-11 -17 -31 -39q-21 -22 -20 -38q1 -17 16 -21t29 0t17 4l14 -2l21 2l16 -2
l25 2l20 -4l56 2q60 -13 74 23q5 12 3 35q-2 22 0 50t3 87l4 33l-4 36q-2 6 -1 34t1 44z" />
    <glyph glyph-name="five" unicode="5" horiz-adv-x="989" 
d="M328 939l-6 -60l-9 -52l2 -24q0 -4 -2 -11q-7 -23 2 -32q9 -3 21 3q12 7 14 7l27 16l16 2q45 20 60 21l24 -4q56 14 69 14t40 -6t39 -15q11 -9 24 -9q13 -1 19 -3t12 -7t9 -7t7 -3t8 -3t10 -4q5 -2 29 -21t35 -34q10 -15 26 -29t23 -25l23 -43q2 -6 8 -18q8 -17 11 -29
t11 -22q8 -11 4 -20q-5 -9 -4 -13t7 -16t6 -21l2 -33l4 -28l-6 -27l6 -39l-10 -55q-11 -63 -21 -78q-10 -17 -15 -25t-8 -12t-4 -12t-10 -17t-21 -33t-17 -32q-3 -2 -7 -5t-7 -5t-7 -4t-15 -12t-17 -15q-6 -4 -16 -15q-11 -11 -21 -14q-11 -4 -15 -6t-11 -6t-14 -7
q-11 -5 -19 -11t-74 -20q-67 -15 -137 -1q-5 0 -14 -2t-29 1q-19 3 -28 9l-24 -2q-6 0 -14 7q-8 6 -14 8t-25 1q-17 -1 -23 1t-9 4t-6 5t-5 4t-10 3t-10 3q-3 1 -7 4q-5 4 -16 7t-19 10q-10 9 -21 9t-18 9t-16 12q-8 3 -10 4t-5 3t-7 4t-7 10q-4 7 -10 15t-6 12q-2 32 33 56
q8 6 10 8q4 6 15 33t30 32q12 5 34 -3q21 -8 29 -10q8 -3 29 -28q6 -2 20 -4t19 -5l30 -15q24 -12 38 -17q29 0 77 -16h19q4 -4 18 -4l31 4h7l16 2q8 8 24 10t28 13q11 10 15 12t13 4t19 8t28 30t29 37q11 12 12 18q1 7 2 9l8 21q2 10 6 67l4 21l-2 16l2 17l-4 16q0 4 3 18
t1 21q-2 6 -9 13q-7 8 -9 14t-11 25t-11 28q-1 10 -8 14t-9 4q-2 3 -8 9l-8 8q-3 2 -5 3t-5 2q-5 2 -11 11q-7 9 -22 16t-26 13t-14 6h-32l-47 12l-62 -10q-6 -2 -12 -5l-14 -7t-12 -5q-3 -1 -12 -5t-27 -16q-18 -11 -40 -46q-4 -4 -11 -20q-13 -28 -48 -25l-47 4
q-49 0 -61 10t-3 64t9 76q0 24 2 45q10 19 8 36t-2 23l4 18l-4 21q2 41 6 63l4 23l-4 37q0 6 12 78v73l-6 41l4 27q4 33 16 39q2 2 16 4t21 -3q8 -5 15 -5l32 2q2 2 9 0t10 -2l18 4q18 -6 37 -6l19 6l59 -6q19 0 51 8l25 -4l22 4l23 -4l69 6q141 0 144 4l20 -2q44 0 45 -45
l-4 -23l2 -15l-4 -17q0 -15 3 -39t-17 -29q-25 -12 -37 -12l-18 4q-2 0 -10 -1t-10 0q-3 1 -8 3t-9 2l-31 -4l-18 6h-25q-9 9 -22 5q-13 -3 -20 -4t-11 -3l-74 8l-41 -6l-18 4l-45 -2q-43 11 -61 -9q-17 -19 -17 -78z" />
    <glyph glyph-name="six" unicode="6" horiz-adv-x="1007" 
d="M543 1214q22 0 52 7l16 -4l21 2h12q37 0 20 -43q0 -2 -12 -19t-17 -25q-4 -8 -8 -11q-12 -9 -26 -38t-40 -55q-10 -19 -24 -36q-15 -18 -23 -36q-14 -32 -28 -41t-30 -37t-25 -40q-9 -11 -13 -18t-6 -11t-20 -23t-9 -30q8 -12 21 -10t25 7q11 5 25 5h23l21 4l26 -4
q25 -2 37 0l23 2l18 -6q4 0 18 3t30 -9q14 -12 50 -28t45 -21t12 -9l6 -8t6 -7t8 -6t10 -5t9 -6t8 -9q3 -6 5 -8t11 -10q21 -19 31 -40q9 -22 16 -31t11 -22q5 -13 19 -37t11 -46q-2 -22 7 -31l-2 -18q9 -76 7 -95t-9 -37l2 -20q0 -4 -2 -9q-10 -25 -10 -42q-8 -23 -41 -77
t-45 -68t-57 -53q-59 -50 -75 -50h-7q-4 0 -6 -2l-23 -8q-4 -2 -16 -3t-33 -12h-35l-24 -6q-3 -2 -11 -1t-11 1h-9l-10 -2q-15 0 -31 8l-27 -4q-30 15 -48 15t-30 6q-19 10 -31 10q-11 0 -14 10t-15 13q-12 2 -18 11t-15 9q-17 0 -28 22t-28 31l-29 21q-4 4 -7 15t-11 19
q-10 9 -10 19t-10 16q-10 7 -12 13q-3 6 -6 20t-5 19l-8 20q-2 6 -2 15t-2 16l-13 35l2 30l-8 37l8 76l-4 29q8 63 17 81q8 17 11 39t11 37q8 16 8 25l2 12q4 10 18 34t19 40q4 17 19 41q16 24 17 30t9 18q8 13 12 22t14 27l15 26q20 43 24 47t5 7q2 3 7 8t9 20q5 16 12 25
q7 8 10 12t7 15t10 13q2 4 6 9t6 9t6 9q4 8 15 16q10 8 13 14q2 7 12 27q15 32 30 40q15 9 15 30q10 18 30 28q2 4 19 2t39 -2zM733 287v24l6 39l-6 43q0 3 1 17q3 46 -34 94q-5 9 -22 18q0 2 -6 10t-12 10q-6 3 -7 5q-2 2 -5 7q-5 8 -15 11q-11 3 -20 12t-23 9l-19 12
l-14 -2l-27 2l-28 4q-108 -16 -133 -48q-4 -4 -21 -18t-25 -25t-16 -31t-11 -24l-5 -10t-3 -11t-3 -14t-4 -16t-7 -24q-4 -15 0 -35l5 -20q0 -15 -3 -39q1 -2 10 -22q9 -21 15 -39t8 -22q3 -4 21 -22t23 -25t9 -12l23 -12q52 -37 74 -37h47l22 -8q13 7 58 17q45 11 96 68
q51 56 51 114z" />
    <glyph glyph-name="seven" unicode="7" horiz-adv-x="940" 
d="M86 1074q0 26 8 42q0 14 -6 23q-8 57 21 69q21 14 35 7q13 -7 20 -7l18 2l17 -2q6 6 22 6l15 -2h6q53 0 69 -2l23 -8l22 4h13l28 2l19 4l21 -6l24 4l17 -4l20 2l14 -4l18 6q29 0 41 -4l19 2l18 -4l33 4h22l15 -2q45 6 65 6l44 -2h22l22 4q28 -13 31 -16q8 -14 -4 -32
t-14 -31q-2 -12 -12 -21q-9 -8 -12 -13t-5 -17q-2 -11 -7 -17t-6 -9t-4 -10t-4 -11t-6 -12q-4 -7 -5 -14q-2 -13 -13 -24t-40 -74t-32 -67l-2 -11q0 -5 -9 -16q-9 -12 -16 -34t-12 -31q-6 -8 -9 -14t-8 -22q-8 -23 -23 -50q-16 -27 -22 -39q-5 -12 -12 -40t-11 -37t-12 -17
q-7 -7 -9 -13t-8 -18t-8 -18t-11 -18q-9 -13 -11 -22q-1 -10 -3 -15t-9 -20t-9 -21t-6 -15q-7 -21 -18 -37q-12 -16 -17 -35t-18 -37q-17 -23 -22 -44q-5 -20 -16 -45q-12 -25 -14 -33t-10 -17q-8 -10 -11 -18l-4 -23q-2 -6 -8 -17t-13 -31q-12 -34 -35 -37q-24 -4 -36 -8
q-12 -3 -43 -1l-30 6l-53 -8q-9 0 -14 17t0 35q5 20 17 32q11 10 12 18t6 14q10 12 18 38q7 26 20 45q14 18 14 29l2 18q2 4 9 12t11 21q5 13 7 17q4 8 11 16q8 8 19 31t11 33t1 12q1 3 5 9t5 9q5 15 13 27t21 42q14 31 19 40t15 21t11 16q3 6 5 19q3 13 23 63t29 59
q9 10 13 22q5 12 10 17t12 32q39 81 40 92q2 11 19 39q17 29 26 49t12 26t5 16q2 9 18 33t11 31q-4 7 -21 7h-10l-26 -5q-3 0 -23 5l-47 -5h-6l-12 2l-41 -4l-19 2l-26 -8q-5 0 -14 9t-21 -3l-21 4l-24 -4l-20 4l-19 -6h-15l-45 6l-30 -6l-21 4q-29 -2 -33 0q-16 6 -16 32z
" />
    <glyph glyph-name="eight" unicode="8" horiz-adv-x="1044" 
d="M831 610q27 -17 32 -33q6 -15 21 -25t35 -51q37 -77 37 -136v-68q-9 -18 -11 -35t-15 -43q-25 -72 -31 -82t-16 -16t-12 -13l-9 -18q-8 -8 -24 -16q-4 -4 -14 -16t-24 -18q-23 -8 -33 -22t-19 -14h-13q-27 -14 -39 -14t-16 -2l-21 -15l-30 4l-21 -6l-39 -4l-11 -2h-6
t-11 1q-7 1 -11 0t-11 -4t-12 -3l-24 6q-4 2 -30 4l-23 -2q-5 0 -22 13q-8 0 -24 -2t-25 5q-12 9 -23 9q-12 0 -20 5t-9 6q-2 1 -10 2t-18 11t-24 12t-22 11q-8 10 -10 12t-9 7q-7 4 -9 8l-12 20q-4 4 -13 7t-20 38q-13 13 -15 20t-4 9t-6 7t-5 8t-2 10t-3 11t-7 8
q-7 7 -7 18v9q-15 15 -15 75v28l-4 20q0 63 39 140q15 45 41 69q27 24 31 29q12 0 20 8t14 11t10 8l6 8t4 13t-17 22q-19 12 -30 23q-12 11 -26 33t-20 27q-6 6 -21 39l-2 23q-8 47 -8 57l2 21l-2 59q0 4 17 49t35 62q13 12 20 18q66 89 101 93q10 1 26 14t32 14q15 2 20 4
t14 7t16 5l28 -2q12 0 23 11q10 0 20 -5l29 3l40 -7l52 2l17 -8q6 0 12 -2t14 -4l12 -3q5 -1 10 -5q9 -7 40 -16l6 -6t8 -7q4 -2 12 -5t13 -5l36 -29q12 0 17 -10l14 -22q11 -17 22 -30q10 -13 15 -27q6 -13 14 -25t9 -19q2 -9 9 -27t9 -30l-2 -27q6 -12 6 -18l-2 -21
q0 -6 2 -26t0 -26t-8 -18q-8 -17 -11 -31t-19 -35q-17 -22 -22 -30t-9 -11l-20 -13q-33 -22 -32 -36q2 -13 14 -13t39 -17zM272 343q2 -7 2 -43t26 -62q26 -25 28 -27t6 -9q19 -33 84 -50h8q2 0 25 -9l24 2l36 -12l46 6l31 -2q58 23 63 23q7 0 13 4t21 17t43 35t35 38t15 68
t-4 81q0 5 -4 11t-12 21t-17 20q-10 6 -13 9q-7 7 -14 20t-21 16q-15 3 -34 14q-18 12 -26 14l-19 -4q-4 2 -8 10t-14 7h-27l-16 -2l-25 4l-26 -6l-19 4q-14 -7 -22 -13q-4 0 -22 2t-39 -11t-24 -15q-2 -2 -10 -4t-11 -5t-19 -21t-22 -23q-7 -6 -9 -11q-27 -37 -29 -86
q-2 -4 0 -11zM715 872l-10 70q-1 10 -13 29q-12 20 -17 31t-13 13q-12 3 -25 17q-9 4 -23 7t-34 10t-46 9q-28 2 -30 1l-17 -6h-20q-8 -1 -15 -7t-34 -17q-62 -25 -86 -71q-3 -3 -5 -11t-9 -17t-6 -33t1 -49q8 -66 66 -115q19 -20 29 -20t13 -2q25 -17 78 -18t74 4t36 6
t25 10q11 8 16 11t14 9q4 6 13 23t27 38q19 21 15 42q-4 20 -4 36z" />
    <glyph glyph-name="nine" unicode="9" horiz-adv-x="989" 
d="M381 1210l29 7q12 0 24 5q13 5 18 6t11 -1t12 -3t12 -3l31 6l19 -8l20 2q33 -11 35 -11l20 -6q1 0 13 -8q2 0 9 4q8 4 20 -4t12 -29l4 -12q6 0 14 12q11 7 25 -3t22 -13q8 -2 10 -5t5 -10q4 -10 23 -20q18 -10 23 -21q4 -13 13 -18q8 -6 10 -9q4 -6 8 -17t15 -21
q10 -10 11 -17q2 -13 15 -26q31 -60 31 -135q6 -18 6 -43l-2 -47l4 -37q-6 -28 -7 -45t-6 -30t-5 -22q1 -21 -7 -34q-8 -14 -10 -22t-3 -13q-1 -6 -3 -10t-4 -7t-3 -6q-1 -2 -3 -8t-7 -26t-11 -31q-5 -10 -13 -19q-16 -18 -16 -40q-16 -21 -25 -45t-18 -36q-8 -11 -11 -21
t-7 -13q-12 -13 -31 -49q-20 -35 -28 -46q-9 -10 -13 -16t-7 -10t-12 -29t-50 -76q-42 -51 -44 -59t-3 -18t-17 -27q-17 -16 -23 -17t-17 6q-14 9 -26 10t-18 14q-8 18 -22 18h-9q-10 6 -24 22t-16 19q-1 4 2 12q3 7 5 15t5 11t7 8t6 6q3 3 8 13t22 30t21 28l8 12q3 6 5 12
t5 10t10 11q8 6 10 10l4 8t4 9l4 8t5 9t6 8t6 7l15 20t17 21q4 3 10 15q5 12 9 17t14 15q36 36 18 56q-2 4 -7 4l-19 -2l-39 -11h-13q-20 0 -28 -4q-80 -4 -100 0t-28 4t-29 9t-38 12q-15 16 -28 20q-19 7 -29 19q-10 13 -22 16q-11 3 -20 17t-24 24q-8 16 -10 24
q-4 13 -14 18q-11 5 -16 16l-6 12t-6 8t-6 10t-2 9q-2 9 -9 19t-11 32q-18 51 -18 75v43l-4 21l4 37l14 103q0 10 6 17q6 6 13 30q8 24 14 32l33 43q2 2 5 9t4 9t48 43q2 4 6 11l9 10q2 0 4 2t5 3t7 3t10 7t12 6t40 19q35 18 42 21h21zM494 549h6q6 -2 37 3t40 10q11 6 21 9
t20 15q9 12 13 16q23 11 29 20q6 10 20 24t14 18l4 8t3 7t4 8q2 5 3 8t13 22t8 63l-4 29l4 30v9q0 2 -9 40q-10 38 -16 48t-14 26t-12 20q-4 5 -10 9q-6 3 -20 17t-36 26t-30 18q-14 12 -27 9t-24 4q-11 8 -19 6q-66 -12 -100 -22q-18 0 -35 -17q-5 0 -29 -16t-40 -46
q-17 -30 -32 -50q-2 -6 -3 -18t-7 -20q-6 -9 -6 -16l2 -23l-4 -20l2 -24q2 -73 7 -82t6 -15t3 -9t4 -7t8 -11q5 -7 8 -11t7 -14q11 -28 23 -29q4 -4 14 -23t21 -18q10 2 12 2l14 -11q29 -15 42 -13q13 1 17 -1l21 -6q2 0 8 1t10 -1q5 -2 9 -2z" />
    <glyph glyph-name="colon" unicode=":" horiz-adv-x="419" 
d="M117 588q0 31 6 39q5 8 23 11t37 0t24 -3l61 4q29 -4 37 -15t5 -35t-2 -31t1 -9l-4 -43q0 -4 2 -16t0 -17q-4 -37 -20 -41h-13q-8 0 -12 -2l-24 -4l-50 8l-20 -6q-2 -2 -24 6t-25 10q-4 12 -4 20l6 38l-4 20v66zM303 -10q9 -76 -22 -86q-16 -4 -21 -4l-18 2l-29 -6l-23 6
q-47 0 -49 2t-12 10q-8 8 -11 14t0 31t3 53l-2 23l4 37q2 20 11 28t44 6l19 3l18 -5l21 5q4 1 15 -3t23 -2t18 -1t10 -10q5 -7 5 -16v-18l-4 -34v-35z" />
    <glyph glyph-name="semicolon" unicode=";" horiz-adv-x="444" 
d="M176 100l57 9q17 1 30 -1t20 5q32 1 43 -17q10 -18 10 -34v-33q-2 -1 -1 -15t-4 -32t-5 -23l4 -20q0 -33 -18 -77t-18 -54q-1 -11 -11 -24q-10 -12 -13 -21q-4 -9 -8 -14t-6 -8t-10 -11t-10 -18q-2 -12 -10 -20q-7 -7 -8 -9q-1 -3 -4 -7q-13 -19 -46 -24l-21 2q-2 2 -8 0
t-12 -1t-16 12q-16 18 -12 32q5 14 11 26q7 13 12 33q6 22 12 35q7 13 9 66l4 22l-2 21l7 43l-5 22q-2 9 3 41l-3 19v20q0 4 -2 12q-11 43 18 43h13zM322 563q0 -43 7 -83t-10 -50q-6 -4 -31 -8t-36 1q-10 5 -14 5l-23 -6q-35 -4 -39 -4l-18 6q-2 0 -10 -1t-18 3q-9 4 -6 26
t3 34t6 18q4 25 2 41l-4 22q0 6 8 27q0 36 41 43q3 0 17 -2l43 -2l24 4q10 2 28 -5t24 -17q6 -9 6 -52zM285 -98q6 2 9 10t-2 12t-8 -2q-3 -7 1 -20z" />
    <glyph glyph-name="less" unicode="&#x3c;" horiz-adv-x="749" 
d="M650 6h-64q-18 -2 -21 0q-2 2 -1 2l-1 2q-10 0 -10 6q-21 19 -33 27t-20 16t-19 15l-32 26q-16 10 -23 15l-25 18q-2 0 -6 3t-7 5t-9 7q-5 4 -13 10t-14 9t-11 7t-13 10t-14 12t-13 7q-8 2 -8 6q-2 0 -6 4t-15 10q-2 4 -8 7t-6 5q0 3 -4 4t-7 4t-13 8t-13 9q-4 4 -7 6
l-21 14q-19 12 -25 18q-6 5 -12 9q-12 -1 -22 11t-22 17q-11 5 -16 13h-2q2 4 12 8t14 8q5 4 11 8q6 3 11 7q6 4 10 7t9 9t10 8q5 3 10 7t6 4l20 14q6 4 12 9q7 5 23 17t25 20q9 9 35 25q26 17 32 21t6 5t4 5t9 5q5 2 8 5q13 13 20 13q4 4 4 8q28 14 45 31l8 2q4 4 28 22
l28 21l26 20l47 31q0 2 8 1q9 -1 15 0t24 0t45 -1q-4 -2 -3 -4t-3 -4t-10 -6t-10 -4q1 -4 -15 -12t-16 -11l-63 -42q1 -3 -11 -9t-16 -10t-8 -5q-5 -2 -8 -6l-9 -6l-8 -8q-2 0 -4 -2t-4 -3t-5 -4t-9 -6q-5 -3 -15 -11t-24 -18t-23 -15q-10 -6 -16 -12t-10 -7q-5 -2 -9 -5
t-6 -3l-24 -18q-4 -4 -23 -15q0 -4 -3 -4l-10 -10l-18 -12l-36 -31q-23 -11 -25 -16q-2 -4 -4 -7q-4 -2 -6 -4t-6 -4t-4 -4l-2 -2q-2 -4 2 -7t6 -3l20 -14q1 0 21 -13q13 -1 36 -23t25 -22l16 -12q1 -2 7 -5t15 -10t12 -9t11 -7q8 -4 10 -8t9 -7q6 -3 18 -15q11 0 11 -5
l4 -2v-2q2 -2 8 -6t12 -9t18 -13l44 -31l22 -14q12 -11 18 -15l21 -16q8 -6 9 -7q0 -1 8 -5q10 -5 19 -14t22 -17q26 -16 26 -19l19 -10q2 -2 -12 -2z" />
    <glyph glyph-name="equal" unicode="=" horiz-adv-x="874" 
d="M121 225q1 33 41 29q20 -2 25 0t9 2l15 -2q55 4 68 4l22 -6l21 2l16 -4q170 0 221 4l29 -2l28 2l17 4l45 -4h10q4 0 8 2t11 4t17 -3q9 -5 14 -6q24 -5 22 -27q-2 -23 2 -68t-12 -60q-10 -12 -30 -16t-28 -1t-13 3h-19l-52 -2l-24 6l-27 -2q-209 6 -216 5t-14 -5t-11 -3
t-14 5q-9 4 -13 4l-19 -4h-61l-25 -8l-24 6q-2 2 -8 2h-11q-4 0 -7 2t-13 27q0 4 -2 41l-4 24zM679 332h-19l-52 -2l-24 6l-18 -2h-9q-209 6 -216 5t-14 -5t-11 -3t-14 5q-9 4 -13 4l-19 -4h-61l-25 -8l-24 6q-2 2 -6 2h-8l-13 2q-2 2 -12 27q0 4 -2 41l-4 24l6 45
q0 16 10 24q9 7 29 5t26 0t10 2l15 -2q55 4 68 4l22 -6l21 2l16 -4q170 0 221 4l29 -2l28 2l17 4l55 -4q4 0 8 2t11 4t17 -3q9 -5 14 -6q24 -5 22 -27q-2 -23 2 -68t-12 -60q-10 -12 -30 -16t-28 -1t-13 3z" />
    <glyph glyph-name="greater" unicode="&#x3e;" horiz-adv-x="749" 
d="M94 688h92q2 0 2 -2t1 -2q2 0 6 -3t13 -8t11 -7l21 -15q38 -23 47 -33q10 -10 13 -11t15 -13q6 -2 9 -2l28 -23l17 -8l2 -8q8 0 17 -9t14 -10q4 0 6 -2t3 -4t2 -3t4 -3l6 -4t7 -5t19 -13q14 -10 29 -22t29 -20q14 -9 23 -18q10 -8 17 -12l17 -14q1 0 7 -4q7 -4 11 -6
t12 -11q8 -8 13 -11t11 -7t8 -5t8 -5q5 -5 14 -9t11 -8h-2l-4 -6q0 -2 -11 -7t-14 -10t-12 -8t-23 -13q-13 -11 -31 -23q-18 -13 -22 -15q-3 -2 -5 -4q-3 -2 -5 -4t-10 -6t-12 -8t-9 -5t-5 -6q0 -4 -11 -4q0 -5 -7 -9q-7 -5 -12 -10t-11 -7q-5 -2 -15 -10q-14 -12 -32 -22
q-17 -10 -26 -18t-28 -20l-26 -18q-4 -4 -23 -15l-2 -4q-10 -8 -17 -15q-6 -7 -14 -10t-20 -14l-37 -30l-6 -4q-6 -13 -17 -13l-2 -2v-2q-2 -2 -27 -1t-48 1t-23 2l34 21q5 0 12 6t11 9q5 3 9 7l6 6t5 4q3 3 6 5t7 4t5 3l18 13q6 6 12 10t18 15l82 57q20 14 21 16l2 2l4 2
q0 2 5 3t9 7q4 5 13 9q12 6 12 12q4 2 9 5t9 5t16 11t15 11q4 1 4 3l17 12q3 0 24 21q32 24 37 25q4 1 6 4t22 14q21 11 21 18q-4 4 -12 9t-9 9q-1 3 -3 3l-60 47l-17 12l-10 10q-4 0 -4 4q-18 10 -22 15l-27 18q-8 6 -12 8t-10 7q-7 6 -13 10t-18 11t-16 11t-12 9t-19 16
q-9 3 -13 7t-8 6t-8 7q-4 4 -8 5t-4 4q0 2 -1 3t-4 2q-6 2 -10 6t-22 13q-6 6 -27 20q-33 22 -41 30q-9 9 -15 9t-15 9v2q-1 0 -13 6t-12 8q2 2 -2 4z" />
    <glyph glyph-name="question" unicode="?" horiz-adv-x="835" 
d="M460 1260q8 0 52 -14q46 -16 54 -24t18 -5h4q10 2 20 -7q6 -2 10 -13q6 -15 16 -19q11 -4 28 -23q16 -20 20 -23q4 -2 6 -6t5 -7t5 -6t3 -7t2 -7t1 -7q2 -12 17 -27q6 -18 6 -29q23 -59 24 -67t-6 -54l5 -26l-9 -27q0 -4 1 -13t-1 -13t-3 -10q-2 -9 -8 -24t-8 -23
q-2 -7 -6 -11q-3 -4 -5 -8t-5 -8q-6 -8 -11 -28t-27 -50q-21 -29 -23 -33t-3 -8t-19 -26t-22 -32q-5 -10 -8 -15t-12 -16q-9 -12 -13 -18q-8 -12 -19 -31q-10 -20 -20 -29q-11 -10 -17 -18t-13 -17t-7 -34q-4 -14 -13 -22q-19 -19 -9 -60q10 -42 -26 -49q-10 -2 -17 -7
t-24 -5l-32 2q-32 -2 -40 3t-16 6q-24 3 -17 46q6 43 9 49q4 41 6 47q1 7 11 25q14 26 14 36t6 20t12 22t18 25t22 35t21 34q14 15 22 32t19 27q13 11 24 33q11 23 40 62q2 8 20 29t16 36q-3 17 -2 21t11 24q8 38 7 50t-13 61t-30 58q-3 3 -11 9t-10 10q-2 3 -6 11t-8 10
q0 4 -10 3t-11 -1l-29 6q-31 6 -38 7l-21 -2l-19 6l-18 -6h-8q-10 0 -44 -22t-50 -38q-8 -17 -31 -30t-31 -12q-8 2 -16 10t-15 13q-13 9 -19 20q-5 11 -18 17q-13 5 -18 11q-31 31 -22 57q3 6 21 24t24 23q14 0 14 6q60 47 74 51t25 10q12 7 18 9t19 3t20 3l29 10
q16 3 55 3t49 3t18 1t16 -2zM575 1167q6 2 5 9zM431 199q5 0 19 -5q14 -4 21 -12q6 -8 2 -27t-4 -44l4 -25v-18q8 -72 -37 -72q-10 0 -16 -6l-45 10q-5 0 -15 -6t-14 -7t-13 3t-23 9t-21 11q-4 6 -4 18l4 42v34q-10 81 10 93l23 2q10 3 26 -3q16 -5 23 -6l17 5l20 -5
q18 9 23 9z" />
    <glyph glyph-name="A" unicode="A" horiz-adv-x="1257" 
d="M662 1235l6 -33q0 -11 9 -22q9 -10 13 -16t9 -24q8 -28 20 -40q6 -18 6 -29q10 -10 11 -23q0 -13 14 -38t16 -30t1 -14q-2 -17 8 -20q10 -2 14 -15t6 -18l10 -20q4 -6 14 -37t37 -76q6 -16 17 -47t15 -41t10 -20l10 -20l8 -16q4 -6 8 -22t6 -21t7 -12t7 -13t3 -18
q2 -20 12 -33q12 -15 27 -48q14 -34 20 -39q4 -10 9 -33t9 -30l43 -91q2 -2 3 -8q1 -7 8 -16t11 -20q5 -15 12 -27q8 -11 11 -24q2 -13 5 -20t9 -12q6 -6 8 -10t3 -11q2 -7 2 -9q0 -3 6 -17t9 -19t5 -9t8 -12t5 -22q-1 -13 -2 -28t-17 -18q-2 -2 -37 -2l-29 -2q-12 6 -21 6
l-19 -4q-5 4 -13 4t-17 -1q-36 -4 -36 20q0 8 -16 40l-9 19v11q0 12 -5 19q-5 6 -5 12v15q-2 6 -11 13q-12 9 -14 21q-2 11 -9 19q-15 16 -15 33q-10 10 -12 26q-2 17 -10 26q-7 9 -10 15t-4 17q-2 19 -9 31q-8 13 -8 22l-6 17q-12 12 -30 9q-19 -3 -22 -3l-24 4
q-27 2 -45 0l-43 -12q-2 2 -7 2l-18 2q-6 2 -16 0t-16 -2l-27 4l-33 -4l-29 6q-4 2 -12 0t-22 -2t-32 2t-24 -2q-6 -3 -17 -21t-13 -20l-2 -21q-2 -6 -22 -49t-19 -65q-4 -17 -31 -71t-27 -62v-17q-6 -36 -24 -46q-18 -11 -28 -11l-58 2q-3 0 -15 -2q-10 -2 -30 -2
q-18 0 -25 -6q-18 -2 -33 13q-17 18 -5 50q13 31 18 42t9 19t10 13q9 11 9 22v13q5 16 13 27q12 17 12 30t12 35q12 23 14 38q2 16 22 49t23 47q2 14 10 28q9 14 13 24t6 24t8 21q6 9 8 15l13 38q2 4 10 16t9 23q1 10 5 22t11 21q6 10 10 26q7 28 14 38q8 10 12 37
q4 6 21 25t18 44q2 25 8 34q5 8 9 16t6 14t6 21q6 24 14 34t10 19q2 14 10 23q8 8 11 29q3 22 17 39t15 30q1 12 4 19t12 30q9 24 13 30t4 12q1 6 2 10q1 5 3 9t7 11q8 11 10 26q3 15 15 35t13 32q6 45 48 22q19 -12 21 -27t5 -17zM614 819q0 -4 -1 -9t-3 -7t-9 -7t-11 -10
q0 -23 -17 -34q-2 -4 -2 -12t-3 -15t-11 -23l-12 -24l-2 -19q-9 -9 -19 -40t-17 -44t-3 -21q9 -16 24 -11q15 4 26 4t20 1q10 1 14 0t12 -4t12 -3l41 6q16 -2 54 0q52 0 38 39l-8 24q0 8 -7 18t-11 27q-4 16 -17 25q-13 10 -10 22q3 18 -6 27q-8 8 -9 11q-1 2 -8 24t-34 57
q-10 21 -16 11q-5 -9 -5 -13z" />
    <glyph glyph-name="B" unicode="B" horiz-adv-x="1001" 
d="M534 1229h27q33 -7 45 -17q15 -13 29 -16q13 -3 28 -14q21 -16 42 -25q2 -4 4 -10t4 -8q31 -20 38 -35l9 -18t7 -8q8 -8 10 -17t10 -21t9 -20t8 -16q28 -37 25 -121l-6 -31q0 -26 -7 -39q-7 -12 -8 -14t-1 -6q0 -3 -1 -7t-2 -7l-2 -6t-3 -6t-3 -6t-10 -22t-17 -27
q-13 -10 -21 -25t-21 -18q-14 -3 -18 -7q-20 -10 -21 -19q0 -8 16 -13t25 -15q10 -10 20 -12q11 -1 21 -6t23 -22q12 -16 16 -21t15 -12q17 -11 24 -27t15 -24q7 -8 9 -12l17 -55q14 -39 14 -45v-41q0 -96 -26 -158q-3 -2 -9 -8t-7 -9t-3 -7l-4 -8t-5 -8q-3 -3 -10 -8
t-19 -24t-29 -28q-23 -25 -30 -30t-25 -11l-21 -7q-4 -1 -24 -15t-41 -13q-21 0 -38 -6t-36 -5t-23 -1l-25 -6q-12 6 -20 6l-16 -4q-4 -2 -10 1t-16 1q-9 -2 -28 -2l-26 -4q-8 0 -29 4t-31 2l-22 -6l-23 4l-26 -2h-21l-20 -2l-23 4q-59 -20 -88 8q-13 13 -8 30q4 17 4 23
l-2 25l4 18l-2 25l4 49l-2 13v6l2 22q-6 18 -6 45l2 29l-4 26v12l2 27q2 2 0 9t0 12l4 34l-6 74l6 35l-2 22q-2 6 0 20t2 21l-2 19l2 22q-4 78 -2 101l-6 61l2 115q-4 8 -4 24l4 20v23l-4 21l4 16l-2 17l2 45l-4 20l2 33v55l-10 33q0 4 4 14t5 15q1 6 4 11q4 5 22 9t29 1
t15 -3l70 2l25 -4q14 0 22 4l23 -2h10l22 2l27 -6q11 0 19 2t16 0t12 -2l25 6l24 -6q15 0 25 -10q8 -2 26 -2zM420 156l102 2h25q65 14 111 44q24 16 44 64q6 6 11 19l-2 22q8 16 8 27l-8 41q-13 69 -41 87q-8 4 -31 22t-49 24h-27l-47 16q-6 -2 -113 -2l-34 -6q-31 0 -45 3
t-21 -3q-6 -6 -5 -23q1 -16 1 -18l-2 -31l-2 -41q6 -6 6 -21l-4 -20l2 -22q2 -8 1 -20t-1 -19l-2 -113q0 -20 7 -24t32 -6l31 -2l26 4zM513 1059q-9 0 -11 2l-29 8q0 2 -33 2h-32l-46 4l-40 -4q-2 0 -10 1q-8 2 -13 0q-6 -2 -6 -16t3 -32q3 -16 0 -51t-1 -123l-2 -37l6 -37
l-4 -20l4 -39q0 -23 5 -28q4 -5 14 -5h15l22 2q49 -5 67 2l20 -2l25 8q4 0 12 -2q9 -2 13 -1t12 6t11 6t11 3q18 6 28 16q9 9 30 20t26 28q6 18 12 24t9 12q2 5 3 15t8 43t0 51q-7 19 -9 32t-25 36q-20 35 -22 39q-2 0 -28 16t-31 18t-14 3z" />
    <glyph glyph-name="C" unicode="C" horiz-adv-x="1343" 
d="M307 726v-16q0 -11 -2 -16l-8 -25q0 -10 3 -19t2 -21t-1 -17l-4 -34l10 -61v-13l21 -49l10 -29l2 -14q6 -10 24 -32t19 -31q2 -9 23 -30q2 -4 7 -17t21 -23q23 -16 31 -29t19 -18q17 -8 30 -21q10 -3 41 -15t43 -21t80 -23l20 -5q13 0 25 3l27 -7l24 4l23 -4q11 0 22 11
h21l39 12q57 20 65 27t19 12q12 4 21 10q8 7 28 27t29 26t12 14q6 12 15 20q9 9 18 20q17 21 42 18t42 -22q16 -19 24 -26t14 -17t13 -17q30 -15 34 -29q4 -13 -7 -35t-25 -32t-23 -21q-10 -12 -14 -17t-19 -14t-25 -19q-8 -11 -14 -14l-18 -9t-16 -10t-10 -9q-6 -6 -12 -8
q-5 -2 -18 -5q-24 -6 -39 -20q-36 -34 -120 -43h-16l-27 -6q-36 -6 -56 -6l-32 -6q-2 0 -59 4h-29q-4 0 -13 5t-13 6t-15 -1t-27 0t-19 3t-6 3t-7 3q-4 0 -8 2q-3 2 -11 1t-14 5l-8 4q-3 2 -11 3t-12 3t-11 8q-13 11 -30 15t-30 14q-16 13 -35 18t-31 21t-21 19
q-10 3 -27 19q-17 15 -27 21t-17 16q-8 11 -11 15q-24 12 -24 25q0 5 -27 32q-2 4 -5 13q-6 16 -25 36q-20 20 -27 43l-9 26q-1 3 -2 8t-9 14q-11 14 -11 26v12l-10 33l-8 16v27q-25 127 -25 159t16 97l-2 23l17 49q0 4 -1 12q-1 7 6 21q10 20 14 40t18 40q21 31 26 43
q4 12 9 19q4 7 6 11t7 9q6 6 19 32q52 66 74 81q23 15 28 26q12 24 29 24q33 33 56 38q23 6 35 17t17 13l10 4t10 3q6 1 10 3t19 9q24 11 36 11h10q6 3 27 13t68 10t51 2l20 6q11 2 29 -1t25 -1t22 2l53 -10q2 0 10 1t36 -7t38 -8q12 -12 25 -13q14 -2 18 -4t13 -10t48 -22
t48 -22q8 -9 12 -11t11 -3t11 -3t22 -20t24 -20q6 -4 10 -6t8 -7t6 -7t8 -7t14 -13t4 -26t-10 -24q-6 -8 -18 -16q-29 -19 -29 -31q-4 -4 -10 -8t-9 -7t-7 -10t-7 -11q-46 -46 -90 8q-6 6 -18 17t-16 18q-4 8 -6 11q-4 4 -16 9t-24 16q-12 12 -18 17l-18 8q-7 0 -31 12
l-21 2q-9 5 -20 12q-10 8 -25 5q-14 -2 -32 2t-31 4l-27 -2q-84 0 -99 -8t-36 -16t-27 -11q-6 -4 -10 -6t-12 -10q-33 -11 -49 -19l-19 -20q-15 -7 -17 -12q-3 -5 -10 -13q-8 -8 -20 -15q-12 -8 -16 -12t-7 -11t-6 -9q-19 -13 -40 -51q0 -10 -7 -17q-2 -6 -14 -24t-16 -26
t-10 -34t-6 -31q-1 -5 -3 -11t-4 -10q-2 -5 -2 -10z" />
    <glyph glyph-name="D" unicode="D" horiz-adv-x="1218" 
d="M516 1243l63 -10h21l23 -8q57 -10 67 -15l51 -18q1 -2 9 -3t14 -5t28 -18t31 -22q10 -7 30 -18t32 -23q8 -9 19 -15t19 -20t25 -24q18 -11 26 -31q9 -20 31 -42q23 -23 29 -31t9 -21t5 -17t6 -11q3 -6 6 -11q3 -4 6 -10t5 -12t3 -10t1 -14q0 -22 17 -33q2 -9 4 -25t4 -18
l10 -39v-18l6 -19l-2 -33l6 -18l-4 -41q0 -2 3 -34t-1 -34l-10 -35q-2 -4 -4 -18t-8 -26q-6 -11 -8 -18t-8 -27t-9 -27q-2 -6 -2 -10l-2 -13q-2 -2 -4 -5t-13 -14t-25 -42q-15 -31 -24 -44l-89 -99q-21 -24 -39 -35q-19 -11 -22 -13t-11 -7t-13 -9l-13 -2q-10 0 -20 -10
t-17 -14q-10 -4 -16 -10q-5 -5 -27 -12t-36 -15q-14 -7 -20 -9l-21 2q-23 -8 -33 -8t-26 -8q-16 -2 -57 -8l-33 4q-15 0 -39 -8l-47 6q-4 2 -11 -1q-8 -4 -21 1q-13 4 -20 1t-10 -3l-75 -2h-43q-17 0 -31 -4q-56 -16 -86 20q-6 6 -6 14l4 37l-4 17q6 6 6 14v73l2 12v7
q0 8 -6 23l4 90l-6 61l2 25v154q0 9 -2 14l2 17l-2 20l2 73l-4 43l4 30l-4 26q-2 8 -1 24t1 25l-2 28l6 39l-6 39l4 19v80l2 18q2 4 -1 16t-3 52q9 18 -2 78t26 77q9 9 26 6q17 -2 23 -2h15l20 -4l75 -6q16 0 25 4t13 4h7l73 -10l33 10q13 0 41 -8zM516 154l54 14q3 0 30 6
l21 2q9 2 31 14t28 12q29 5 51 38q4 2 19 9t34 24l22 22t14 6q9 2 14 6q4 7 3 19t3 18t12 15t11 13t4 9q3 11 9 17q7 4 9 8t9 15t11 25q4 13 13 27t7 31q-1 17 4 27t6 13t-1 10t-2 9l4 19l-4 31l4 30l-8 29q0 6 1 22t-1 22t-7 16q-5 8 -7 14t-1 13q0 7 -5 17t-7 13t-4 15
t-18 31q-16 20 -18 26q-2 7 -9 17q-6 10 -8 15q-2 4 -5 8t-9 7q-7 3 -9 5q-23 34 -33 39q-11 5 -23 19q-11 14 -57 39q-46 26 -48 26h-8q-5 0 -9 1l-8 2t-11 7q-6 6 -16 10q-10 3 -73 9l-32 4l-38 -2l-47 8l-27 -4l-29 4l-40 -12q-32 -20 -25 -86l-2 -29q0 -2 2 -7t3 -9
t0 -10t-1 -10l2 -15v-7l-2 -22l4 -20v-9q0 -14 -4 -22v-31l-4 -32l-6 -17l12 -24l-4 -19v-11l2 -21v-11l-2 -20l4 -58l-2 -28l4 -43l-6 -86l4 -25l-2 -20l2 -21q0 -9 -8 -43l8 -22q2 -7 -1 -19t-3 -15l4 -24l-2 -30q0 -41 18 -41l35 2q0 -2 39 0l23 -4l24 4h39z" />
    <glyph glyph-name="E" unicode="E" horiz-adv-x="956" 
d="M523 162l52 4l19 2l35 -2l39 2l26 -2l39 4h43l27 6q81 8 57 -98l2 -33q0 -39 -31 -53q-3 -8 -29 -4t-28 4l-26 2h-13l-16 -4l-21 4l-24 -2l-49 8l-25 -6l-22 4l-52 -4l-49 6l-24 -4q-7 -2 -19 0t-18 2l-23 -4l-28 6l-121 -6l-21 8l-16 -6l-19 -2q-49 -10 -63 16
q-6 10 -4 51l-2 23v8t1 8l2 8t0 11q-1 6 -1 9t4 10t-4 30l2 22v61l-4 23q0 6 5 24t3 26l-6 38l2 21l-2 27q6 6 6 22l-2 15v34l-4 31v33l-2 24l10 33l-6 29l4 96l-6 31l6 22l-4 45l2 17l-2 16q4 4 4 16l-6 39l4 30l-2 34l-4 15l2 17v6l-2 13l2 31l-2 57q0 15 8 27q0 7 -10 43
t6 54t45 15l22 -6l52 4q14 0 42 -3t44 0q18 3 26 3q36 -12 58 -8l32 8l20 -4l19 4l17 -4l94 6l33 -4q45 0 80 4l20 5q4 0 8 2l25 -7l28 5q44 -6 40 -49q-1 -11 -3 -27t-2 -35v-31q0 -24 -8 -30q-7 -6 -33 -4t-42 -2q-16 -3 -23 -3l-35 6l-45 -6q-7 -2 -25 2t-26 4l-31 -2
l-20 9q-9 0 -19 -5l-72 -2l-18 -2l-51 2l-23 -4q-8 0 -16 2q-27 7 -36 -16q-3 -7 -2 -23t-1 -21t-2 -33v-32l4 -24l-4 -35l2 -49l-2 -17v-10l2 -47q0 -6 -5 -36t10 -41t54 -10l39 1l33 4l27 -2l22 6l66 -2l30 2l27 -2q4 0 11 2t11 1t11 -3q6 -2 9 -2l20 4l53 -4l24 6
q3 2 13 1t30 0t28 -8q9 -9 5 -40t-4 -43l2 -20l-4 -23q0 -2 2 -11q8 -35 -33 -36h-37l-26 4h-19l-22 8l-33 -8l-45 4l-49 -6l-49 8l-58 -6l-30 2l-91 4q-20 0 -26 -16l2 -18l-4 -35l4 -19l-2 -47l4 -22l-2 -25v-69l2 -31q-2 -12 0 -55v-23q6 -8 35 -10l51 4q20 -4 35 -4h18
l33 -2q12 6 30 6zM205 823v4q-8 -2 0 -4zM240 1130h-2l2 -2v2z" />
    <glyph glyph-name="F" unicode="F" horiz-adv-x="839" 
d="M309 696l74 -4l23 6h28l21 -2l53 4l20 5q1 0 19 -9l35 6l35 -4l32 7l33 -3q2 0 11 3t24 -7t10 -61q3 -77 -6 -88q-21 -29 -57 -29l-27 6h-78l-29 -4l-23 8l-20 -4l-34 -2l-23 4l-65 -4l-31 2q-13 0 -22 -8t-9 -15l2 -30l-6 -53q-2 -4 0 -12t2 -11l-4 -45l6 -73l-2 -25
l2 -49q0 -1 -2 -16t8 -35l-6 -31q0 -13 4 -59t-16 -59t-86 -9l-38 -2q-16 0 -34 12t-18 46l6 61v28l2 23l-2 23l2 29l-2 34l4 43l-6 22q0 23 6 50l-2 71l4 33l-6 39l4 37l-4 20l2 29l-4 86l4 22l-2 33l4 23l-2 28v15l4 45l-4 20l2 68l2 45l-4 25l4 45l-6 108q0 7 -2 21
q-11 74 22 75h42l16 2l69 -4q61 0 201 4l35 5l35 -5q4 0 49 5l33 -7l28 7l29 -5q24 9 45 2t25 -28l-3 -21q2 -18 3 -22l-5 -21l7 -44q0 -13 -6 -18t-15 -13q-24 -19 -160 0q-27 0 -34 -7l-31 4l-21 -6l-80 6l-9 3q-22 -6 -27 -1q-6 5 -10 5l-23 -11q-33 20 -36 -9
q-3 -30 5 -42l-2 -19v-9l2 -21l-2 -19l4 -22l-4 -37l2 -43l-4 -24l2 -31q0 -4 -3 -16t0 -27q3 -14 -1 -41q-3 -27 12 -27z" />
    <glyph glyph-name="G" unicode="G" horiz-adv-x="1400" 
d="M658 137q24 0 60 -12l19 4l21 -2l20 4q4 2 10 0t9 -2l34 6q1 0 25 12h21l24 13q2 2 15 3t70 50q56 48 73 78q4 6 18 20q15 15 19 23t0 24q-10 16 -21 17h-6l-8 -2q-4 0 -10 2q-5 2 -9 3t-10 0t-9 -1t-10 4t-11 3t-11 -5q-6 -4 -11 -4l-24 6l-26 -2l-23 6l-20 -8
q-4 -2 -10 2t-11 4l-32 -4l-21 8l-18 -8l-19 4l-26 -4q-23 4 -29 10t-6 48v44l-6 36q0 34 40 34l48 -8q6 -2 16 0t18 2l30 -2l21 4l18 -4l20 4l43 -10l24 4h41l21 -6l36 6h7l14 -2h41l14 -7q24 9 29 7q6 -2 16 2t28 4h33q23 1 35 -21q13 -22 -6 -73q-2 -6 -1 -18t-9 -37
q-11 -24 -16 -52t-25 -51q-16 0 -16 -35q-4 -8 -9 -13q-6 -5 -8 -13q-11 -37 -94 -121q-4 -5 -9 -13q-9 -15 -24 -22t-29 -20q-13 -13 -21 -15q-12 -3 -30 -15t-25 -13t-28 -12t-27 -11l-106 -21l-26 2q-20 -10 -31 -10l-45 8l-23 -4l-22 6q-7 3 -23 0q-17 -3 -40 6
q-24 9 -42 10t-23 3t-10 6q-4 4 -8 4t-11 -1t-11 1t-9 9t-9 8t-12 2q-7 1 -12 3l-16 8q-12 5 -23 15t-23 11q-12 2 -14 7q-3 5 -6 9t-5 6t-11 7q-8 5 -12 8t-9 12q-7 12 -20 16q-14 5 -32 26t-23 23q-2 4 -8 7q-12 6 -14 13q-3 7 -10 12q-12 8 -22 29q-10 20 -27 43t-20 34
q-4 14 -20 36q-4 10 -8 33t-14 41q-10 17 -9 29t1 16t-11 29q0 4 2 15q2 19 -10 42v51q-4 12 -4 37l2 11v5l-2 21l4 20l-2 21l6 24v11q0 21 11 32q0 36 12 56t22 48q9 29 17 39q8 9 12 22t13 24q9 10 13 16t17 27q14 21 31 34q18 13 21 16t5 10t6 10q4 4 7 8q4 4 8 7t9 8
t9 7q9 18 20 24t18 13q10 11 24 13t40 22q25 20 45 30t29 11q10 0 21 9t21 9h14q6 2 18 10t29 6q16 -1 20 -1l25 6h22q11 0 19 8q4 0 12 -2q20 -5 33 8l29 -8q25 6 33 3q7 -3 10 -3l30 2l27 -14q4 -2 11 0t21 2t32 -8t22 -16q4 -7 14 -4t14 2t17 -13q5 -2 21 -4q16 -1 22 -5
t14 -10t18 -9q14 -4 26 -18t19 -15t12 -4t8 -6t7 -5q34 -15 35 -37q0 -4 4 -18t3 -19q-2 -6 -15 -14t-15 -15q-3 -8 -7 -12q-3 -4 -7 -7t-5 -5q-37 -75 -119 7q-16 15 -27 24l-57 26q-8 5 -17 11t-24 6q-16 8 -21 8l-22 2q-3 0 -33 10l-29 -6q-6 -2 -24 2t-24 4l-36 -6
q-4 -2 -10 1t-16 3l-21 -4q-2 -2 -11 -1t-11 -1l-19 -10l-92 -37q-8 -5 -15 -11t-15 -11t-19 -15q-10 -10 -32 -26t-43 -44q-20 -28 -30 -40t-18 -30q-8 -19 -21 -36q-14 -17 -14 -36q0 -20 -14 -48q0 -4 1 -12q1 -10 -5 -23q-6 -11 -6 -25v-16l-5 -33v-18l3 -21
q0 -4 -3 -31t4 -42q7 -16 12 -50q5 -33 21 -75q25 -50 26 -54t4 -7t7 -6t6 -6t6 -11q6 -13 14 -16q7 -4 12 -15q5 -12 8 -16t8 -6q6 -1 10 -5l7 -7t7 -11q6 -12 16 -16t22 -20q13 -16 34 -25t34 -18l82 -34h14l17 -6h11z" />
    <glyph glyph-name="H" unicode="H" horiz-adv-x="1177" 
d="M119 352l-2 45l4 23l-2 35l2 45l-2 82l6 29l-4 24q0 7 3 21t1 29t-2 20l2 20q0 10 -5 48t5 58q2 0 8 3h4v2q-10 2 -11 4t-5 32l4 23q2 4 -1 12t-3 13l2 16l-2 20l6 35l-2 27l4 26q0 22 -8 50l4 24l-6 25v22l-6 38q0 18 8 34q2 2 18 6l25 8q6 0 19 -2t35 2t26 4t20 -8
l21 -2q12 -12 12 -23v-14q8 -16 8 -30v-30l-4 -30l6 -18l-14 -35l6 -23q2 -6 2 -18v-18l-2 -20v-11l2 -23l-4 -47l4 -29q0 -20 -4 -28l2 -19q-4 -8 -4 -19l2 -19l-2 -25l2 -41q0 -2 -3 -14q-3 -11 1 -19t18 -8q13 0 19 2t22 0t43 0l31 6h29l16 -4l53 4q12 -4 39 -4h82l24 2
h10l32 -6l39 4l47 -6l28 4l27 -2q24 3 24 32t1 34l6 32q0 4 -5 18t-2 41q3 28 -4 65l5 28q2 4 0 11t-2 11l4 17l-7 22l3 45l-5 22l2 23l-2 27v37q-14 43 0 76t51 22q14 -4 52 1q38 6 61 -5t20 -39t-3 -30l4 -31l-6 -35v-31l-2 -39l4 -41l-4 -26l4 -21l-6 -30q6 -27 4 -64
l-9 -22q0 -16 5 -23v-31l4 -22q2 -29 -2 -53l-7 -29l7 -45q0 -7 -5 -37l5 -47q0 -1 -5 -31l5 -20q2 -8 1 -24t-1 -26l4 -24v-22l-2 -48l2 -35l-2 -36l4 -17l-4 -26q2 -8 2 -95l4 -21l-4 -22l10 -53q0 -43 -27 -55q-41 0 -92 -6l-31 -6l-20 12q-17 10 -23 13t-1 42t3 47
l-4 23q0 9 2 21q12 58 2 93l5 19q0 10 -3 22q5 5 5 10v7q1 2 -5 41l5 28q0 5 -5 45q2 12 3 40q0 28 2 42l8 39v11q1 28 -13 28t-17 -16q-4 -23 -18 -23h-10l-18 -4l-25 2l-22 -4q-41 -2 -55 0l-31 4l-41 -8l-29 8l-43 -6l-86 6l-20 -2l-25 2q-6 -6 -18 -6l-35 8l-63 -12
q-27 0 -27 -18q0 -23 6 -29l-2 -21q2 -18 4 -71l-4 -19v-37l6 -47q0 -4 -1 -11t0 -11t3 -11t2 -14l-4 -17l2 -20l-6 -22l6 -29q2 -10 -4 -47q0 -8 7 -42t-5 -40q-5 -8 -25 -15t-32 -5l-25 4l-20 -4q-4 0 -13 -1q-53 -6 -62 25q-5 17 -4 33t1 18l-2 29l2 16q0 11 -6 23l2 23
l6 34l-6 29l8 22l-4 25q-2 4 1 10t3 12t-2 9q-4 9 -1 18q3 10 3 17z" />
    <glyph glyph-name="I" unicode="I" horiz-adv-x="432" 
d="M258 1231q62 -5 50 -68q-7 -40 -7 -71l4 -39l-2 -29l4 -18l-6 -43v-23q0 -2 -10 -22l12 -29l-4 -25l4 -73l-4 -43q0 -29 2 -37l6 -23l-4 -22q-2 -5 0 -16t-1 -22t-3 -30l4 -23q2 -12 2 -29v-28l4 -24q0 -37 -4 -60l-8 -28q0 -13 8 -37l-2 -64l4 -22l2 -60l-4 -20
q10 -50 10 -76l-6 -53l8 -56q-8 -31 -47 -43q-4 0 -39 5l-22 -5l-11 2h-5l-21 -4q-25 12 -38 14t-16 9q-3 6 -1 22t1 21q-1 6 -1 8l4 43l2 33l-4 25l4 36l-2 19l2 35l-4 24l6 53l-6 50l4 59l-2 63q0 13 6 25l-2 27v12l2 23v12l-6 145l4 21l-2 18l4 18l-4 21l2 41
q-2 96 -2 115l-6 98q-2 4 0 11t2 12v34l-6 31q0 4 4 16t2 17q-11 35 26 43q4 0 66 -2l22 6h25z" />
    <glyph glyph-name="J" unicode="J" horiz-adv-x="684" 
d="M563 797l-2 -21l8 -37l-6 -32l4 -37l-6 -23l4 -43l-8 -29l12 -43l-6 -30l4 -37l-4 -76l4 -27q2 -2 0 -10t-2 -10l2 -39l-4 -24q-2 -5 -1 -13t0 -11t-3 -8t-6 -27t-12 -30q-9 -8 -11 -13t-2 -16t-2 -17t-9 -15q-7 -8 -10 -11q-3 -2 -9 -14t-10 -16t-28 -24t-40 -35
q-16 -16 -42 -26q-26 -9 -33 -9h-11q-13 -13 -35 -17l-21 -2h-12q-16 -8 -28 -8h-76l-27 -2q-29 0 -41 23q-2 6 -2 43l-4 71q2 25 11 36t43 6q62 -9 87 10l23 -7l29 15q2 2 7 3t8 2t8 5t7 6q1 2 9 5q58 23 63 124q4 53 4 72l-2 13v5l2 29q4 111 -8 123l10 31l-6 22l4 31
l-2 29l4 26l-4 60q6 18 6 32l-6 21l8 26q0 22 -8 50l6 38l-2 21v43l-2 16v31q0 20 -2 25l2 57l-6 55q2 2 2 6l2 15l-6 20q-2 10 2 28t9 21q5 4 29 9t31 -1q7 -5 11 -6l35 13q6 2 18 -1t29 -5t22 -19l4 -96l-4 -27l2 -16v-64l-2 -55l2 -53l-4 -49q-2 -4 0 -11v-12l-4 -34z
" />
    <glyph glyph-name="K" unicode="K" horiz-adv-x="1122" 
d="M129 615l-6 65l6 49q-10 30 -10 62l8 40l-4 25q-2 55 -2 70l2 47q-6 23 -4 31t2 12l-4 51l4 28l-6 29q0 2 1 10t-4 29q-4 21 4 47t11 29q2 2 9 2h9q8 8 19 8l18 -6l27 2q4 0 14 3q13 4 29 -2q16 -5 22 -5h16q15 0 15 -14l-2 -21l4 -37q0 -16 -10 -36l2 -25l-4 -27l4 -23
l-2 -20l6 -24l-4 -23q-2 -4 0 -12t2 -12l-6 -58l2 -49l-2 -20l2 -37q-4 -29 12 -25q7 0 17 15q4 2 10 4q10 3 15 11t16 14q10 6 15 12t9 9t8 9t17 16t18 21q5 10 16 19q11 8 26 27q16 19 22 27t18 12q12 5 16 9q2 4 7 11q4 7 6 12q6 4 12 9t13 10t12 9q4 6 12 20t12 19
q24 19 38 31t21 19t15 17t16 16q8 8 11 14q4 6 14 13q16 11 28 30q13 19 32 29q21 9 57 6t46 -1t11 2l15 -2h8l32 4q45 0 53 -11q19 -24 -63 -89q-4 -2 -8 -8t-8 -7q-4 0 -24 -20t-22 -24t-8 -10t-11 -8q-6 -4 -14 -13t-16 -13t-11 -8t-8 -9t-8 -9t-8 -10t-8 -11
q-13 -7 -18 -16q-4 -2 -13 -12t-14 -15q-14 -6 -26 -20q-13 -14 -17 -18t-26 -24t-28 -30q-5 -10 -34 -33t-37 -34t-13 -15t-11 -9t-17 -17t-47 -39q-37 -27 -33 -42q6 -27 29 -41t27 -20t8 -10t8 -13t21 -15q2 -2 4 -8q3 -8 18 -19q15 -12 32 -34q17 -23 23 -29l11 -11
q6 -4 11 -8t16 -17q12 -14 16 -18t10 -12t10 -13t16 -15t14 -14q3 -3 6 -9q3 -5 13 -13t56 -57q4 -4 6 -16t6 -17q4 -2 12 -3t29 -19q2 -4 25 -33t40 -45t31 -36t17 -22q2 -2 5 -4t6 -3q5 -2 16 -17t20 -22q44 -33 25 -54t-42 -17q-21 3 -39 2t-20 -1l-20 2h-6l-13 -2
q-12 0 -16 2q0 8 -29 0q-4 2 -24 -1t-28 2t-18 25q-14 25 -20 30q-7 5 -9 16t-23 30q-21 18 -34 25q-2 4 -5 12t-13 14q-9 6 -14 16t-15 17q-10 8 -12 12t-4 6q-6 9 -8 13t-9 9q-8 5 -10 11q-5 14 -27 32q-23 19 -30 34t-17 22t-15 12t-15 17t-14 16t-6 7q-3 4 -16 14
t-22 30q-8 21 -8 23q-4 4 -15 7t-30 32q-20 29 -31 39t-15 18q-14 22 -38 7q-4 -2 -8 -17v-53l-2 -33q0 -2 3 -15t-1 -26t-2 -24l4 -23q0 -4 2 -45l-4 -45l6 -26l-4 -60v-31q6 -12 6 -22l-2 -21q-2 -8 2 -23t2 -39t-14 -37t-47 -13q-12 6 -20 6h-12l-15 -2q-18 0 -29 -2
l-22 -2q-36 6 -31 28q2 8 2 11l-6 28q-2 7 0 25t2 24l-4 44l8 26l-2 21v43l-2 24l4 43l-4 21l4 18l-2 25l4 22l-4 39l2 23q-2 81 -2 93t8 32l-2 18z" />
    <glyph glyph-name="L" unicode="L" horiz-adv-x="870" 
d="M776 117v-31l4 -12l-2 -27q5 -36 -24 -49q-2 0 -25 -2l-24 -2l-19 2q-6 2 -17 -2t-15 -4h-8l-13 4h-22l-21 -2q-6 6 -21 6l-37 -4l-31 4l-32 -6q-71 5 -78 7q-8 3 -13 2t-9 -1l-21 2q-6 -6 -24 -6l-48 4h-71l-39 -10q-24 -4 -47 30q-4 6 -4 16t3 26q3 14 1 22t0 12l4 76
l-4 43l6 57l-6 46l4 53l-4 32l6 43l-2 29l6 31v41l-10 80q-2 4 1 10t3 14l-4 15l2 26l-2 33l4 53l-2 58l2 22l-2 16v7l2 61q-4 8 -4 27l2 39l-2 19l2 17l-2 26v11q-6 12 -6 21l8 37q-6 24 -6 57t13 49t54 6l19 2l14 -4q4 0 13 3q10 3 16 2t10 -1l14 4q14 4 27 -18t2 -109
l-6 -26l6 -25q0 -13 -8 -41l4 -24l2 -37l-2 -20l6 -25l-4 -21q0 -2 -2 -34l4 -39l-4 -25l4 -27l-4 -22q-2 -14 0 -41l4 -25q2 -4 1 -11t1 -41t2 -52q0 -20 -8 -54q2 -16 2 -38l2 -21q2 -6 0 -20t-2 -21l4 -32q0 -22 -3 -36t-2 -19l2 -10t0 -8t-1 -7v-7l-2 -16l2 -33
q2 -8 0 -20t-2 -19l4 -40v-19q6 -8 39 -10t35 0l32 8l30 -4l26 2l23 -2l28 6l22 -4l29 2h41l37 2l23 -2l18 4q2 0 7 -1t20 6t37 -3t27 -23t5 -38z" />
    <glyph glyph-name="M" unicode="M" horiz-adv-x="1406" 
d="M1110 477q0 82 -4 113l4 43q2 4 0 9t0 23t-2 66l2 27q-5 19 4 41q0 10 -8 10q-11 -5 -19 -20t-36 -44q-27 -29 -32 -44t-8 -18t-9 -13t-9 -14l-11 -11q-7 -6 -10 -10t-6 -9q-12 -19 -41 -51q-29 -31 -42 -56t-17 -31t-10 -10q-6 -5 -38 -50q-32 -46 -48 -66t-18 -24
t-10 -24t-17 -29q-8 -8 -32 -11t-28 27q-2 10 -9 15q-7 6 -8 8t-3 8t-4 10t-12 14t-16 19t-10 18q-5 9 -17 21t-16 17t-8 13q-6 15 -14 20q-8 6 -18 26t-15 26t-16 15q-15 12 -20 26t-14 20q-10 8 -16 26q-6 17 -19 27q-12 9 -15 12t-6 14q-3 10 -7 12t-5 5q-2 3 -4 7t-9 13
q-9 12 -13 22t-11 12q-14 5 -14 21q-19 19 -22 28q-23 31 -33 27q-18 -12 -19 -19l17 -16v-18l4 -17l-2 -16l4 -39q2 -4 0 -13t-2 -15l4 -32l4 -110q0 -21 -6 -45l10 -23l-6 -34l4 -25q2 -4 -1 -12t-3 -15l4 -16q2 -4 0 -13t-2 -14l4 -45l-4 -24l4 -43l-4 -22l6 -21v-29
l6 -47l-2 -23l4 -22q0 -34 -41 -42q-25 -5 -43 -3l-18 8q-6 0 -39 -5t-37 1q-18 6 -18 48l-2 38l4 16l-4 29q0 12 6 27q0 29 -3 48t-2 27t1 14v25l-2 21l2 20l-4 35l6 27l-4 82l6 22l-4 57l8 80l-6 27l6 25v20l4 55q0 17 -6 23v16l-2 21l4 23l-2 18v8l2 16l-2 27l4 59l-4 24
v24q0 22 -2 26l2 18q-4 12 -4 39l2 19q2 4 0 12t-2 13l10 24l-8 22l4 21l-8 49q-11 53 18 55q18 2 31 -20q2 -2 4 -8t5 -10t6 -5q11 -8 19 -25q7 -18 15 -24q10 -7 16 -25q7 -20 18 -24t13 -16q12 -13 12 -27t5 -18q2 -6 13 -10t15 -7q15 -23 19 -27t5 -10t3 -9t10 -8
t12 -11t5 -14t7 -13q6 -6 9 -8q2 -2 4 -8q2 -5 4 -9t6 -6t7 -4l8 -4t7 -6t5 -17t5 -17t6 -5q3 -2 5 -3q5 -3 7 -9t8 -13q2 -6 13 -16t21 -33q11 -24 20 -30q17 -12 27 -31q20 -10 24 -18t14 -24q9 -15 21 -29q13 -15 16 -27t13 -19q11 -8 16 -15t14 -18q9 -10 12 -18
q4 -8 18 -26t21 -18q7 -1 18 14l12 18q4 6 11 17q8 11 10 14l6 9t7 8q3 3 6 9t7 12t6 11q4 4 10 8q11 6 22 27q11 20 24 30q2 4 5 11q3 8 6 12q6 8 15 15q10 7 17 21q8 13 16 25q7 11 19 23t13 15t3 6t3 5t9 11t15 22t10 16q4 5 6 7t5 3q4 1 10 13q6 11 11 15l7 7l18 28
q26 40 40 48t18 19q4 12 6 16t10 14q8 9 10 13t4 10q3 9 11 17t10 15q3 7 12 14q10 7 16 18t16 21t19 32q8 21 16 28q7 5 11 11q34 47 55 30q8 -8 10 -30t-2 -31l-8 -23q-2 -8 0 -26t2 -24t-8 -26l6 -26l-8 -37q4 -20 4 -41v-33l4 -22l-8 -88l6 -58l-4 -43l6 -30
q2 -8 -1 -24t-3 -21l4 -35v-8l-2 -14q0 -3 -2 -7l2 -25v-13l-2 -25l6 -50l-4 -28q0 -4 4 -34t-6 -77l4 -49l-6 -43l6 -31v-84l8 -18l-8 -19q-2 -7 -2 -23t10 -36q0 -4 -1 -14t0 -14q3 -10 3 -32t-23 -28q-7 -2 -15 -6t-12 -5t-13 4t-17 5t-45 -6t-54 14q-23 27 -5 80l-2 18
v35l6 27l-2 57q-2 9 -1 27t1 26l-8 27q6 24 6 107l-2 39z" />
    <glyph glyph-name="N" unicode="N" horiz-adv-x="1208" 
d="M905 1092q0 4 3 11q6 13 -1 26q-6 13 -6 17t4 50l-4 21q0 10 7 24t25 14l33 6l19 -8q29 0 50 7l20 -3l18 -2q31 -18 14 -68l3 -21l-5 -33q-1 -3 3 -19t2 -24l-5 -24v-22l-4 -18q8 -8 5 -39q-3 -32 -3 -41l4 -23l-6 -26l4 -24l-6 -27l6 -43l-4 -25l4 -39l-4 -65l2 -45
l-4 -152l4 -37l-2 -24v-172l-2 -60l4 -39l-4 -20l4 -43v-14l-2 -25q17 -17 11 -49t-21 -37q-8 2 -12 0t-11 3t-13 8t-8 10q-3 8 -8 16t-5 10q-16 16 -19 23q-2 6 -4 8t-14 13q-12 12 -15 18l-10 22l-12 18q0 19 -16 19q-16 1 -34 25q-17 24 -20 30q-28 18 -68 75
q-40 56 -48 58q-2 3 -12 9q-18 12 -32 44q-15 32 -26 41q-12 9 -44 44t-38 36q-13 27 -22 33q-9 7 -13 14q-8 14 -39 39q-2 4 -9 19t-25 36q-19 21 -22 30q-6 17 -20 27q-15 11 -21 20q-9 13 -17 19t-17 28q-4 6 -17 13t-21 19q-7 12 -10 16t-5 7q-2 4 -4 7t-2 5l-33 35
q-6 0 -12 -7t-6 -14l6 -30q0 -4 -2 -12q-2 -9 -1 -13t4 -11t3 -11l-4 -45v-36q0 -28 -2 -34l6 -37q2 -4 -2 -12t-4 -12q9 -18 6 -25l-8 -31l10 -32q0 -81 -6 -132l4 -24l-2 -49l4 -29v-59l4 -74l-4 -37l6 -42q0 -40 -24 -46q-6 -4 -30 0t-30 4l-22 -8q-3 -2 -11 -1t-11 1
t-18 -2t-31 7q-15 9 -12 43t1 47t-2 20l8 43v18l2 14v9l-4 24l2 34l-4 36v6l2 13v7l-2 25q0 29 2 33l6 24l-6 21l2 23l-2 21q4 38 4 56l-4 39l6 23l-6 24q0 17 4 27l-2 45l2 16l-6 45l2 25l-2 53l2 19l-2 24l6 19q2 37 0 42t1 48t1 47l2 26l-8 56q-3 10 4 32l-4 17l-2 39v47
q-6 15 -4 41t22 28q12 2 33 -18t29 -31q8 -12 20 -25q12 -12 14 -16q1 -4 7 -11t8 -11q2 -2 9 -7t13 -19t23 -33q24 -27 27 -37q3 -9 27 -29q25 -20 29 -31q4 -12 9 -16q6 -4 17 -21q13 -20 25 -27q12 -8 16 -18q5 -10 9 -14l12 -12q9 -8 11 -12t6 -13q4 -8 16 -17
q16 -12 25 -24q8 -12 14 -18t10 -18q5 -12 15 -21q3 -7 17 -17q20 -14 28 -30q7 -15 15 -20t13 -12q7 -9 16 -18q9 -8 21 -27q11 -19 28 -36q17 -15 21 -21t8 -14q3 -8 6 -11q2 -3 12 -10t22 -21t15 -23t25 -25q21 -16 26 -20q4 -4 6 -12t4 -10q2 -3 6 -8t12 -19t30 -4
q21 10 15 49l-4 24l6 55l-2 33l4 39l2 86l-8 96q-2 12 1 35t3 27l-2 26l4 56l-4 41l4 26q-6 12 -6 56z" />
    <glyph glyph-name="O" unicode="O" horiz-adv-x="1488" 
d="M826 1290h12l32 -6q2 -2 8 -1t12 0q5 -1 17 -7q20 -10 31 -10h10q6 -2 12 -8q11 -11 21 -10q9 1 36 -12t36 -16q10 -3 18 -12t29 -17q21 -7 24 -16t14 -17q11 -9 13 -11t9 -4t15 -13q9 -10 20 -17t15 -18q5 -14 15 -20t27 -31q18 -24 30 -36q2 -6 4 -20t14 -21
q11 -8 15 -13q23 -68 31 -82t9 -19t1 -12t1 -11t5 -12q8 -14 8 -27v-15q10 -30 10 -40v-21l9 -76v-8l-3 -18v-9l3 -35l-5 -20q0 -2 1 -15t-5 -37t-11 -35q-5 -12 -7 -26t-4 -19t-4 -8t-4 -9t-7 -9q-2 -6 -4 -26t-19 -33q-17 -14 -20 -34t-11 -25q-7 -5 -9 -8q-8 -11 -10 -20
t-15 -21q-12 -11 -14 -13t-5 -8t-7 -10l-21 -21q-2 -2 -17 -12t-41 -41t-29 -33q-6 -4 -13 -4t-47 -21q-19 -19 -37 -23t-35 -18t-53 -20h-16l-29 -8l-17 2l-26 -14q-6 -2 -18 -2q-15 1 -30 -4t-22 -5l-24 2l-45 -4q-6 6 -21 6h-26q-21 7 -26 9t-10 1q-4 -1 -8 0t-9 3t-8 2
h-12q-9 0 -14 2l-26 16l-23 2q-2 0 -26 10t-30 12q-5 1 -9 3t-11 9q-11 11 -27 11t-26 15q-16 12 -30 23q-13 11 -19 13q-10 3 -14 11q-5 8 -19 13q-23 9 -29 22t-17 23q-11 9 -15 19q-6 15 -19 25q-12 11 -16 19t-11 14t-9 10t-5 12l-6 12q-6 10 -11 20q-6 9 -14 32t-15 31
q-15 17 -15 41q-8 16 -8 18l-14 53l-11 27q-2 6 -1 25t1 24l-4 23q-4 25 -4 53l8 57l-4 43q0 7 3 17t4 34t23 73q21 50 30 77t32 51q40 68 54 84q14 17 42 41t34 32q5 8 10 13q4 2 7 4t15 8q49 35 53 37t14 11t32 17q22 7 49 22q26 15 50 18q25 4 64 14t45 4q21 0 25 4l20 6
q4 0 15 -1t21 2q10 4 14 5t20 -6h23l22 -6q4 -2 9 -2zM1192 684l-10 64q0 4 2 17t-15 41q-16 27 -28 56q-11 29 -13 32t-3 13t-11 15q-12 5 -17 16t-14 19q-10 7 -19 14t-21 23q-11 15 -17 22q-6 4 -17 9q-27 12 -36 26q-26 22 -51 27q-25 6 -35 16q-11 10 -26 10h-19
q-8 8 -21 8l-11 -2h-5l-27 6l-22 -6q-6 -2 -20 4t-28 0q-16 -6 -20 -6t-13 1t-20 -3q-12 -4 -18 -4l-15 2q-8 0 -16 -8h-10q-12 0 -29 -17q-70 -36 -73 -39q-2 -4 -6 -7t-5 -5q-2 -2 -15 -5t-21 -17q-9 -13 -12 -19t-6 -9t-11 -5t-28 -26t-25 -43t-22 -41t-21 -35t-13 -60
l-10 -25q-2 -4 -2 -10v-12t-2 -12l-12 -37l4 -25l-2 -16q0 -11 4 -17l2 -36l12 -48v-16q0 -19 14 -47q9 -45 11 -48t9 -10q8 -8 14 -24q7 -16 19 -32q13 -15 16 -22t9 -9q0 -3 15 -13q26 -39 36 -45q12 -6 30 -24t26 -23q8 -4 17 -6t12 -4t7 -4t10 -9q7 -7 66 -26h16
q7 0 9 -2l35 -10l22 2l39 -6l17 4q23 0 36 8l19 -8q5 0 20 4t26 3t34 11q22 12 40 19t25 14q23 0 33 14t34 24q27 12 38 40q13 7 24 23q14 22 35 44q2 4 16 33t23 44q16 24 16 46q20 74 23 127l-4 53z" />
    <glyph glyph-name="P" unicode="P" horiz-adv-x="985" 
d="M897 906q0 -5 1 -12t-1 -42l-8 -39q-2 -9 -5 -25t-5 -22l-5 -27q-2 -4 -6 -10q-11 -17 -15 -32t-21 -31q-21 -20 -30 -40q-10 -21 -18 -26q-8 -4 -15 -8t-11 -6t-9 -8t-9 -8t-10 -6q-7 -3 -29 -19t-58 -26q-35 -9 -51 -17l-47 -4l-17 -4l-43 4l-24 -6l-23 4l-20 -4
q-6 0 -21 6q-10 0 -47 -4t-42 -10t-5 -17l6 -43q2 -6 -1 -15t-3 -14l4 -20l-6 -31l4 -47l-2 -43q8 -16 8 -27l-8 -34v-23q6 -12 6 -18l-4 -37l6 -47q2 -2 1 -10t0 -24q2 -32 -42 -42q-10 -2 -26 3t-23 5l-24 -4q-63 -6 -82 29q0 2 4 30l-4 27l4 24q2 6 -1 20t-3 30l2 24
q2 6 -1 16t-3 15l4 59l2 136l4 94l-6 57l2 22l-2 19l2 23l-2 16v41q6 12 6 19v11l-2 19l2 29q2 12 0 37t-2 34l4 47q0 5 -3 14t-3 44l-4 39l4 57q0 6 -2 16t2 33t0 41l-6 21l6 32v6q0 9 -4 13l4 24q0 36 20 41q6 0 9 -9t8 -2t22 7q18 0 58 -2l15 2l17 -6q26 8 43 8l19 -2h8
l18 2l23 -8l29 8l18 -6q8 0 12 4h26l11 2q9 0 15 -4h24l16 -4l20 4l19 -6q33 0 50 -6l20 -10l18 -2q17 -9 21 -11t12 -4t14 -4t13 -11q8 -9 12 -12t12 -6q9 -3 13 -5t8 -8q8 -10 21 -17t17 -16q5 -9 7 -12t7 -8t7 -8t5 -11l6 -12t7 -7q21 -17 21 -41q16 -16 23 -59
q8 -43 10 -53q2 -9 2 -14zM577 1073h-17q-10 0 -28 12h-34l-24 1q-24 1 -28 0t-19 5q-16 6 -29 1q-13 -4 -22 0t-36 0q-28 -4 -33 -9q-8 -10 -8 -24l4 -58l-4 -20l4 -29l-4 -55l4 -72l-6 -59l-2 -16q0 -2 1 -12t-3 -30q-7 -35 31 -34l18 -6l23 2l18 -2l41 4l37 -6l35 6
q4 2 14 1t14 1l19 4q30 0 65 17t103 106q8 25 8 87v17q4 29 2 29l-12 24q-2 4 -2 13t-10 16t-16 21q-9 18 -20 23q-11 4 -28 22q-32 20 -56 20z" />
    <glyph glyph-name="Q" unicode="Q" horiz-adv-x="1478" 
d="M1198 197q0 -5 -1 -9t7 -8t16 -4t9 -2l28 -12q7 -2 15 -1t11 1t13 -5t16 -6q5 -1 11 -8q4 -12 4 -16l-16 -33q-5 -14 -12 -15q-8 -1 -21 -20q-21 0 -27 -18q-6 -17 -11 -25t-32 -13q-34 -6 -51 8q-17 15 -28 17q-11 1 -15 4t-14 9t-12 8t-15 14q-12 12 -20 13
q-42 -3 -76 -37q-16 -8 -31 -8h-16q-11 1 -20 -7q-16 -13 -38 -20l-24 2l-78 -14q-6 -2 -22 2t-25 4q-12 -6 -21 -6l-20 4l-18 -6l-34 10h-12q-47 5 -71 23q-5 2 -21 4q-22 3 -31 9t-21 11q-13 6 -19 9q-5 3 -13 6q-8 2 -14 6t-19 9t-44 32q-31 28 -43 37q-12 10 -16 14
t-8 9q-7 11 -19 13t-20 18q-10 21 -29 33t-38 51q-24 48 -27 65q-2 17 -26 40l-28 88q-2 9 -2 21t-3 20l-10 39q-3 25 6 51q-8 24 -7 29q1 4 -2 13t-3 24l2 24q2 2 1 8t0 10q1 3 4 14t2 18q-1 8 1 12l4 16q2 2 1 7t-1 9t5 11l2 10q2 2 4 18q2 17 4 23t4 10t5 6t6 6t4 9
q1 4 1 9v14q-1 8 9 18t12 15t2 14q0 16 16 32q16 15 18 23t5 11q6 9 12 21t55 60q7 15 21 22q14 8 19 14q4 6 14 13q10 8 18 16t15 13t12 8q4 2 7 4t6 3t16 11q24 19 37 21q12 3 23 15q11 11 17 15q24 0 35 11h10q6 0 10 2l25 10q4 2 9 1t8 -1l38 10q4 2 14 0t13 -2
q4 0 14 6t18 2q9 -4 13 -2l37 13l23 -2l22 2l20 -4h17l22 -15l23 4q43 -5 43 -6l33 -10q4 -2 16 -2t18 -2l31 -12q2 -2 8 -2q7 0 11 -3q4 -2 9 -8q8 -9 20 -12q13 -3 19 -10q6 -9 11 -11q4 -2 13 -5q8 -3 12 -6t8 -8t7 -10t7 -9t8 -9q32 -11 39 -20q7 -10 19 -21
q12 -10 26 -24t24 -18q16 -8 19 -22t13 -23t12 -13t5 -15t6 -15t11 -18t12 -18t11 -12q8 -8 10 -13t2 -13t15 -45t13 -45q-1 -9 6 -24t11 -26l-2 -39l6 -24q2 -2 1 -12t-1 -15l4 -16l-4 -39l2 -14q-12 -23 -10 -63t-3 -52t-10 -26t-8 -33t-7 -25t-10 -12q-7 -6 -9 -10
t-1 -12q2 -10 -4 -16q-5 -4 -10 -14q-6 -10 -10 -17t-6 -11t-4 -10q-12 -35 -41 -72q-31 -37 -39 -42t-8 -11zM698 160l46 -8q26 0 39 5t33 6t30 3q8 2 13 4t11 6t12 6t21 2q55 0 1 58q-38 41 -37 66q1 24 9 29t16 9q15 7 22 17q7 11 16 20q23 16 34 13t40 -36q2 -4 3 -11
q2 -11 11 -17q10 -6 14 -14q4 -9 8 -14t14 -8q11 -3 17 1t11 13q6 8 18 20t30 51t30 61q13 22 23 60q9 37 8 44t0 10t3 6t3 6q1 4 4 8t3 12l-4 18v21l-2 16q0 6 2 11q2 4 3 12t3 12l-2 24v19q0 10 -9 29t-9 36l-8 27q-4 27 -36 83t-34 57l-16 14q-19 19 -29 34t-17 18
q-12 6 -17 15q-6 9 -31 23t-37 23q-13 8 -19 12t-16 7t-30 12t-28 9q-12 0 -21 7q-10 7 -19 5q-8 -1 -34 5t-31 5t-12 -1h-11l-23 -6q-9 -2 -29 -1t-29 1l-36 -9h-13q-15 0 -18 -6q-2 -6 -6 -8l-17 -2q-2 0 -8 -4q-5 -4 -27 -11t-26 -11t-7 -6q-3 -3 -6 -7t-9 -8t-19 -12
q-17 -10 -31 -26t-29 -25t-19 -14t-8 -14q-3 -9 -16 -22q-14 -14 -16 -20t-4 -16q-3 -15 -11 -21q-8 -7 -28 -47q-2 -8 -6 -28t-10 -32q-7 -12 -11 -32l-8 -35q-2 -4 1 -13t3 -14l-4 -51l2 -23v-32l9 -27l-2 -24l8 -21v-14l45 -101q8 -16 16 -20q25 -41 31 -45t12 -10
q16 -33 28 -37q12 -5 20 -18q8 -12 30 -22q22 -11 34 -26q12 -16 38 -16l10 -2q6 -6 18 -15q25 -12 58 -20l28 -2q5 -6 13 -6t10 -2z" />
    <glyph glyph-name="R" unicode="R" horiz-adv-x="1062" 
d="M297 487l2 -108l-2 -90l6 -21v-26l6 -25l-6 -24l-2 -27q0 -4 3 -18t2 -20t-1 -20t10 -45l-4 -26q0 -13 -4 -23q-6 -24 -68 -24l-20 6q-16 0 -31 -6q-33 -2 -55 16q-14 7 -10 60l-2 24v5l2 14q2 4 0 13t-2 11l2 29l-2 18l4 33l-2 27l4 39l-4 16l4 18q-4 9 -4 21t4 16
l-2 24l6 29q0 3 -4 9q-7 9 -4 19q2 9 2 13l-2 25l6 41q0 8 -4 22l-6 21l8 38l-6 36q0 10 7 21q7 10 7 14t-8 13t-8 39t4 44l-2 16l4 24l-2 21v10l2 43l-4 43l2 27l-4 19l4 24q-4 8 -4 19l6 22l-8 21q-2 2 -1 9t-2 19t1 25q4 12 4 16l-6 29q0 4 1 11t-2 16t-3 14l2 22
q0 26 5 30q5 3 11 5t15 7t18 5l18 -4q28 0 50 4t29 1t11 -3t14 1t19 -1q10 -2 20 -2h15l31 4l24 -2l35 2l18 -2l25 4q8 0 66 -6h26l74 -18h10q10 -10 28 -13t28 -13q13 -14 25 -17t19 -15q6 -13 25 -29t26 -24t11 -16t7 -11t8 -9q4 -6 10 -10q6 -5 9 -9q5 -7 10 -25
q4 -18 17 -30q6 -18 10 -42t12 -42q7 -18 1 -80q-7 -62 -21 -94t-22 -49t-11 -23t-4 -13q-2 -15 -21 -31q-19 -15 -25 -23q-5 -7 -7 -9t-6 -5t-8 -5q-5 -2 -24 -24q-20 -22 -53 -35t-43 -10t-11 3q-3 0 -11 -3t-16 -5q-30 -7 -35 -18q1 -15 17 -29t20 -24t11 -14q6 -3 8 -5
t7 -8t7 -9t5 -5t7 -6q5 -4 7 -5q2 -2 5 -7q3 -6 13 -16t17 -20q6 -10 13 -14t9 -6t3 -5t3 -6t4 -4t7 -7t8 -8q2 -3 6 -11t7 -11t10 -6t13 -11t15 -14t15 -17q7 -11 48 -56q48 -52 55 -67q47 -31 60 -70q10 -10 10 -14q8 -20 -16 -27q-5 -3 -15 1q-10 3 -14 3l-23 -6l-22 2
q-9 0 -21 -3t-17 -4t-8 0t-8 1h-8q-80 7 -99 45l-5 10l-20 20q-16 15 -25 23q-2 4 -4 11t-4 9t-6 5q-4 2 -8 7t-6 8q-2 5 -9 9q-7 5 -15 21q-9 15 -18 19t-13 13q-3 9 -5 11t-7 5t-10 13t-8 12q-2 3 -12 8t-12 11q-4 2 -7 13t-10 16q-8 6 -10 8t-5 6q-9 12 -11 15t-19 17
t-29 32t-16 22t-11 10q-12 10 -16 22q-5 12 -17 21t-25 24t-21 21t-8 17q-14 18 -28 19t-15 -14v-18zM586 688h10l12 8q14 0 23 10q14 16 31 27q10 32 21 42q11 11 12 30t13 38q11 19 4 65q-6 47 -10 51t-7 8t-6 7t-11 19q-2 2 -37 33l-29 25q-6 2 -13 2h-11q-12 12 -23 12
l-26 8q-5 2 -15 0t-32 2t-37 6l-23 -2l-24 4l-43 -8l-21 6q-29 4 -43 -12q-14 -23 -10 -57l6 -27l-2 -59l2 -32l-2 -38l6 -37q-7 -36 -2 -65q0 -24 -6 -78q0 -12 67 -12l31 -5q125 -3 170 19q2 0 7 4q8 6 18 6z" />
    <glyph glyph-name="S" unicode="S" horiz-adv-x="933" 
d="M92 877v24q-2 72 -2 80q12 35 12 47v16q9 18 9 31t10 21t16 17q9 15 17 21q13 11 17 20q14 32 47 47q12 5 18 11t14 10t20 6q12 3 19 5l61 20l23 -6q4 2 13 11t21 6q13 -2 17 -2l27 8l21 -6l20 2q6 0 21 -6t27 -4q11 1 15 1t13 -4q18 -8 36 -8l19 -8q15 1 27 -11
q10 -12 28 -12q16 0 34 -10q17 -10 45 -23q62 -29 9 -96q-6 -4 -14 -14l-12 -15q-4 -6 -14 -22q-28 -51 -66 -7q-13 16 -47 29t-42 17t-39 8l-53 6q-6 1 -22 7q-15 6 -21 5t-49 -16q-33 0 -43 -10t-23 -16q-12 -7 -15 -13t-7 -13t-6 -11t-8 -12q-29 -39 -25 -88
q4 -48 13 -64t27 -34t23 -26q6 -9 16 -10q11 -2 14 -5t6 -5t5 -5t6 -5q3 -2 8 -4t9 -3t12 -14q10 -1 51 -25t60 -24l20 -12q4 -4 16 -8t15 -6l17 -13q14 0 23 -11t19 -15q10 -3 16 -13q5 -10 14 -11q10 -1 12 -3t5 -6t14 -11t16 -16q5 -8 9 -11t9 -8q6 -5 9 -7t6 -8t5 -9
l19 -8q10 -2 16 -14q53 -78 64 -162q2 -4 1 -15t0 -32t0 -28t-7 -33t-8 -40q-1 -19 -10 -31t-16 -32q-8 -19 -12 -27t-12 -14q-14 -11 -19 -26t-32 -39l-20 -10q-5 -3 -11 -5q-7 -2 -19 -12t-49 -22q-36 -11 -50 -17q-19 -8 -53 -8h-30l-24 -6q-7 -2 -19 0t-25 2h-36l-31 10
q-6 0 -20 -1q-20 -1 -56 17q-36 19 -44 19q-11 0 -21 11q-9 11 -25 11q-15 0 -19 8q-5 8 -7 9q-6 2 -28 9t-32 24l-14 14q-2 10 5 26t15 23q22 11 26 26q1 3 3 6t3 6t4 5t6 5t6 5q4 4 11 20t29 18q21 1 43 -14q21 -14 25 -18t14 -9q16 -8 27 -19t22 -9q11 1 41 -11t42 -15
l32 4q7 0 43 -8l47 10h11q45 16 84 66q8 13 11 22q3 10 5 14l10 21q15 31 -6 90q0 21 -12 27t-15 9q-2 3 -5 11t-6 10q-3 1 -8 5t-9 6q-11 21 -23 28q-16 8 -24 19t-22 21q-15 9 -21 10q-6 0 -13 6t-14 8l-21 7q-14 5 -22 8t-17 12q-13 13 -26 16t-20 9q-10 9 -21 11
q-11 3 -23 14t-28 11q-11 11 -24 19q-16 9 -24 18t-16 11t-12 5q-36 36 -54 63q-17 28 -29 44t-17 24t-11 32t-10 32q-6 12 -6 37z" />
    <glyph glyph-name="T" unicode="T" horiz-adv-x="880" 
d="M217 1073h-45l-33 -4q-39 2 -47 10q-16 16 -16 43l4 41q2 7 -1 15t-4 28t9 33q10 12 43 16l55 -6l22 4l17 -4h37l25 6l36 -4q29 0 33 -2q16 -4 18 -23q2 -18 8 -20q5 -2 7 8q0 4 -2 14t3 15q6 6 26 9t38 -3t27 -6l43 10q2 0 6 -2l8 -4t9 -3q4 -1 10 2t10 3h66l20 6
q5 2 13 0t10 -2h20l17 -4l28 6q54 12 60 -38q2 -8 2 -64q0 -57 -3 -61t-18 -14t-26 -5l-25 6l-25 -4l-28 6l-37 -4l-23 2h-54q-23 0 -30 -4q-10 -9 -7 -29t5 -63l2 -49q0 -4 -3 -18t-1 -19q2 -6 4 -11t2 -10q0 -4 -5 -24t-5 -39l6 -55q2 -6 -2 -16t-4 -13l6 -33q2 -16 1 -46
t-6 -38q-5 -6 -5 -8l10 -14q-2 -38 -2 -39l6 -150l-4 -59l2 -21l-2 -24l4 -23l-6 -28l4 -21q2 -29 -4 -96l6 -35v-8l-4 -20v-29q-4 -39 -36 -43q-2 -2 -31 0t-42 0t-40 0t-33 14t-1 28t2 34q-3 16 -3 18l6 53l-4 33l4 25l-6 47q8 16 8 26t5 26q5 14 -3 26t-8 20l4 20l-4 21
q6 6 6 16l-4 43l4 35l-4 21v26l-4 17l4 65l-6 35q10 30 10 41l-2 25l4 41l-6 47l8 33l-8 32l2 27l-2 47l4 53l-4 27l4 41q0 12 -2 14q-10 16 -34 9t-27 -7l-21 10q-6 -2 -17 -4l-22 -4q-10 -2 -12 -2z" />
    <glyph glyph-name="U" unicode="U" 
d="M104 903l5 37l4 14q0 3 -9 21q0 14 5 49l-7 20l7 27l-5 21l2 30l-6 25q0 81 25 98q4 2 40 3t68 1q31 0 34 1t18 -5q12 -10 10 -39l2 -18q0 -8 -6 -29l4 -35q-2 -23 -6 -123l-4 -20l4 -29l2 -84l-6 -45q0 -26 6 -53l-2 -20v-45l-6 -54q0 -2 1 -9t-1 -15q-2 -7 -2 -13v-10
l8 -63l-6 -58l4 -20q0 -2 -2 -11q-2 -8 0 -12t7 -12t5 -14l-2 -21q0 -13 14 -41q28 -79 41 -91q14 -11 22 -17q14 -11 19 -25q6 -14 20 -19q13 -5 22 -16t18 -14q8 -2 10 -4l4 -4t4 -5t4 -3l25 -7q56 -25 70 -20q13 4 42 4q28 0 42 2t23 6t19 4q10 -1 21 9t39 24t30 14
q4 4 8 10q7 10 16 14t28 30q4 2 8 11t6 11q0 2 5 8t8 17t9 19q6 6 8 12t7 20q4 14 11 32l13 97l-4 23q0 22 6 28l-2 25l4 20q0 17 -8 41l6 31l-4 53l2 68q2 4 4 13t3 13l-5 19l-2 40l2 27v43l-4 14v5l4 24l-4 29l4 37v10l-4 31l2 20l-2 31v51l-4 27l10 25q0 2 -1 10t4 10
q20 28 56 14q15 -6 24 -6l28 4l21 -6q2 0 11 2t19 0t22 -18q11 -15 5 -35l-10 -20l4 -25l-6 -39q0 -6 2 -66l-4 -20q6 -24 6 -61l-4 -21l8 -24l-2 -21v-21l-2 -54v-21l-4 -25q-2 -66 0 -98t2 -39l2 -23v-22l4 -16l-4 -17l2 -16l-4 -19l4 -45q-6 -12 -6 -22l2 -29l-4 -24
l2 -35l-12 -36q-1 -3 0 -13t-1 -16t-11 -23q-10 -18 -12 -31t-11 -25t-11 -16t-6 -14q-13 -32 -49 -68q-31 -40 -38 -43q-41 -20 -58 -42t-21 -24t-15 -3t-21 -12q-19 -19 -48 -19l-22 -13q-32 -16 -144 -16l-34 -4l-23 2l-25 -2l-46 14q-19 0 -37 10t-39 11q-39 14 -47 22
q-9 8 -21 14t-17 11q-5 6 -7 8t-9 5q-6 3 -8 5t-5 8t-5 9q-16 8 -23 11q-10 5 -15 16q-6 11 -13 18q-23 12 -26 19t-4 12q-2 11 -16 25q-14 13 -16 23t-4 11l-10 18q-2 4 -2 11v10q-2 4 -8 8t-7 8q-4 2 -4 10t-1 12t-4 7q-3 4 -6 7t-4 7t0 10t-2 18t-9 40l2 20q-8 26 -6 62
q2 37 -7 94l17 55q0 4 -2 8t-3 8q-22 87 0 137q3 8 -2 21q-5 12 -8 29l3 76z" />
    <glyph glyph-name="V" unicode="V" horiz-adv-x="1247" 
d="M165 1274l33 -6l25 -2q19 0 35 -4q12 -8 20 -22t37 -89q0 -9 7 -18l14 -23q0 -4 -2 -13t0 -13t7 -8q8 -8 11 -24t11 -27t12 -20t7 -15t5 -20q2 -15 17 -43q16 -29 19 -39t4 -17t7 -14q7 -8 9 -22t7 -20t6 -9t3 -8q2 -4 4 -10t8 -17t12 -25q7 -15 9 -20t7 -14
q11 -20 12 -30t20 -53q18 -42 18 -45l16 -39q1 -20 15 -43q14 -24 20 -42l7 -21q1 -3 1 -12t6 -21t7 -15l-5 -22q0 -8 7 -11q17 0 14 16q-2 16 -2 23q0 6 4 14t12 54l18 30q16 28 24 59t15 42q7 10 11 20t5 14q1 5 4 13t14 32q12 24 16 33t11 34t16 40q10 15 12 20t4 11
t4 11t6 28t20 40q15 16 15 27t2 16t10 15q16 20 16 43q24 61 31 69t27 68t33 82l4 17q0 4 10 19q9 16 21 18t25 -1t17 -3l27 4h23l22 4l16 -6q27 -4 34 -10t4 -20q-3 -16 -3 -24t-2 -12l-12 -22q-8 -12 -11 -32q-3 -19 -22 -47q-20 -28 -20 -50q-4 -10 -39 -80l-4 -23
q-26 -75 -62 -139q-2 -7 -5 -19q-4 -19 -13 -31q-9 -13 -17 -37q-12 -36 -21 -48q-8 -12 -26 -67t-38 -92q-19 -37 -28 -59t-10 -34t-3 -18t-11 -12q-8 -7 -9 -11t-3 -10t-4 -15t-20 -44q-19 -34 -20 -46t-8 -26t-9 -20t-8 -23t-9 -23q-2 -6 -2 -13t-6 -21t-13 -25
q-23 -39 -28 -76q-6 -37 -24 -58q-17 -20 -23 -21q-7 -1 -21 6q-22 11 -22 30q-14 28 -14 40t-8 22t-9 22q0 12 -12 24q-4 36 -15 48q-10 12 -12 17t-1 15t0 14t-5 8q-4 5 -5 7t-3 8q-2 7 -8 13t-11 15q-4 9 -7 15t-4 10t-5 10t-15 40q-11 33 -20 46q-13 18 -16 43t-39 78
q-10 25 -10 39t-11 28t-21 38q-9 23 -11 26q0 25 -8 33t-9 16q-2 8 -9 19t-11 24t-9 27t-9 21q-6 8 -8 21t-4 15q-1 3 -8 20t-10 24t-11 18q-7 10 -7 20q0 16 -12 27q-12 12 -13 24t-8 23q-6 10 -11 22t-7 17q0 26 -13 43q-13 16 -14 20t-12 30q-11 25 -15 30q-9 11 -9 25
q-13 13 -13 34q-4 9 -12 23t-13 26q-13 33 19 42q2 2 9 4t12 4l10 -4q16 0 40 8z" />
    <glyph glyph-name="W" unicode="W" horiz-adv-x="1753" 
d="M1516 1270q20 0 30 -2q3 13 21 8q18 -4 24 -4t30 2t40 -2t16 -18q0 -13 -8 -29q-8 -47 -35 -97q0 -6 -5 -12t-7 -17t-7 -29t-15 -39q-10 -22 -16 -39q-5 -17 -10 -38q-5 -20 -10 -27t-6 -11q0 -4 -2 -13q-2 -8 -4 -11t-6 -8q-5 -6 -7 -20t-12 -36q-11 -22 -15 -46
q-5 -23 -13 -37t-18 -44t-12 -39q-1 -9 -2 -15t-2 -10t-6 -11q-5 -6 -7 -12t-4 -16t-4 -13t-5 -11q-7 -18 -7 -32q0 -15 -12 -34q-12 -18 -19 -40q-8 -22 -11 -37q-4 -15 -18 -37t-14 -64q-2 -10 -10 -26t-10 -24q-2 -10 -7 -20q-4 -10 -9 -21t-7 -17q-4 -13 -4 -23
q1 -9 -9 -27t-12 -26t-7 -25q-5 -15 -7 -23t-10 -28t-10 -28t0 -16q1 -8 0 -12t-9 -13t-13 -16t-7 -9q-2 -1 -12 -8t-18 8q-7 14 -9 23t-9 20t-9 15t-1 11q0 10 -7 18t-7 18v17q-2 8 -9 18q-11 16 -14 34q-3 17 -17 47q-15 30 -19 48t-10 26q-11 12 -11 32l-10 25
q-4 4 -6 15t-4 15l-7 14q-4 10 -8 18q-4 6 -4 16t-7 32t-15 36q-8 15 -28 74t-32 83q-12 25 -14 31t-3 13t-13 25t-14 36q-2 16 -4 20q-1 4 -4 10t-3 10l-12 43q1 25 -13 25t-14 -20v-23l-22 -60q0 -12 -4 -20l-9 -19q-2 -4 -2 -12t-1 -12t-7 -14t-7 -21q-1 -10 -9 -34
t-13 -41q-6 -17 -10 -25q-4 -9 -4 -17v-10l-10 -24q-2 -6 -7 -26t-14 -32q-2 -8 -7 -26t-7 -26t-5 -12l-6 -12q-9 -19 -13 -48q-5 -30 -17 -47t-16 -45q-4 -27 -25 -75l-4 -24q-4 -4 -27 -68q0 -41 -10 -57q-29 -47 -47 -37q-2 0 -8 11q-6 10 -12 16q-7 6 -9 11t-3 15t-3 14
t-7 11q-5 6 -5 10q-2 4 -1 15q2 17 -13 27t-15 42q-2 2 -3 6t-2 7t-3 6q-2 2 -2 16t-8 26q-12 17 -12 33q-2 2 -10 19t-13 23q-4 5 -5 17q-1 11 -9 24t-8 26q0 12 -12 32q-20 34 -21 64q-15 30 -15 34t-4 13t-8 19t-5 14l-2 8l-2 8t-3 8l-6 12t-6 13q-2 4 -6 19t-12 24
t-11 27q-4 18 -9 24q-12 14 -12 29l-10 22q0 30 -15 52t-19 45q-8 46 -25 63q0 6 1 16t-1 15q-2 6 -10 16q-7 9 -11 15t-8 20t-7 20t-5 14q-2 9 -4 13t-7 11q-9 12 -7 23q1 11 -10 30q-11 18 -14 35q-3 18 -5 23t-7 13q-6 8 -8 12t-2 12q0 7 -2 11q0 3 -4 9l-6 9t-4 5
q-23 63 6 73q20 8 43 3l21 -7q16 0 21 2t9 3q4 2 6 4t7 2l20 -2q27 4 37 -7q28 -22 33 -68q0 -5 2 -9l12 -25q4 -10 11 -39q8 -29 22 -56t14 -40q0 -14 2 -18t9 -21t11 -23t6 -11q5 -8 5 -18v-9q8 -37 17 -51q10 -13 12 -18t3 -14t5 -19t15 -33q11 -25 15 -33q8 -17 10 -37
q2 -21 9 -37q8 -16 9 -20t1 -10q0 -5 2 -10l6 -18q3 -12 9 -18q8 -8 8 -21v-12q2 -4 9 -15t8 -33t16 -38q14 -16 25 -14t20 41l6 18q2 2 2 18t24 64l4 25q3 9 10 19t7 18q4 6 5 18q1 15 10 28t13 31q5 19 7 26t6 15t6 14t7 15q5 7 6 19t2 15t4 7t7 13t6 23q1 14 3 22
q2 6 7 14t7 12t3 12q2 12 12 26t10 27t4 23t11 28l14 36t11 28t9 23q6 13 7 26q2 16 8 29q7 14 8 26t10 27q8 14 9 26q1 11 11 26t27 -2q2 -3 7 -5q14 -7 18 -33q5 -26 14 -35t18 -45l9 -41q1 -4 11 -24q0 -14 6 -28q8 -19 9 -31q0 -12 18 -40q18 -29 68 -175l4 -27
q8 -8 8 -18q4 -4 4 -21l15 -20v-11q0 -11 8 -21q8 -9 10 -14t9 -29t14 -37t10 -23q-2 -21 1 -27q23 -46 31 -56q9 -11 9 -16v-16q2 -16 11 -30t13 -13q6 3 14 23t9 30q0 10 6 21q6 12 14 50q8 39 19 59q14 28 14 48t12 39t15 23q2 4 4 11t4 11q0 4 11 20t11 54l13 29
q2 2 2 5v6l2 13q15 40 39 88q17 61 21 74q3 15 5 19t4 9t5 9l2 22q0 10 8 24t10 20t4 21q4 32 16 44q10 25 18 28t28 3z" />
    <glyph glyph-name="X" unicode="X" horiz-adv-x="1228" 
d="M492 636q2 3 9 13t7 24t-23 29q-2 2 -4 11t-15 30q-14 21 -24 25q0 9 -10 20t-12 15t-6 10t-8 16q-4 9 -10 17t-20 27q-16 19 -20 27t-7 15q-3 9 -5 13t-7 8t-23 34t-24 36q-7 8 -15 27t-18 22q-14 5 -17 16q-3 10 -16 30q-13 19 -19 30t-45 59q-30 45 2 70q4 2 24 0
l25 4l18 -4l41 12q6 0 12 -7t11 -8l20 5q1 0 23 -11q35 1 45 -23t17 -31t16 -38q4 -6 13 -16q9 -9 12 -13t8 -16t18 -24t18 -31q4 -19 11 -25q8 -6 26 -31t19 -40q32 -48 32 -64q17 -17 15 -31t-11 -18q31 -12 41 -19t18 -7t17 26q11 26 19 36t12 17q4 9 5 15t11 18t15 31
q4 4 9 11t10 13q9 11 13 23t13 25q10 13 12 17t4 9q3 10 21 22q22 25 26 41q4 15 6 20q1 6 17 24t19 24t7 11t8 9t7 16q4 11 10 15l78 13q4 0 18 -7l31 11q6 -2 4 -8t0 -8q2 -1 8 6q18 21 56 -13q14 -12 12 -22q-16 -30 -31 -45q-30 -53 -42 -68q-11 -14 -17 -30t-31 -49
q-25 -34 -34 -39t-11 -9t-5 -9q-3 -4 -5 -10t-8 -16t-29 -39q-33 -42 -38 -56q-4 -13 -14 -21q-12 -9 -17 -22q-6 -13 -27 -37q-22 -24 -26 -34q-3 -10 -9 -24t-16 -20q-10 -7 -8 -18t16 -29t17 -26t5 -10t4 -5t4 -5l4 -4t4 -8t4 -9t6 -7q3 -4 5 -10q2 -5 13 -20t24 -36
q14 -21 21 -29q13 -15 13 -29q21 -21 25 -32q7 -19 18 -28q11 -10 23 -44q8 -8 23 -20l10 -27q8 -10 23 -32q16 -22 20 -28t6 -12q3 -9 10 -16t9 -17q1 -9 14 -20q12 -11 28 -39q15 -28 37 -56t29 -44q6 -17 -9 -27t-40 -12l-68 6l-32 -10l-27 6q-18 -4 -41 20t-37 60
q-4 6 -14 19t-13 21q-3 13 -11 19q-8 5 -18 23q-9 18 -13 22t-7 8q-4 4 -4 9q-4 4 -5 10t-5 11q-8 9 -11 20t-32 48t-44 67q-14 30 -22 40q-11 15 -20 35q-8 21 -23 32q-14 11 -18 15q0 14 -9 25q-8 10 -18 8q-27 -6 -48 -88q-1 -4 -8 -14t-14 -25q-14 -28 -38 -60t-32 -46
q-7 -13 -31 -50t-32 -49t-11 -22q-6 -17 -24 -31q-18 -15 -18 -31q-5 -5 -10 -20q-6 -15 -8 -18q-25 -37 -43 -48q-19 -10 -47 -10l-21 -4q-4 0 -6 -2l-37 4l-28 -8l-25 6q-4 2 -17 0t-23 17q-11 19 -7 27t7 9q3 2 6 5t4 6t5 13t12 15q15 10 19 23t19 26q14 13 17 19t4 15
t3 12t5 6t6 7t10 9t20 31q12 26 24 39q17 17 20 29q3 11 21 34q17 24 23 35q4 2 8 13t12 18q11 10 24 31t22 27q14 11 18 30q5 19 19 28q0 18 15 26t21 17l18 31q3 4 12 15t13 20q3 10 5 13z" />
    <glyph glyph-name="Y" unicode="Y" horiz-adv-x="1185" 
d="M158 1257l18 3l23 -3q8 0 14 3l20 -5q37 -6 45 -12t23 -31q16 -25 25 -32q2 -4 2 -12t5 -15q5 -8 11 -8q31 -46 37 -68q4 -4 10 -9q10 -8 13 -19q4 -11 15 -23q11 -13 18 -22q16 -20 22 -41t23 -38q18 -19 25 -33q11 -23 21 -31t21 -32q10 -24 15 -30t11 -20t16 -12
q9 3 17 23t18 31q10 10 32 48t36 56q14 19 18 25t7 12q2 6 4 10q5 13 14 16q9 4 14 25t11 25q2 6 10 14t14 19q2 2 9 4q12 12 14 26t12 23q9 9 13 18q6 13 13 20q8 8 10 13q3 10 11 19q10 5 19 32q15 48 74 46q4 0 16 -3t20 -2t11 1l20 -6q3 0 27 12l30 -10h9q20 -8 14 -41
l-12 -17q-2 -4 -4 -12t-27 -33q-4 -6 -12 -20q-7 -15 -11 -19t-11 -10q-10 -9 -17 -23q-7 -15 -15 -20q-3 -3 -5 -11t-12 -17q-16 -15 -15 -27q0 -12 -19 -34q-19 -21 -26 -35q-11 -19 -20 -25t-22 -33q-18 -39 -31 -47q-13 -9 -18 -26t-22 -40q-17 -22 -21 -28t-6 -12
q-2 -7 -5 -11t-10 -10t-15 -21t-34 -53q-42 -62 -36 -104q7 -41 1 -104q-5 -63 -5 -66l8 -37v-152l-4 -29l6 -22l-6 -25l8 -24q2 -8 -1 -22t-3 -25t-5 -19t-26 -12l-32 2l-21 -4l-22 4q-31 -2 -39 0t-21 4t-16 9q-2 7 0 19t2 19l-6 19l4 16v7l-4 27l8 34l-8 23l2 24l-2 18
l4 19l-8 53l6 28q-7 15 -2 46q6 32 6 41l-2 24l6 23v8l-2 6l4 20q0 3 -1 9l-2 12t-3 10l-4 55q-2 4 -14 22t-14 26q-2 11 -11 20q-11 9 -15 19t-6 14q-19 19 -27 39q-7 19 -20 34q-14 15 -22 26q-7 11 -13 19t-14 25q-8 18 -22 33q-4 8 -14 26l-17 27q-2 4 -12 8t-13 16
q-2 11 -4 15t-8 11t-8 11t-6 11q-4 8 -17 23t-17 24q-3 10 -7 16q-3 6 -9 12l-8 8q-5 8 -8 20t-35 38q-9 18 -15 24q-7 7 -8 18q-2 12 -12 16q-22 9 -22 30q-12 24 -12 32t4 13q41 21 59 17z" />
    <glyph glyph-name="Z" unicode="Z" horiz-adv-x="1224" 
d="M674 1090l-50 -3l-12 -2l-16 5q-54 -9 -88 -9l-31 4l-67 -6l-21 2q-34 2 -37 0l-30 -8l-23 10h-15q-24 0 -24 28l6 28l-4 20v33l2 18q-2 31 4 37t30 11q25 6 50 6t27 -2l24 4q33 -11 43 -11t41 5l23 -5l31 7l28 -9h21q8 0 8 -12t6 -10q8 -4 10 7q4 21 20 18q5 -1 7 -1
l23 2l38 -2q5 0 17 4t24 -6q11 -10 17 -10l45 17l26 -5q9 -2 23 -1t18 1l23 -2l18 2h29l49 5l28 -9l25 6q6 2 16 0t15 -2q4 0 32 4t38 -9q10 -14 1 -36q-10 -24 -21 -31t-14 -16q-3 -8 -6 -11t-9 -8t-12 -12t-20 -29t-18 -26l-8 -8t-8 -7q-6 -4 -11 -20q-5 -15 -21 -28
q-17 -13 -17 -29q-14 -14 -16 -17q-1 -3 -5 -8q-4 -4 -7 -10t-7 -10t-11 -13t-15 -17q-14 -16 -20 -33t-20 -32q-20 -21 -23 -33q-3 -11 -7 -15t-8 -9q-4 -6 -8 -10q-6 -6 -12 -20q-5 -14 -19 -24q-15 -10 -15 -25q-5 -10 -19 -26q-13 -15 -17 -21t-21 -29t-25 -31t-13 -17
t-18 -35q-14 -28 -29 -43t-17 -24t-8 -14q-5 -4 -10 -10t-10 -14q-8 -12 -18 -21t-15 -23t-7 -16t-6 -8t-6 -7t-5 -9t-11 -13q-13 -10 -23 -28t-15 -22q-15 -13 -32 -46q-3 -4 -11 -11t-11 -11t-7 -13q-4 -10 -13 -21q-9 -12 -3 -18t11 -5t15 5t14 4l21 -6q14 -4 41 -6l49 6
q51 -7 86 2l45 -2l27 4l21 -2q6 0 18 -2t26 4l31 -4l29 4l53 -4q17 0 29 2t26 1t23 -1l18 6l23 -6l35 6q42 -10 32 -64q-2 -10 0 -18q2 -6 0 -16t-2 -14l5 -31q0 -13 -9 -32t-43 -19l-22 4h-24q-9 0 -16 2q-6 2 -18 -1t-16 -3l-31 2q-8 2 -20 2h-29l-24 -4l-23 4l-20 -4
q-9 0 -21 6h-33q-4 -4 -18 -4l-43 4q-4 2 -13 -1t-13 -3l-56 8l-17 -2l-22 2l-22 -8l-54 8l-26 -6l-41 4l-21 -6l-22 8l-23 -6l-31 4h-6l-14 -2q-25 12 -29 12t-17 -9t-27 -3q-13 6 -25 6h-29q-6 -2 -15 -6t-26 -8t-34 11t-15 27t17 29q15 18 23 31q7 14 16 19t11 12
q3 6 5 8q0 2 3 5t5 6t5 6q3 4 7 14q7 18 18 23q12 6 14 15t22 39q20 29 24 39q6 14 23 27q17 14 77 125q4 6 16 18t18 25t13 18t9 8t5 10t6 10t10 8t12 15t17 25q13 14 15 20q2 7 4 10l4 6t9 9q8 6 10 10t3 7q1 4 3 8l4 8t10 11q8 6 11 12t8 13q4 7 8 15q12 24 26 31
q13 20 17 33q15 7 21 20t12 18t14 20q7 14 21 32q21 27 28 41t12 16q4 5 16 19q23 27 24 36q2 9 9 15t10 11q3 4 17 18t21 31q8 17 20 25q12 7 9 19t-31 6l-13 5l-20 -2q-2 0 -12 2t-16 1t-18 -4q-13 -3 -20 -4zM276 57q-2 -4 3 -8q3 4 -3 8zM604 676q-6 -4 -1 -13t13 -5
t-4 16zM717 1249q-4 -4 0 -6t8 0q2 6 -8 6z" />
    <glyph glyph-name="backslash" unicode="\" horiz-adv-x="1093" 
d="M856 -318q0 6 -15 32t-19 40q-3 14 -9 25t-13 26t-13 25q-5 10 -7 16l-26 56q-18 46 -28 64t-24 44q-12 26 -21 42q-9 17 -11 32q-2 14 -18 40t-25 46l-41 80l-14 23q-13 25 -24 49t-30 60t-39 69q-20 34 -37 70l-24 54q-2 3 -7 9t-7 9t-6 13q-3 10 -5 14t-4 6q-2 3 -3 5
q-1 1 -5 7t-11 27t-13 29t-7 15q-2 8 -4 11t-6 11q-7 5 -13 20q-5 15 -20 35q-14 21 -20 33l-6 23q-3 4 -7 8t-5 7t-46 92t-63 115q-17 28 -23 34t-10 14t-5 15t-20 34q-18 27 -18 35t-3 13t-4 6t3 4q6 0 15 -2t13 1t10 1q7 -2 11 1q5 3 19 0t25 0t21 0t25 1q14 4 14 -2
l7 -21l10 -18q22 -44 31 -55q8 -11 13 -20t9 -16t7 -15q4 -8 24 -46q20 -37 24 -46t27 -55q23 -45 27 -57t10 -20t14 -31t16 -30q7 -7 12 -16t20 -42q14 -33 20 -43t16 -25t14 -23t4 -16q1 -10 4 -16t12 -19t12 -21l9 -22q10 -26 20 -33t12 -20q1 -12 3 -15t24 -42t40 -81
q20 -42 45 -92l26 -52q7 -7 41 -79t42 -83q8 -12 21 -42t15 -33t10 -18t18 -32t25 -53q14 -37 24 -53q10 -15 16 -26q5 -11 9 -15q4 -5 11 -23q8 -18 11 -22t10 -14t19 -24q12 -15 1 -19q-10 -5 -24 -3t-21 -1t-27 0t-25 0t-13 0t-30 -3q-22 -5 -22 14z" />
    <glyph glyph-name="asciicircum" unicode="^" horiz-adv-x="690" 
d="M555 858l-28 4q-5 0 -10 -2t-8 -1t-11 3t-13 -1q-4 -3 -17 -5t-18 -3q-4 -1 -8 4t-8 7t-12 17t-20 28q-13 13 -22 30t-19 30t-15 37l-2 -2q-19 -38 -24 -43q-5 -3 -13 -17t-14 -22l-12 -16q-6 -7 -9 -11l4 2q-8 -10 -11 -13q-3 -4 -7 -12t-8 -10t-7 -6t-7 -3t-18 2t-20 4
q-4 3 -14 0t-16 -1t-11 2l-28 -4q-49 0 -16 29q2 2 9 14t9 14q2 3 7 13t7 12l19 33q0 2 2 5t5 9t5 8t6 9t17 24q0 6 4 10t6 8l4 8t6 16q4 13 12 21q9 9 10 14t3 9t6 17t67 16q110 0 115 -10q0 -13 10 -23q0 -9 7 -14q13 -19 16 -30q4 -11 7 -15t8 -14t20 -27l20 -39l21 -33
q0 -4 13 -25t17 -30l4 2q-1 -5 5 -15t2 -12t-27 -2z" />
    <glyph glyph-name="a" unicode="a" horiz-adv-x="849" 
d="M184 631l-4 49q0 12 25 23t30 11h14q9 -1 16 6t22 5q16 -1 25 3t24 9l29 -2q31 2 47 5t22 1t11 -4t12 -2l17 2l20 -2l19 2l24 -8q6 -2 19 -3t44 -17q4 0 14 1t15 -6q13 -24 26 -24q5 -4 13 -9q18 -10 23 -23q6 -12 14 -17q2 -4 3 -11q1 -6 2 -10t5 -9q6 -8 6 -16t6 -23
t3 -55t-3 -46l4 -49l-6 -31q0 -19 8 -47q5 -46 -4 -86l2 -27l-4 -33q0 -6 4 -82l-4 -30l2 -17v-8l4 -16q4 -27 -24 -35q-5 -2 -21 -1t-20 1l-37 -4q-4 -2 -11 0q-8 2 -10 2h-9q-9 0 -26 11q-18 11 -30 11q-20 -10 -38 -13q-17 -3 -23 -5t-15 -9q-10 -7 -16 -7q-3 -4 -21 -2
t-22 2l-25 -6l-29 4h-8l-53 4q-44 0 -60 13q-23 19 -36 19q-12 0 -19 10q-8 10 -10 11q-2 2 -10 7t-10 9t-8 15t-12 17q-7 5 -9 8t-3 9t-3 9q-29 61 -25 110l6 21l-2 26l15 34v9q0 12 7 16q8 6 14 18t12 19q4 7 26 22q22 16 32 24t14 11q5 3 14 6q22 7 32 20q11 12 26 12
l13 -2q45 0 56 7t15 7h8l28 6h14l31 2h65q20 -2 22 0q2 1 18 17q15 16 16 26t-10 30t-31 19l-48 13l-24 -2l-29 4q-70 -10 -72 -10l-22 -9q-8 -4 -28 -9t-38 -13q-32 -14 -46 5q-15 19 -18 38q-3 18 -11 26t-11 13zM522 356l-41 -8l-30 2q-3 -2 -9 -4t-10 -4t-8 -3t-11 0
t-12 1l-20 -8q-143 -39 -115 -123q10 -45 24 -53t26 -10t22 -4q35 -10 72 -6q38 4 53 14q92 18 104 47q2 2 4 30l4 31l-4 43q-2 39 -4 41q-12 18 -45 14z" />
    <glyph glyph-name="b" unicode="b" horiz-adv-x="909" 
d="M486 -18l-31 -5q-12 0 -15 5q-58 5 -74 21q-1 1 -10 3t-26 22q-21 26 -43 -8q-5 -4 -21 -12t-24 -6l-25 6l-27 -12q-8 -2 -23 5t-32 7q-1 1 -14 64l4 19q0 3 -2 14t0 38t-1 49t-3 31l4 21l-4 37l6 51l-6 47l6 31l-4 20l2 23l-2 18l8 27l-6 20l2 19l-4 20l4 39l-10 33
l6 145l-4 35q0 20 2 27l4 22l-4 21q-2 13 -1 37t1 36l-4 21l6 31l-6 22l4 23q-4 16 -4 35l-2 18q-2 6 1 16t3 15l-6 24l4 45q-6 40 2 50t41 14t50 -1t27 -3t26 2t21 -6t7 -13q2 -6 1 -11t0 -9t1 -8l2 -15v-6l-8 -22l4 -25l-4 -19l6 -24v-9l-2 -20v-6l2 -12v-6l-8 -31l6 -25
q2 -8 -1 -22t-3 -21l2 -24l-2 -35q4 -7 4 -19t-3 -26t-4 -22t2 -20q3 -13 3 -17l-4 -48l4 -34l-2 -25q0 -4 2 -10q6 -2 10 -2l20 8q18 4 30 18q20 23 36 27t20 7q3 3 15 1t16 0l27 12q9 3 23 -1q14 -5 20 -5l20 6q1 0 13 -8l22 4l21 -8q4 -2 12 -3t12 -3l41 -16q7 -5 15 -15
q10 -13 30 -24t24 -19l11 -18q6 -11 14 -17q17 -14 17 -32q26 -39 26 -62l15 -30l4 -39q14 -71 9 -92t-5 -24v-11l-6 -31q-11 -92 -19 -107q-28 -54 -28 -67q-15 -22 -33 -37t-27 -32t-28 -24q-19 -8 -22 -10t-7 -6t-8 -7q-5 -3 -9 -7t-10 -6t-19 -3t-23 -4t-27 -7
q-18 -4 -33 -1q-14 3 -20 3zM639 408l-23 75q0 22 -6 31q-17 13 -22 19q-4 6 -8 10l-13 6q-2 2 -7 10t-30 19q-24 11 -28 12l-27 -4q-32 3 -39 8q-8 4 -14 2t-14 -11q-9 -10 -33 -22t-52 -57t-28 -52t-2 -12l-6 -28q-2 -4 -1 -12t1 -13l-6 -31l4 -20q2 -4 1 -20t0 -19
q1 -4 7 -12q7 -10 9 -34t18 -37q15 -12 21 -22q5 -10 10 -18t17 -11t14 -4q3 -1 7 -6t7 -7t32 -7l23 -6q16 -2 49 5t35 10l24 18q2 2 6 4t13 8q51 51 51 117l12 33l-2 20v58z" />
    <glyph glyph-name="c" unicode="c" horiz-adv-x="876" 
d="M468 750q28 0 43 -2t23 -4q8 -1 21 -7t21 -6h10q4 -2 10 -7t9 -7t8 -2t10 -1t10 -7q6 -5 20 -10t32 -24q17 -20 19 -23q13 -15 21 -20q48 -30 43 -59q-4 -12 -16 -23q-12 -10 -19 -18q-6 -8 -21 -16q-14 -8 -26 -18q-41 -40 -70 -9l-18 29q-4 8 -24 25q-18 15 -24 21
t-16 8t-22 8q-12 8 -18 10l-29 -4q-2 -2 -10 0q-33 8 -93 -21q-4 0 -13 -9t-21 -16t-19 -14q-9 -12 -31 -74t-12 -114l8 -25q2 -4 -1 -20t14 -33q20 -47 26 -54q7 -6 15 -14t25 -17q23 -12 32 -26q8 -4 15 -5t18 -7q41 -10 57 -2q17 9 44 10q27 2 63 31l12 6q2 4 6 9t6 9
t8 6q6 3 25 23q0 5 10 15q11 10 21 14t26 -10t24 -18q9 -4 12 -7q3 -2 9 -9t22 -18q17 -10 21 -20t-2 -28t-13 -26q-7 -7 -12 -9q-5 -1 -9 -5t-8 -7t-10 -14q-5 -11 -9 -17q-19 -10 -31 -22t-18 -15q-6 -5 -22 -11t-44 -20q-36 -18 -59 -18h-19l-36 -9q-12 -2 -46 0l-45 -6
l-30 10q-68 21 -79 34q-10 13 -14 15t-9 4q-6 1 -17 8t-20 8t-20 18t-36 38q-4 6 -7 14t-9 19q-6 12 -12 16q-6 5 -9 9q-2 4 -4 16t-4 18t-6 10q-4 5 -8 13q-4 9 -4 17t-5 17t-10 75l-4 22l8 58l-2 20q3 38 16 70t15 47t4 20l19 23q27 37 38 49t19 23q8 12 13 16t9 5
q5 1 9 3t8 3t11 10t18 10q18 3 57 26q2 0 27 6t34 13q3 0 23 -5q20 5 48 5z" />
    <glyph glyph-name="d" unicode="d" horiz-adv-x="903" 
d="M596 1186v10q-6 48 24 52q7 1 19 -2t30 7q18 9 25 6q6 -4 18 -5t36 -10t29 -19t5 -35l-2 -16q4 -53 2 -99q-8 -16 -8 -27l6 -28l-10 -29l10 -82l-4 -25l4 -22l-8 -35l4 -43l-4 -26l4 -60q0 -4 -1 -12q-1 -10 7 -39l-6 -94q-2 -6 1 -18q3 -13 0 -39t-3 -93l2 -20l-2 -17
l6 -22l-2 -62q0 -14 2 -24t0 -30t-2 -50t8 -78l-2 -20q0 -2 3 -30t-3 -27q-6 -13 -30 -21t-31 -5q-8 3 -12 3q-5 0 -11 -2l-9 -3t-8 1t-7 2l-19 -2q-9 0 -27 6t-26 21t-26 2q-17 -13 -28 -23q-12 -10 -18 -12t-14 -2t-12 -2l-21 -9q-20 -8 -30 -10l-27 4h-55q-14 7 -20 9
l-17 -3q-37 6 -47 14q-11 7 -15 10t-9 6t-9 6t-22 13t-24 13q-8 6 -10 14q-4 9 -14 19t-12 14l-4 8t-4 12t-7 12q-9 9 -9 18t-4 15q-4 7 -13 22q-10 15 -12 23t-2 14q0 7 -2 11t-7 11q-10 14 -10 28v12l-6 35q-2 7 0 17t2 14q-2 4 -2 7l-4 20v6l10 65l9 23v14q0 18 8 34
t14 42q5 26 26 51t35 35q13 10 21 24t27 30t33 16t19 1t15 8q19 13 70 13q53 6 65 4l47 -10q4 -2 13 -8t31 -12t31 -14q9 -9 15 -12t14 -10q7 -7 15 5q10 8 6 42t1 60t5 31q0 4 -8 22l2 27l-4 25q-2 6 0 19t2 18l-4 30l2 39l-6 35q-2 37 -2 43q12 23 12 41t-10 28v25
q-8 25 -8 31zM623 336l-7 49l2 14q0 3 -5 15t-6 15t-1 11t-2 12t-4 10q-2 4 -6 10q-4 5 -16 34q-3 18 -15 22t-15 8t-6 10q-4 10 -23 18t-23 14q-12 6 -47 -3q-50 3 -55 3t-32 -17q-10 0 -22 -6q-4 -4 -9 -12t-29 -34t-23 -46l-11 -19v-8q0 -7 -5 -20t-3 -26t2 -40l-2 -49
l19 -63q2 -4 7 -10t8 -14q3 -10 11 -20t10 -15t4 -8q3 -3 17 -12t21 -15t13 -8q6 -3 62 -11l17 -6l22 6q9 0 29 3t63 53t51 106l-2 20z" />
    <glyph glyph-name="e" unicode="e" horiz-adv-x="921" 
d="M813 429l8 -39l-4 -37q0 -5 3 -18t-10 -26q-13 -12 -26 -6l-15 10l-19 -8l-25 4l-25 -4l-28 8l-49 -8l-21 6l-57 -6h-5q-12 2 -87 2l-14 2h-5l-33 -4l-15 2h-42l-29 -4q-6 0 -22 5t-31 -8q-34 -32 19 -77q8 -8 12 -17q15 -36 48 -45q11 -3 30 -15q31 -21 56 -21h22l43 -6
q16 8 59 16t61 25q49 33 57 43q16 20 38 8q22 -11 25 -20t8 -14q4 -5 10 -6t8 -3t6 -5t6 -5t14 -7t17 -23q4 -18 0 -26t-37 -30q-38 -38 -53 -43q-14 -4 -19 -6l-16 -11l-21 -2q-4 -2 -23 -12t-63 -21h-20l-33 -8l-55 8q-53 0 -80 5l-25 8l-22 2q-4 2 -11 7q-11 8 -31 12
t-31 17q-10 12 -29 25q-19 11 -24 17t-10 15q-4 9 -8 12t-11 7t-10 8t-8 13q-5 8 -10 11t-15 20q-9 18 -9 29q0 15 -13 31q-13 15 -18 101l2 23l-2 51q8 24 11 59q3 36 5 44t13 22q10 14 12 20t3 11q0 6 8 17q8 12 10 18t20 24q58 81 102 93q45 12 57 20q11 8 25 8t62 16
l29 -4l26 2q25 0 43 -6q22 0 34 -5t26 -7q12 -2 18 -5t20 -11q15 -9 24 -13t16 -7q17 -7 21 -16t14 -14t14 -13q5 -7 22 -21q4 -8 8 -18t21 -27q2 -4 6 -16t16 -21q12 -10 23 -72l6 -22zM384 572q-5 -2 -19 -3q-14 0 -19 -10q-6 -10 -9 -13l-19 -19q-23 -23 -31 -44
q-8 -22 -15 -32t1 -17q9 -6 42 4l23 -2q30 10 40 10l40 -10l28 4l20 -4l21 2q14 -4 24 0q13 5 32 2q20 -4 24 -6h33l16 4q12 -2 17 -1q6 1 4 27t-13 35q-13 11 -17 24t-18 20q-19 11 -35 27q-15 15 -38 20l-20 -2q-41 8 -45 8q-43 -7 -52 -14q-10 -8 -15 -10z" />
    <glyph glyph-name="f" unicode="f" horiz-adv-x="581" 
d="M328 -2q0 -4 -31 -2t-33 2l-31 -6q-39 0 -49 49q-2 14 1 39t3 29l-6 20l4 29l2 73q0 3 5 23l-3 51q0 15 3 33l-3 37l5 28q0 8 -1 15q-1 8 3 43l6 28l-6 46q-2 16 -47 16q-4 0 -22 -2t-31 18q-13 19 -13 40l4 20l-4 21l4 26q6 37 35 37l45 -2q23 0 25 9t0 56l2 21l-2 36
l4 35l-2 21q-2 6 -2 26l4 23v43l4 25l-4 24q-2 14 1 54t17 63t16 31q1 8 5 11t12 8t22 17t25 16q10 4 14 8t7 4q4 1 6 3t6 2l67 15l21 -7l22 7q33 6 47 -33q4 -1 2 -15t0 -48q3 -57 -7 -64q-10 -8 -29 -8q-22 -6 -40 -3t-34 -24q-2 -4 -2 -8l-2 -19l-6 -24l2 -21q0 -2 -2 -9
q-2 -8 2 -18t4 -18l-13 -33l7 -18q0 -13 -5 -33v-43l3 -16q0 -4 -11 -37l4 -29l-4 -26q5 -25 43 -6q20 2 47 -2q27 -5 32 -9t7 -32l-6 -64l2 -22q0 -23 -26 -29l-37 4l-23 -2q-23 4 -30 -5t2 -28l-9 -61q-2 -13 2 -33t4 -25l-2 -45l7 -35l-2 -16q-2 -2 -1 -8t-2 -14
q-4 -8 -4 -13l11 -65l-7 -88v-45l5 -29q-1 -15 -15 -29t-24 -14z" />
    <glyph glyph-name="g" unicode="g" horiz-adv-x="892" 
d="M350 725q31 0 35 -1t10 -7q7 -6 11 -5t9 9t10 8t9 -1t7 -3t7 -3t12 0q7 1 41 -6t57 -28q22 -20 28 -20t9 3t4 6t3 8t2 9q13 20 62 11h20q13 -13 38 -3t38 0q14 -18 14 -38l-4 -15q0 -2 -4 -43l2 -76q2 -6 0 -14t-2 -15v-16l4 -22l-4 -64l2 -43l-4 -47l4 -45l-4 -24l4 -25
l-4 -68l4 -18l-2 -27l8 -22l-8 -33l4 -27l-4 -65l2 -45q-8 -16 -16 -49t-31 -55q-24 -21 -29 -23q-6 -11 -16 -19q-8 -10 -26 -21t-29 -19q-10 -9 -26 -9t-44 -14l-27 -2q-49 -14 -61 -14l-36 6l-40 -6l-33 10h-37q-2 0 -8 -2q-22 -7 -51 22q-4 2 -17 -1t-27 7q-12 9 -30 14
t-28 12t-9 25t18 42q17 22 19 25t5 7t5 8t9 9q8 5 16 16q21 28 36 9q15 -18 33 -23q17 -6 19 -8l29 -13q123 -31 201 11q9 3 19 13t20 13q11 4 14 10q25 29 26 97q5 10 5 22t-11 23v12q0 8 -2 10q0 8 -5 8q-8 0 -14 -18t-65 -45q-17 0 -41 -16q-12 -4 -36 -9l-43 2
q-45 -2 -60 0l-22 13q-38 0 -52 12q-18 16 -26 17t-21 8q-4 4 -7 13q-4 12 -27 22t-35 41q-12 30 -15 34l-12 27q-6 12 -6 31q-14 29 -14 47v24q-7 21 -13 33l2 39l-4 53q2 39 24 108t32 79q20 20 30 39q11 20 38 44q26 23 34 27t16 6t12 4t6 5q3 3 7 5t15 10q11 7 42 7z
M262 338q0 -100 11 -108t13 -18q3 -9 5 -11t7 -6q8 -7 10 -17t9 -14q8 -4 20 -12q13 -8 43 -18t35 -11q5 0 9 1q13 3 25 -1q25 -8 87 36t72 97v18q8 24 6 33q-2 8 -2 12v93q-13 26 -22 67q-6 12 -21 33q-7 4 -31 28t-41 23l-40 12h-13l-30 5q-24 -2 -46 -14q-22 -11 -30 -14
t-11 -5t-5 -9t-5 -12q-47 -51 -55 -88v-100z" />
    <glyph glyph-name="h" unicode="h" horiz-adv-x="849" 
d="M283 762l-4 -90l-5 -26q0 -5 2 -11q8 -10 17 2q2 6 3 17t3 16q25 25 64 34q40 9 44 9l19 10q14 0 46 3t44 1l27 -8q4 -2 13 -2t13 -2l10 -5t11 -6q4 -4 11 -4t32 -18q35 -33 38 -39q5 -10 16 -22q11 -13 28 -64l10 -25q2 -2 1 -10t3 -22t4 -35l-6 -27l8 -73l-6 -41l6 -56
l-4 -39q10 -19 6 -30l-6 -27l2 -19l-2 -24l6 -24l-4 -23q0 -4 2 -15q3 -11 5 -30t-8 -24l-16 -8q-5 -3 -13 -8t-17 -7l-31 10q-7 0 -35 -4t-32 4q-12 6 -27 33q-4 0 -2 15t2 54t6 54l-2 63v43l4 19q0 47 -3 56q-7 20 1 32l-2 45q0 6 3 36t1 34l-8 16t-7 17t-2 8t-5 7
q-5 5 -12 18t-29 19q-23 6 -27 6l-22 -2l-35 2q-2 0 -10 -4t-16 -6t-10 -4q-3 -2 -7 -7t-7 -6q-16 -5 -26 -18t-29 -26q-6 -8 -11 -28t-10 -31t-7 -17t-1 -20t1 -19l-6 -35q0 -6 2 -63l-2 -66l-4 -22l4 -21v-32l6 -39l-4 -45q0 -4 3 -16q8 -34 -38 -54q-2 -4 -18 -1t-19 3
l-31 -2q-12 -2 -34 6t-23 10q-12 4 -12 37l6 43l-6 25q0 17 8 45l-4 26l2 64l6 39q0 8 -8 24l8 72q2 9 -1 23t-3 20l2 29l-2 59l2 39q0 46 -4 66l4 18v37l-2 27l2 24l-2 15l2 18l-4 57l4 23v28l4 25l-4 47l4 59l-6 41q-2 8 -2 24t-2 19l4 48q0 8 -2 23q-6 42 4 69
q14 23 65 12l21 6q3 2 13 2h14q8 0 17 -4t17 -6t13 -4q16 -16 12 -53l-4 -21l6 -27v-7l-4 -21q-4 -2 -2 -67t2 -66l-6 -58l8 -24l-4 -41q-2 -6 -2 -28t-2 -32z" />
    <glyph glyph-name="i" unicode="i" horiz-adv-x="411" 
d="M252 715h17q12 0 17 -4q15 -12 3 -88v-39l2 -31l-6 -55l6 -74l-4 -59v-11l2 -10l-2 -98l4 -41q2 -5 1 -19t1 -21t2 -19v-19l-2 -28l4 -48q-2 -17 -15 -31q-23 -25 -40 -17q-17 7 -25 7l-24 -2q-33 -4 -51 5t-21 17q-4 8 -2 42v57q8 16 8 25l-6 20q-2 4 -2 12l4 41l-4 41
l2 20l-2 21l6 72l-8 63q0 46 6 58v53l-6 25q-2 4 0 13t2 13t-5 30t1 58q16 27 59 23q6 -6 25 -6l32 6q2 2 9 0q6 -2 12 -2zM170 1065q4 0 12 4t16 3q7 -1 21 -1h14l19 -6q44 -7 39 -45l-4 -23l4 -20q0 -1 -1 -15t-3 -43t-11 -40q-10 -9 -23 -13t-41 -1t-39 0t-19 -3t-20 10
q-18 16 -16 41q1 25 -3 58l-6 33l6 26q4 23 8 29q15 16 29 11t18 -5z" />
    <glyph glyph-name="j" unicode="j" horiz-adv-x="495" 
d="M244 -254q-45 -14 -78 -14l-27 -11q-4 0 -24 5q-41 12 -49 43l4 28q0 11 -4 21q4 18 4 43t14 31t22 5t20 -2t17 -3q4 -2 21 6l22 8q12 10 19 41l-2 37l4 63l-2 29l2 74l-2 17v7q0 4 1 8t-1 10t-2 16v17q0 9 4 15l-2 22q2 57 2 68l-6 24q-2 12 1 36t3 34l-4 31q-2 4 -1 16
t1 18l-4 21l10 47q2 23 -2 35l-8 22l6 52q-2 27 -5 40t6 27t34 10q26 -4 34 -4l21 9q12 3 29 0q16 -3 21 -3t10 2t9 -6q21 -21 14 -53q-7 -33 -7 -39l2 -24l-4 -27l2 -19v-10l-2 -22l2 -11v-36l2 -21l-6 -20l8 -21q5 -20 -4 -43l4 -30l-4 -29l6 -45l-6 -31l6 -24l-2 -27
l4 -31q0 -20 -6 -41l4 -26l-4 -48l4 -22q2 -4 1 -10t-1 -8l2 -41l-8 -54v-14q1 -31 -7 -46q-8 -16 -10 -24t-4 -11l-4 -6t-5 -5t-6 -5t-6 -11t-6 -11q-3 -2 -10 -8t-14 -10l-27 -27q-12 -4 -26 -4zM199 972q0 18 -6 40l4 26q-8 33 0 41t26 15l27 6l24 6q6 2 23 -2
q16 -4 34 -1t27 -9l9 -13q6 -15 6 -23l-2 -32l4 -22q2 -4 1 -14t-1 -13l2 -16q0 -5 -2 -9t-3 -9t-3 -16q-3 -16 -17 -22l-24 -10q-6 -2 -18 2t-17 4l-39 -8l-23 8q-28 6 -31 16q-3 11 -2 24t1 31z" />
    <glyph glyph-name="k" unicode="k" horiz-adv-x="841" 
d="M117 83q0 3 3 11t-1 25l4 104l-2 29q-2 23 2 57l6 31q2 4 -1 8t-3 12q0 7 4 21t3 19q-1 4 -2 10t-2 10t1 13t0 13l-4 29l4 31q-8 15 -2 29l6 30l-8 23v26q0 40 -4 54l-6 32l4 33q0 4 -2 11q-2 8 1 24t3 23l-4 20l4 68q2 8 0 26t-2 27q6 18 6 43l-2 18v13l2 30l-4 27l4 39
l-8 20v13l2 22q0 13 -2 29q-5 44 28 55l23 6l37 -4l18 6q9 0 17 -3t11 -4t15 0t22 -8t11 -28l-2 -22l6 -29q2 -6 -2 -20t-4 -25l-2 -31l-8 -80q0 -2 6 -143l-4 -31l6 -28l-10 -56l4 -24l-4 -31l2 -57q-11 -86 -2 -133q0 -2 -4 -24t2 -22t10 2q4 3 9 12t7 11q3 2 13 12
q13 14 26 20t25 28q13 21 38 42t34 28t40 40t39 44t12 12t25 1l23 5q2 0 22 -5t44 3h22q6 6 14 6l23 -2q29 0 30 -2q20 -12 -10 -56q-2 -2 -6 -12t-16 -14q-13 -4 -15 -9q-4 -2 -8 -7q-12 -14 -33 -23q-13 -12 -29 -28t-28 -25q-12 -8 -27 -25q-16 -18 -20 -22t-12 -10
q-7 -5 -11 -7q-10 -6 -17 -15q-7 -10 -23 -21t-16 -22q2 -19 12 -28t14 -15q4 -8 7 -10t8 -5t7 -5q8 -12 22 -29q14 -16 22 -31l15 -25q9 -13 31 -33t33 -48t20 -34q32 -26 43 -47q12 -23 26 -35q36 -31 17 -56t-40 -21q-21 3 -25 3l-25 -4l-26 4l-33 -2l-45 14
q-30 27 -36 45q-5 19 -6 22t-1 5q-14 14 -16 18q-4 4 -8 18q-7 20 -17 26q-10 7 -19 27q-8 20 -17 26t-12 9t-4 10t-2 11t-8 9q-6 6 -9 10t-10 14t-17 27q-18 21 -26 17q-9 -3 -16 -12q-7 -10 -9 -10t-19 -18q-8 -14 -12 -61l-4 -43l4 -29l-2 -31q3 -5 6 -35t-6 -51
q-11 -11 -37 -16l-25 8l-20 -6q-3 -2 -11 0t-12 2l-24 -4l-15 8q-14 0 -22 11q-11 15 -5 32t4 27q-1 10 -1 13z" />
    <glyph glyph-name="l" unicode="l" horiz-adv-x="415" 
d="M178 1269q16 -3 26 -3t15 4q65 4 78 -19q6 -6 2 -23t-4 -22l4 -24l-4 -25l4 -22l-6 -52l2 -51l-2 -16l4 -25l-6 -59v-10l2 -21l-6 -24l4 -17l-2 -24l4 -43l-2 -27l2 -21v-10l-4 -20l4 -117l-6 -111q-2 -6 2 -19t4 -19l-6 -37l4 -29l-2 -22l2 -17l-2 -22q0 -4 1 -14
t-3 -25q-4 -16 0 -27l6 -25l-2 -67l4 -29l-4 -24l4 -27q2 -35 0 -45q-8 -31 -43 -37q-8 -2 -24 3t-22 5q-5 0 -9 -1q-5 -1 -9 -2t-8 -3q-53 -6 -67 31q-4 12 4 59v31q9 26 6 83q-2 56 -2 66l4 25q-8 38 -4 92l6 105l-4 20l2 29q-6 12 -6 26l8 25l-4 49l4 47l-6 29l4 53v107
l4 20l-4 98l4 31q0 40 -8 64l2 24l-2 45l2 21l-8 30q-3 18 15 36t25 20t23 -1z" />
    <glyph glyph-name="m" unicode="m" horiz-adv-x="1282" 
d="M119 223l-2 66l2 33l12 49l-6 28v21q0 8 -4 20l2 28q0 1 -4 17l8 52q0 6 -4 23t-1 25q3 9 3 13l-4 23l2 20v23q6 12 9 15t6 10t5 10q3 3 17 1t16 -2t31 7l31 -5q35 -2 43 -4q4 -2 10 -13t17 -11t42 20l21 15q84 35 174 14l26 -2q1 -2 5 -5t7 -7t20 -11q17 -8 23 -13
t14 -17q7 -12 9 -14t9 -19q7 -16 18 -18t12 5q2 7 11 19q9 13 35 33t51 32t33 16q8 5 15 5h11l55 8l33 -4h29q4 0 19 -7t25 -9q9 -2 15 -7q6 -4 8 -6t9 -5q26 -11 36 -20t16 -12q5 -3 7 -6l24 -43q2 -4 7 -9t8 -9l2 -13q0 -7 8 -21q8 -13 10 -21t2 -78l4 -27v-14l-4 -62
l6 -61v-68l-2 -33v-16q0 -22 4 -46t3 -36t-1 -17l4 -36q0 -19 -7 -29t-40 -16l-26 -6h-43l-19 -2q-8 0 -16 8q-25 6 -29 11t-4 38v25l4 17l-2 18l4 24q4 29 2 51l-2 23l2 29l-2 20l4 22l-6 19l4 29l-6 75l-2 41v21q0 4 -12 16q0 9 -8 33q-22 42 -58 46q-8 1 -14 4
q-7 3 -13 3t-22 -4l-18 2q0 -5 -28 -14q-28 -8 -34 -13t-29 -45q-26 -45 -26 -87v-19l-6 -20l8 -19l-8 -35q-2 -23 0 -39l6 -17l-4 -15v-86l8 -41l-6 -43l6 -17q2 -16 -7 -38t-24 -20q-14 1 -16 -1l-25 -6l-22 2q-4 2 -13 -1q-10 -3 -14 -2l-12 3t-24 5t-18 15q-1 12 -5 20
t-4 15l4 31v22l6 29l-2 29l2 19l-4 24l4 71l-4 23l2 59l-4 21l2 16v31q2 22 -1 30t-7 29q-5 29 -14 35q-8 7 -11 16q-4 9 -7 12t-32 14t-30 11l-31 -6l-23 2q-15 -5 -24 -16q-9 -12 -13 -15q-4 -4 -11 -10t-20 -18t-34 -96l-6 -19l2 -35l-2 -30l4 -27l-6 -23l6 -20l-2 -47
l2 -23l-4 -51l6 -41q2 -4 0 -11t0 -40t-17 -45q0 -1 -45 -10l-23 4h-26q-12 0 -18 6q-43 10 -51 31q-2 2 0 13t2 36v35q6 6 6 17v38q0 27 2 37z" />
    <glyph glyph-name="n" unicode="n" horiz-adv-x="860" 
d="M117 524l2 26q0 14 1 30t-5 74t14 59q4 0 27 6l20 -4h37l59 -2q14 0 15 -13l-4 -22q2 -14 10 -14t33 20l16 14q12 14 12 17h37q4 0 8 3l12 9t105 16l46 -8q9 0 28 -12t33 -16q14 -3 21 -9t38 -48t34 -48t13 -47l4 -25q2 -2 1 -6t-1 -8v-8l4 -45l-4 -41q14 -42 8 -84
l-4 -23l2 -51l-2 -20l2 -17l-2 -20q0 -11 3 -23t0 -20t-1 -12l2 -19v-23q0 -12 7 -16l-5 -24q0 -4 2 -16t0 -17q-12 -35 -61 -37l-25 6l-20 -6q-33 -3 -40 3q-7 5 -15 7t-13 6q-10 20 -10 50q4 16 4 63l2 16l6 86l-6 27l2 22l-4 21q0 23 8 47l-4 29l2 29q0 4 -3 12t-4 12
t1 9t3 9t0 9q-1 4 -4 11t-3 10v10q0 8 -6 16t-10 21t-13 23q-8 9 -21 13t-19 11q-20 24 -52 12q-4 0 -13 -5t-28 -7q-18 -2 -43 -15q-14 -8 -32 -45t-21 -43l-8 -23l2 -18q0 -7 -8 -27v-67l-4 -41l4 -43v-18l-2 -17l2 -57l-2 -21l4 -14q2 -37 4 -66t-4 -37q-7 -8 -23 -16
t-28 -6l-29 6l-21 -6q-4 -2 -20 2h-14q-29 8 -33 12t-6 25t0 24l2 23q3 5 -6 27l4 24q2 4 0 11t-2 10l4 22l-6 29q0 31 2 41l6 26q0 25 -6 52l6 53q2 70 0 108l-6 23z" />
    <glyph glyph-name="o" unicode="o" horiz-adv-x="933" 
d="M475 752h30q13 0 23 -4t16 -4q7 1 9 -1l22 -6q3 -2 9 -1t12 -2t10 -6t21 -8t43 -28q25 -23 40 -28q15 -4 19 -8q5 -5 9 -22q5 -16 19 -19q11 -2 11 -15q0 -21 17 -43t25 -67q9 -45 15 -62t4 -61q-2 -43 -2 -85t-20 -83q0 -7 -10 -17q-2 -6 -5 -17q-2 -11 -12 -22t-10 -14
q-4 -3 -20 -23t-23 -30q-8 -10 -16 -24t-37 -29q-32 -32 -66 -37q-4 -2 -11 -1t-9 -1l-23 -9q-4 0 -10 1t-9 0t-8 -4q-6 -3 -10 -4t-8 1l-8 4t-8 1t-10 -6t-11 -5l-16 4l-18 -4q-13 0 -19 6l-49 6h-10l-23 7q-23 0 -39 10t-27 12q-10 2 -13 4t-8 5t-14 15t-30 24t-26 23
q-13 29 -29 47q-15 17 -21 31q-6 15 -12 21t-7 17t-8 35q-6 24 -8 31t-1 17t1 15l-8 24q-2 18 0 62l-2 20l4 25q2 6 1 18t1 19l15 43q33 92 81 136q19 18 25 28t13 11q8 1 11 3t7 9t8 9t11 4q11 3 25 15q14 11 28 13q13 2 36 13l35 2q9 2 17 3q8 0 22 4t25 4zM462 590h-20
q-2 -2 -26 -10t-32 -9q-7 0 -10 -2t-8 -7q-4 -5 -14 -11t-37 -35q-4 0 -14 -10q-4 -8 -10 -24t-18 -44q-12 -27 -9 -79q2 -52 4 -61t2 -24t8 -22q8 -8 10 -12q10 -40 34 -56q33 -38 40 -39q7 -2 13 -4q5 -2 31 -11t34 -9l23 2q4 0 13 -4q10 -4 18 -3t23 10q18 11 33 12
t23 13q7 11 11 13q42 24 53 67q2 8 2 13q11 11 18 35v45q0 8 5 18v18l-7 52q-5 54 -16 65q-10 10 -10 15q-4 2 -8 13t-11 19q-8 8 -12 9t-11 8t-13 10q-7 2 -10 4t-7 7q-10 13 -25 13q-37 17 -47 16t-23 -1z" />
    <glyph glyph-name="p" unicode="p" horiz-adv-x="911" 
d="M413 725q9 0 19 5t16 1t19 -1q12 3 16 1t9 -2l20 4l16 -2h19q8 -8 13 -8h13q15 0 22 -6t11 -8l17 -2q16 0 32 -31q4 -2 17 -8t45 -41q5 -9 7 -17q3 -14 28 -32q23 -23 29 -54t11 -38t6 -10t0 -11t3 -17q4 -8 4 -12t-2 -11t1 -19t3 -13v-49q0 -57 -2 -72l-10 -36
q-15 -56 -19 -62t-7 -11t-7 -10t-27 -49t-45 -63q-23 -18 -96 -43q-8 -8 -14 -10t-50 -8l-49 -9q-4 0 -14 4t-20 0q-10 -5 -19 4q-9 10 -23 12q-14 1 -36 13q-21 12 -28 14q-8 2 -21 14t-21 7q-14 -16 -10 -47l6 -23l-4 -26q2 -37 2 -43q4 -4 4 -27l-4 -51l4 -27v-31
q3 -60 -22 -64q-5 -1 -25 -11l-37 4q-6 0 -32 -3t-31 1l-15 10q-16 8 -20 20q-4 5 -1 23t3 23l-2 17l2 19l-2 25q8 100 8 102l-6 27l4 70l-2 42l2 70l-4 29q-2 20 -2 72l4 213l-2 22l4 88v31l-4 18l2 19q0 2 -4 31t4 30q8 14 57 17l21 4l22 -6l25 12q6 2 23 -5q17 -8 25 -24
t15 -16q25 17 33 20q8 4 11 6t12 4t14 7l26 14h10zM520 567h-10q-4 3 -14 11t-17 6l-18 -6q-3 0 -19 1t-24 -4t-23 -11q-13 -7 -29 -18q-16 -10 -22 -14q-11 -7 -29 -39l-14 -28q-12 -37 -8 -103l-2 -34q6 -12 6 -42t2 -32l10 -18q35 -69 93 -101q22 -12 79 -12q27 5 53 23
t42 26q15 8 21 21q6 17 15 26q8 8 11 12q2 5 5 9q9 14 9 47l6 37q-6 39 -6 40l-2 30q0 45 -25 91q-33 60 -59 68q-5 2 -12 7q-9 7 -19 7z" />
    <glyph glyph-name="q" unicode="q" horiz-adv-x="931" 
d="M449 762h16q16 0 24 -8q57 -13 73 -24l20 -13q13 1 19 -9q7 -10 10 -11t9 5t11 16q7 11 23 16t26 3l45 -6q7 0 23 3q49 9 57 -17q2 -7 2 -17v-12l6 -29q0 -7 -3 -33t1 -68t-4 -81l4 -19l-4 -20l4 -22l-2 -41l-4 -45l8 -33l-6 -35v-9l4 -22v-28l-4 -27q-2 -12 -2 -36v-111
l4 -21l-2 -37l4 -51l-2 -29l2 -51l-4 -47l4 -65q1 -39 -23 -45t-32 -5l-27 5q-9 1 -27 -5t-27 -5t-27 13t-21 17q-4 3 -1 23t1 24l-2 21q0 20 6 26l2 97l-2 18l6 51l-4 31q0 8 3 20t-9 20q-12 9 -35 -12t-41 -22q-4 -2 -27 -17t-82 -16l-22 4h-8t-10 -1t-14 2q-9 3 -30 5
t-38 10q-17 7 -19 8q-3 1 -9 1t-24 18q-54 27 -63 43q-13 22 -26 31q-13 8 -14 22q-2 22 -14 32q-13 10 -15 28q-1 18 -5 30t-9 17q-5 4 -7 7t-2 10t-2 12l-11 20v31l-6 55l6 35l-2 23q0 8 8 24l-6 31q12 24 15 44t16 44q15 30 18 39t9 17q6 9 8 13t7 12q5 9 8 13t9 8
q6 3 8 7t6 8q19 26 32 26q36 29 56 39q20 9 58 19t44 8q7 -2 9 -2l21 6q6 2 14 -1t11 -3zM758 -88v-4l2 4h-2zM420 135l31 -8l32 10q49 11 57 17t14 13q7 7 17 12t14 15q3 9 12 18q9 8 18 24t15 88t7 79l-10 35q-23 94 -86 137q-4 4 -11 5q-10 2 -23 13q-13 10 -42 7l-27 -4
h-28q-12 2 -20 -1t-31 -25l-38 -38q-26 -26 -26 -53q-18 -41 -21 -59l2 -45l-8 -31l6 -31q2 -4 2 -11t3 -11l4 -21q0 -37 22 -59q8 -14 11 -18q2 -3 16 -9t18 -10q2 -4 5 -11q10 -24 38 -30z" />
    <glyph glyph-name="r" unicode="r" horiz-adv-x="712" 
d="M295 289q10 -39 2 -127l6 -45q-6 -27 -2 -45l6 -33q-2 -15 -15 -29t-27 -16t-27 1t-19 3l-24 -4q-55 -10 -71 11t-9 63q6 42 6 75l-4 39l2 41l-4 23l6 24q2 2 2 23l-2 18l2 25l-2 15v38l4 62v20l2 16l-4 22l2 23l-6 28l2 24v73q0 5 -5 21t3 20q14 24 29 26q16 1 33 -1
t22 -2l19 6l20 -4q4 2 13 2h13q13 0 25 -7t8 -26q-4 -18 -4 -24t8 -6t16 11t17 15q8 4 11 7t11 9t14 10t15 7q10 2 12 4l29 14q12 4 25 4h20l27 -4q35 -4 40 -5q6 -1 38 -16q32 -14 38 -30t-2 -45t-12 -36t-9 -13t-16 -28t-21 -28q-10 -7 -30 2q-22 9 -31 18t-11 10t-25 3
l-21 4q-14 0 -32 -10t-21 -11q-18 -4 -33 -30q-2 -2 -16 -12t-31 -78l-2 -31l-6 -20v-8l2 -33z" />
    <glyph glyph-name="s" unicode="s" horiz-adv-x="718" 
d="M327 756q11 -6 29 -6h45l23 2q12 0 32 -6q21 -6 34 -9q21 -3 27 -9q7 -7 40 -7q13 -5 25 -19t13 -25t-6 -28q-7 -16 -9 -20q-2 -3 -10 -21t-9 -29q-2 -11 -9 -26t-29 -15t-31 4q-14 8 -23 17t-25 12t-30 11t-23 8q-47 6 -73 -12t-29 -25q-4 -9 0 -29t37 -39q4 -2 12 -8
t13 -8t12 -4q8 -2 11 -3t6 -3t11 -6q7 -5 21 -9t19 -7t8 -5t6 -6t6 -6q9 0 16 -14q2 0 5 -6t5 -11q6 -2 24 -2q18 -1 39 -27t25 -30q26 -13 41 -43l2 -18q0 -9 7 -23t4 -27t0 -35t-2 -50t-8 -32t-8 -10t-21 -28t-25 -35q-76 -57 -137 -66l-25 4l-24 -4l-33 4l-21 -4
q-44 0 -54 7q-9 6 -13 10t-14 5t-23 7h-25q-22 7 -34 16q-12 8 -25 8l-14 17q-1 4 -7 8q-12 8 -12 21t18 38q18 24 30 48q14 24 23 32t15 8t16 -8t23 -12q12 -4 21 -12q19 -15 29 -15l45 -20h18l22 -4q17 0 21 3t14 4q30 3 45 42q17 17 18 23q2 5 -6 11t-9 9q-1 2 -2 6t-3 8
q-4 8 -15 10t-17 13q-9 15 -30 22q-21 6 -61 39q-6 4 -26 10q-20 7 -43 23t-32 19t-15 10q-14 17 -33 32t-23 32t-6 21t-9 15q-7 10 -9 17t2 34t5 46q1 20 3 30t29 56t44 55q17 8 20 10t13 9q9 7 15 9t53 8q19 19 30 13z" />
    <glyph glyph-name="t" unicode="t" horiz-adv-x="616" 
d="M240 1069h34l27 -6q42 14 66 -6q8 -9 5 -31t-3 -35l-7 -18l5 -19q0 -2 1 -32t-1 -115q-14 -41 -5 -74q6 -12 31 -12l80 8q3 0 25 -20q7 -10 5 -24q-1 -13 -1 -18l2 -55l-4 -16q-16 -39 -100 -21q-28 6 -38 -12v-24q4 -7 0 -21l5 -31l-7 -28l7 -44l-2 -48l2 -27l-7 -35
q0 -4 5 -39q-2 -49 -1 -54t7 -10t10 -14q4 -8 8 -13t20 -7q15 -2 19 -4l25 -12l28 4q29 0 35 -14t5 -37q-1 -24 -1 -37l-2 -19v-18q0 -39 -26 -39h-31l-39 -4q-14 0 -34 6t-30 5t-16 1t-14 9t-12 9t-10 1q-5 -1 -16 1t-50 48q-2 0 -10 6q-10 8 -12 21q-2 12 -11 27
q-8 15 -8 50l-6 25l4 32q-4 16 -4 64l4 100l-4 45v6l2 15v86q0 17 -27 24q-59 -13 -73 14q-3 5 -3 8l2 23l-4 20l2 21l-10 37q2 12 4 19q6 18 51 11t56 17q4 4 0 23q-5 18 -2 38t3 30q0 8 -12 30l13 74l-7 35q-4 6 0 13t5 11l-9 23q-8 23 9 38t47 15z" />
    <glyph glyph-name="u" unicode="u" horiz-adv-x="880" 
d="M616 733h33q54 -8 73 -5q18 3 22 -2t6 -9q2 -3 4 -11t10 -24l-2 -96q0 -35 -2 -58l-2 -22l2 -62v-30q-4 -38 -4 -52v-28l-4 -41l4 -27q0 -27 -11 -55l11 -53q10 -63 6 -87t-5 -37t-5 -24q-6 -8 -28 -15t-32 -4t-17 6t-12 3l-24 -10q-41 -14 -64 28q-10 18 -17 14
q-8 -4 -20 -14t-40 -23t-39 -13q-12 0 -17 -2l-63 -7q-38 -8 -45 -7t-19 6q-11 6 -33 10t-29 8t-13 10t-10 9t-13 8q-10 5 -15 9t-9 13q-3 8 -7 11l-12 9q-8 7 -11 11t-6 10t-4 10t-5 10q-3 6 -4 10t-9 15q-8 10 -12 31q-4 22 -3 38t-1 23l-4 33l4 20q-6 47 -6 54l2 24
l-2 68l4 22l-4 21l2 25l-2 24l6 31l-4 24l-4 70q-4 19 -1 49t14 40t26 9q15 0 53 -4l24 2l23 -6l16 2q10 0 20 -7q10 -6 13 -18q2 -12 -2 -38t-4 -40t4 -22q0 -83 -12 -125l6 -45l-4 -27q0 -122 10 -156t12 -42l25 -47q5 -5 11 -7q5 -1 7 -4l19 -10q4 -4 20 -1t40 1t29 0
t11 8q6 5 8 7t10 5q7 3 11 5t9 9t7 9t10 6t12 8t5 13q2 8 4 12l26 51q7 24 7 72q6 78 6 86l-8 41q0 29 4 57l4 29l-6 25q-2 8 1 34t1 37l-7 23l5 24q0 18 6 25q10 10 30 10z" />
    <glyph glyph-name="v" unicode="v" horiz-adv-x="876" 
d="M180 745l30 3l34 -5q23 -2 33 -10t12 -32t17 -50q14 -25 33 -78q19 -54 27 -66q7 -11 11 -21t16 -45q11 -34 15 -43t7 -23t11 -15q12 -4 16 23q2 6 8 17q5 10 6 14t4 12t13 26t12 27q3 7 13 21t14 22q10 42 15 50t9 18q4 8 10 17q5 9 8 25l4 20t3 7q11 11 21 40
q10 28 16 32t33 11q27 8 29 8t8 -4q7 -4 37 -7l28 4l25 -4q20 0 27 -7q18 -18 -17 -80t-43 -78t-13 -24q-4 -6 -8 -22t-18 -42t-14 -27q0 -2 -3 -5q-3 -2 -5 -6l-4 -8t-6 -17q-3 -13 -25 -46q-12 -46 -33 -73q-22 -27 -39 -93q-4 -7 -13 -23q-17 -29 -24 -60q-7 -30 -31 -60
l-16 -36q-4 -8 -5 -18q-4 -35 -34 -39q-10 1 -24 11t-16 17t-3 15q0 8 -1 12t-3 9q-2 4 -5 8q-2 5 -4 9t-4 11t-4 11l-8 8q-4 2 -4 6l-10 35q0 4 -10 14l-2 14q0 7 -3 12t-22 19q-2 4 -2 12l-14 50q-23 34 -29 54q-6 19 -11 29t-9 16q-4 5 -7 14t-8 20q-6 10 -8 13t-3 8
q-1 6 -3 10t-4 11t-12 25t-13 21q-2 2 -4 15t-22 32q-9 35 -13 41t-5 10t-3 7t-6 10t-8 22q-4 14 -7 21t-18 18q-2 4 -2 8l-2 19q-18 37 -17 52q2 16 23 24q17 4 29 6q13 3 47 -9z" />
    <glyph glyph-name="w" unicode="w" horiz-adv-x="1255" 
d="M731 535q0 -7 2 -11t9 -9q8 -5 10 -9t2 -10q0 -8 14 -27l2 -23q4 -14 18 -32t20 -40t13 -26q9 0 23 24q16 28 16 52v16l12 23q8 16 22 50t24 48l4 21q2 6 12 17t10 38q6 20 22 56t26 42q9 6 57 0l20 8l21 -4l27 2h16q16 0 27 -10q20 -18 -42 -133q-2 -4 -7 -16t-12 -22
t-15 -30q-8 -18 -14 -41q-7 -23 -20 -48t-21 -45q-7 -19 -9 -25t-16 -29t-17 -41q-2 -17 -15 -40t-13 -33q-1 -15 -9 -24t-8 -24l-45 -98q0 -10 -4 -20t-8 -24q-4 -15 -13 -34q-10 -20 -22 -20t-28 5t-17 10q-2 5 -1 16t-2 17t-11 18q-15 21 -15 38q-4 12 -18 34t-17 36
q-2 14 -4 19t-6 12t-6 11t-4 15t-5 15l-6 8t-4 7t-1 9q-1 6 -3 9t-7 8q-13 13 -13 28q-10 10 -10 18q-4 7 -16 35l-15 35q-12 12 -18 14t-15 -20l-6 -25q-5 -15 -18 -28q0 -19 -8 -28t-9 -15q-4 -4 -8 -18t-14 -31q-9 -17 -13 -22t-5 -15q-1 -9 -3 -15t-8 -17t-7 -15t-4 -14
t-3 -13q-14 -14 -37 -78q0 -30 -27 -59q-12 -18 -29 -16t-21 12q-4 8 -4 14q-2 6 -18 32t-24 55q-8 28 -9 35q-2 17 -11 30q-11 41 -20 53t-12 20t-12 38q-8 30 -14 40t-13 18q-7 7 -9 13t-4 15t-5 13l-8 17q-2 2 -3 8t-3 8q0 2 -4 7q-4 4 -5 8t-2 12t-3 11t-6 7q-3 4 -7 14
t-6 14q-2 3 -8 13t-7 19q-2 15 -10 21t-10 18q-1 12 -10 19q-8 7 -8 20q0 14 -8 22q0 24 -14 35t-16 23q-1 10 -2 14t-6 12q-19 30 5 49t76 6h27q10 0 16 -1q7 -1 25 1q39 4 42 -35q1 -23 5 -28l12 -17q0 -19 10 -34l19 -33l4 -27q3 -11 20 -41q20 -53 28 -63t9 -43
q3 -14 21 -37q6 -25 20 -25q10 4 24 46l16 48t10 16q28 36 28 52q4 8 10 24t9 23q3 6 20 44t19 47q1 8 3 12t5 9t5 9l3 21v10q2 13 12 31q19 33 43 17q25 -16 26 -36q2 -24 13 -39q10 -14 11 -24t10 -29t12 -32q3 -14 13 -32q9 -18 11 -23t2 -13zM1079 729l4 4q-6 2 -4 -4z
" />
    <glyph glyph-name="x" unicode="x" horiz-adv-x="880" 
d="M676 -6l-41 4q-14 0 -30 10q-15 10 -20 24t-6 25t-3 15t-9 8q-12 8 -16 17t-11 15q-6 7 -10 12t-8 22q-6 27 -22 38t-20 18q-3 7 -6 18q-3 12 -6 16t-10 12t-8 12t0 8t3 7t3 7t-3 14q-3 9 -11 11t-12 -6t-4 -10l10 -33q0 -6 -16 -30t-20 -28q-3 -6 -10 -14t-9 -11t-4 -9
q-1 -6 -11 -16t-15 -23q-5 -14 -19 -29q-45 -77 -54 -83q-10 -5 -14 -6t-8 -1t-6 -2l-29 -10l-28 4l-66 -8q-56 0 -39 49q6 17 24 39t24 33q5 11 18 20t16 21q3 11 12 25q11 18 29 32q18 15 21 24t6 16t14 25q13 19 25 28t15 19q4 9 16 21t16 25q4 12 15 22q11 11 13 17
t-16 20t-20 22q-3 8 -10 18q-7 9 -16 18q-13 13 -34 47q-21 35 -28 41q-8 6 -15 19t-13 19q-8 6 -10 10t-5 12q-3 7 -20 24t-20 40q-2 23 0 27q12 12 39 16l55 -6l23 2q18 0 51 -8q13 0 21 -4q0 -2 20 -26t25 -41q6 -17 9 -24q3 -6 14 -22t15 -24t6 -15q3 -13 17 -20
q21 0 26 27q5 25 38 68q33 44 43 62t33 21l18 -2q6 6 25 6l39 -6q12 6 19 6t16 -1t25 2t21 -7q22 -33 -19 -74q-10 -8 -18 -22q-8 -13 -12 -19t-10 -12t-15 -17t-18 -27q-10 -17 -19 -29t-21 -26q-13 -13 -21 -23t-14 -19q-39 -48 -11 -90q5 -3 15 -19t14 -21t5 -10t3 -11
q4 -12 22 -25q17 -13 27 -35q11 -23 13 -26t5 -6t6 -5q11 -8 18 -27q7 -20 13 -26q5 -6 13 -14q13 -14 24 -42q35 -35 40 -48t8 -15q14 -31 -11 -43q-12 -6 -14 -8h-14l-28 -2z" />
    <glyph glyph-name="y" unicode="y" horiz-adv-x="849" 
d="M475 383l10 39q-1 8 5 16t7 12t2 13t8 19t7 24t6 28t8 21q2 6 3 13q1 8 3 16t5 14q2 6 7 20t6 20t0 15q-1 7 0 11t3 8t5 8t3 6q2 2 7 14q4 12 10 18t13 9q14 4 24 4l36 6h17l35 -2l20 2l12 -10l21 -10q6 -9 5 -25t-7 -23t-9 -22t-12 -30q-10 -16 -12 -27q-2 -12 -11 -21
q-10 -10 -12 -15t-3 -18q-1 -12 -2 -18t-5 -12t-5 -10l-5 -20q-7 -25 -11 -31q-5 -7 -7 -11q-7 -14 -10 -28t-5 -20t-6 -12q-4 -8 -8 -28t-21 -51q-16 -31 -16 -47t-3 -22l-12 -24q-16 -30 -16 -43v-16q-24 -59 -27 -76q-4 -23 -28 -65q0 -24 -7 -36q-7 -13 -9 -20t-20 -71
t-34 -85q-16 -20 -23 -28t-9 -10t-12 -18t-28 -18q-17 -3 -34 -15q-25 -18 -64 -18q-39 -1 -45 -3t-10 1l-37 8q-16 2 -38 15t-25 22q-4 4 -2 26t-1 48t1 36q8 26 73 14q2 0 12 -5t14 -4q5 1 11 2q7 1 13 3t9 2h13q10 0 12 2t13 16t22 25q2 9 4 21t4 16l15 39q2 29 -9 49
q-12 18 -15 26t-3 19t-4 19l-8 20q-2 12 -6 22t-7 23q-2 11 -4 17t-10 15q-9 10 -17 47t-13 43q-5 5 -5 9q-6 6 -6 21l-12 18q-4 8 -8 30t-14 41q-11 19 -26 80t-23 75q-9 14 -10 19q0 4 -18 46q-40 96 -18 119q8 10 28 9t68 0q49 1 59 -9q10 -11 12 -28q2 -18 16 -49
q15 -31 22 -60q6 -29 8 -34l4 -10t4 -9q4 -8 4 -24v-15l11 -19q6 -12 7 -21t9 -21t10 -37q3 -25 12 -36q9 -12 13 -24t8 -49t10 -53v-5q2 -4 5 -15t14 -11q17 6 24 38q7 33 23 56zM415 174q5 0 2 6t-6 6t-2 -6t6 -6z" />
    <glyph glyph-name="z" unicode="z" horiz-adv-x="880" 
d="M512 713q18 6 57 6l25 4l47 -8l37 6q4 0 13 -3t15 -2t19 7q12 6 18 6l23 -4q18 -4 24 -10t-12 -45t-36 -49q-19 -11 -23 -15q-2 -4 -4 -15t-12 -18q-9 -8 -15 -20q-6 -13 -16 -25t-18 -21t-12 -15q-3 -6 -5 -11q-2 -6 -4 -9t-5 -5t-7 -4t-7 -4q-2 -4 -5 -8q-3 -5 -5 -9
t-5 -8t-13 -13t-16 -17t-21 -31q-13 -23 -21 -32t-17 -16t-16 -19t-16 -21q-13 -12 -19 -26q-5 -14 -22 -35l-29 -38q-32 -36 5 -32q22 2 32 5t18 0t54 -1l43 -4q23 2 31 2q12 6 18 6l29 -6q16 8 33 8l22 -2q26 7 42 -1t16 -47l-11 -32q0 -6 7 -27t-10 -44t-33 -19
q-15 4 -21 4l-20 -4q-6 6 -19 6l-47 -2l-23 6l-32 -8l-62 4l-20 -2l-18 4l-15 -4h-39q-35 0 -65 2l-21 4l-35 -6q-5 -2 -14 1q-10 3 -15 2t-8 -1l-86 -8l-22 8q-10 0 -28 3q-40 7 30 89q11 22 19 29q7 6 14 18t14 18q8 5 11 9t6 12t6 10q2 2 14 18t24 25q19 16 25 34t25 30
q4 6 8 13t8 13q4 5 8 13t17 21q12 13 15 19t8 13q5 8 7 12q55 57 58 65q4 7 6 10t5 7t5 7t6 8q47 47 20 63q-6 4 -16 3t-19 -1h-16l-14 6q-4 0 -13 -4q-16 -7 -38 4l-31 -4l-33 4l-30 -8h-8l-15 4l-22 -2q-39 -3 -42 29q-1 10 1 25t2 21t-8 40q-8 35 20 47q4 2 37 7t45 -7
l31 2q16 0 28 -6l35 6l25 -6l43 4l16 -4h62z" />
    <glyph glyph-name="dieresis" unicode="&#xa8;" horiz-adv-x="661" 
d="M426 1065q4 0 12 4t16 3q7 -1 9 -1h26l19 -6q44 -7 39 -45q0 -6 -3 -12t-2 -10l2 -8q1 -3 2 -7t1 -6q0 -1 -1 -15t-3 -43t-11 -40q-10 -9 -23 -13t-41 -1t-39 0t-19 -3t-20 10q-18 16 -16 41q1 25 -3 58l-6 33l6 26q4 23 8 29q15 16 29 11t18 -5zM172 1065q4 0 12 4t16 3
q7 -1 9 -1h27l18 -6q44 -7 39 -45l-4 -23l4 -20q0 -1 -1 -15t-3 -43t-11 -40q-8 -9 -22 -13t-42 -1t-38 0q-12 -3 -20 -3t-20 10q-18 16 -16 41q1 25 -3 58l-6 33l6 26q4 23 8 29q15 16 29 11t18 -5z" />
    <glyph glyph-name="Agrave" unicode="&#xc0;" horiz-adv-x="1251" 
d="M664 1184q0 -8 2 -11t5 -9t10 -12q7 -7 14 -32q7 -24 13 -30q13 -15 13 -37q10 -10 11 -27t17 -43q15 -25 14 -35q-2 -17 9 -20q10 -3 13 -16t5 -17t6 -10q6 -7 17 -40q12 -33 20 -48q8 -14 18 -35q9 -21 19 -51q10 -29 14 -38t10 -19l10 -20q5 -9 9 -18t9 -28
q6 -19 13 -29t8 -25q1 -16 3 -21t8 -12t10 -13t8 -17q10 -19 15 -35q6 -16 14 -24q3 -10 9 -33t10 -31l43 -90q2 -2 3 -8t3 -9t5 -9t6 -9q3 -4 5 -12q1 -8 9 -20q11 -17 14 -33q4 -16 12 -24t10 -13l5 -21q0 -10 17 -39t16 -41t-2 -26t-17 -19q-2 -2 -37 -2l-29 -2
q-12 6 -20 6l-21 -4q-2 2 -8 2l-8 2q-4 0 -24 -2q-27 -3 -27 29l-14 33l-9 18v12q0 12 -5 19q-5 6 -5 12v15q-2 6 -12 14t-13 18q-2 9 -3 13t-4 7q-16 16 -17 26q-2 10 -6 17q-5 9 -7 22t-12 25q-10 13 -11 26q-1 14 -3 19t-7 14q-7 12 -8 29q-2 17 -30 17l-27 -2l-24 4
q-27 2 -45 0l-43 -12q-8 4 -25 4l-32 -2l-27 4l-33 -4l-29 6q-4 2 -12 0t-22 -2t-32 2t-24 -2t-17 -21t-14 -20l-2 -20q-2 -6 -13 -32q-30 -71 -30 -95l-55 -119v-18q-6 -38 -25 -48q-18 -9 -27 -10l-58 2l-27 -4q-4 -2 -12 -1t-16 1t-15 -6q-17 -1 -29 11t-15 22t15 51
q17 41 23 47t8 10l4 8t2 11v12l12 24q13 24 13 34q0 13 12 33t14 38q3 18 22 50t23 49q3 18 11 29q11 15 15 39q4 25 19 40q2 6 3 11q1 4 3 10t4 11q2 9 11 21q9 13 11 25q1 12 4 17t6 13q2 9 7 17t9 24t8 23l14 27l4 24q4 6 21 25t18 42q3 32 13 47t16 42q7 26 13 32
q9 9 10 20t6 17q4 5 6 8t4 7t5 19t6 21t12 18q10 12 12 18t3 15t10 30t16 41t11 31q3 10 10 19t9 24q3 15 11 31q8 15 12 25t5 16q1 7 11 20t30 0q21 -12 24 -20t5 -25q2 -16 5 -21q4 -6 4 -14zM567 724q0 -6 -26 -65q0 -21 -13 -34q-5 -21 -10 -31t-7 -18q-3 -9 -11 -25
t5 -22q13 -7 23 -4t22 3q11 0 20 1q10 1 14 0t12 -4t12 -3l41 6q61 -8 81 5q19 12 11 34l-8 25q0 8 -7 18t-8 14l-4 16q-3 11 -12 18q-10 6 -13 12t-1 16t2 14l-16 23q-2 1 -10 23t-33 57q-16 31 -21 -3q-2 -15 -11 -22q-9 -6 -13 -10q0 -15 -10 -26q-10 -12 -9 -18z
M518 1530q0 2 -16 24t-19 28q-2 7 -5 14t-5 12q-27 27 -22 47q1 2 37 1t38 4t17 1q16 -4 53 -4q20 -8 22 -11q6 -9 10 -21q4 -13 8 -17q10 -13 18 -32t13 -25q5 -7 8 -12t8 -11t7 -12t4 -8t5 -9q3 -6 7 -9t3 -5l18 -33q2 -2 7 -12t7 -13l25 -50q0 -9 -29 -3q-29 2 -34 -1
t-15 0t-15 0t-19 -4t-18 -3q-5 -2 -8 3t-5 7q-6 2 -15 19q-8 17 -16 25t-20 27q-12 20 -17 26q-6 6 -17 26q-12 21 -16 25t-4 6zM760 1399q-2 0 -4 2q0 1 -1 3t0 3q1 2 4 -3t1 -5z" />
    <glyph glyph-name="Aacute" unicode="&#xc1;" horiz-adv-x="1251" 
d="M664 1184q0 -8 2 -11t5 -9t10 -12q7 -7 14 -32q7 -24 13 -30q13 -15 13 -37q10 -10 11 -27t17 -43q15 -25 14 -35q-2 -17 9 -20q10 -3 13 -16t5 -17t6 -10q6 -7 17 -40q12 -33 20 -48q8 -14 18 -35q9 -21 19 -51q10 -29 14 -38t10 -19l10 -20q5 -9 9 -18t9 -28
q6 -19 13 -29t8 -25q1 -16 3 -21t8 -12t10 -13t8 -17q10 -19 15 -35q6 -16 14 -24q3 -10 9 -33t10 -31l43 -90q2 -2 3 -8t3 -9t5 -9t6 -9q3 -4 5 -12q1 -8 9 -20q11 -17 14 -33q4 -16 12 -24t10 -13l5 -21q0 -10 17 -39t16 -41t-2 -26t-17 -19q-2 -2 -37 -2l-29 -2
q-12 6 -20 6l-21 -4q-2 2 -8 2l-8 2q-4 0 -24 -2q-27 -3 -27 29l-14 33l-9 18v12q0 12 -5 19q-5 6 -5 12v15q-2 6 -12 14t-13 18q-2 9 -3 13t-4 7q-16 16 -17 26q-2 10 -6 17q-5 9 -7 22t-12 25q-10 13 -11 26q-1 14 -3 19t-7 14q-7 12 -8 29q-2 17 -30 17l-27 -2l-24 4
q-27 2 -45 0l-43 -12q-8 4 -25 4l-32 -2l-27 4l-33 -4l-29 6q-4 2 -12 0t-22 -2t-32 2t-24 -2t-17 -21t-14 -20l-2 -20q-2 -6 -13 -32q-30 -71 -30 -95l-55 -119v-18q-6 -38 -25 -48q-18 -9 -27 -10l-58 2l-27 -4q-4 -2 -12 -1t-16 1t-15 -6q-17 -1 -29 11t-15 22t15 51
q17 41 23 47t8 10l4 8t2 11v12l12 24q13 24 13 34q0 13 12 33t14 38q3 18 22 50t23 49q3 18 11 29q11 15 15 39q4 25 19 40q2 6 3 11q1 4 3 10t4 11q2 9 11 21q9 13 11 25q1 12 4 17t6 13q2 9 7 17t9 24t8 23l14 27l4 24q4 6 21 25t18 42q3 32 13 47t16 42q7 26 13 32
q9 9 10 20t6 17q4 5 6 8t4 7t5 19t6 21t12 18q10 12 12 18t3 15t10 30t16 41t11 31q3 10 10 19t9 24q3 15 11 31q8 15 12 25t5 16q1 7 11 20t30 0q21 -12 24 -20t5 -25q2 -16 5 -21q4 -6 4 -14zM567 724q0 -6 -26 -65q0 -21 -13 -34q-5 -21 -10 -31t-7 -18q-3 -9 -11 -25
t5 -22q13 -7 23 -4t22 3q11 0 20 1q10 1 14 0t12 -4t12 -3l41 6q61 -8 81 5q19 12 11 34l-8 25q0 8 -7 18t-8 14l-4 16q-3 11 -12 18q-10 6 -13 12t-1 16t2 14l-16 23q-2 1 -10 23t-33 57q-16 31 -21 -3q-2 -15 -11 -22q-9 -6 -13 -10q0 -15 -10 -26q-10 -12 -9 -18z
M549 1483q0 2 2 5t5 9t5 9t5 8q3 6 8 12q22 29 27 45t13 28q9 13 11 17t4 7q4 6 8 18t36 14q31 2 43 5t13 -3q2 -4 39 -3t38 -4q3 -16 -11 -33q-15 -17 -20 -29t-8 -17t-13 -19t-14 -17t-3 -6q0 -3 -4 -7t-14 -24t-17 -28q-7 -7 -26 -38t-27 -35q-2 -5 -6 -13t-8 -10t-7 -6
t-7 -3q-5 1 -19 2t-19 4t-15 0t-16 -1q-5 2 -10 2l-28 -4q-20 0 -26 3t8 26h2q2 2 9 14t9 14q2 1 7 13t6 13t8 12q6 11 9 15t3 5z" />
    <glyph glyph-name="Acircumflex" unicode="&#xc2;" horiz-adv-x="1251" 
d="M664 1184q0 -8 2 -11t5 -9t10 -12q7 -7 14 -32q7 -24 13 -30q13 -15 13 -37q10 -10 11 -27t17 -43q15 -25 14 -35q-2 -17 9 -20q10 -3 13 -16t5 -17t6 -10q6 -7 17 -40q12 -33 20 -48q8 -14 18 -35q9 -21 19 -51q10 -29 14 -38t10 -19l10 -20q5 -9 9 -18t9 -28
q6 -19 13 -29t8 -25q1 -16 3 -21t8 -12t10 -13t8 -17q10 -19 15 -35q6 -16 14 -24q3 -10 9 -33t10 -31l43 -90q2 -2 3 -8t3 -9t5 -9t6 -9q3 -4 5 -12q1 -8 9 -20q11 -17 14 -33q4 -16 12 -24t10 -13l5 -21q0 -10 17 -39t16 -41t-2 -26t-17 -19q-2 -2 -37 -2l-29 -2
q-12 6 -20 6l-21 -4q-2 2 -8 2l-8 2q-4 0 -24 -2q-27 -3 -27 29l-14 33l-9 18v12q0 12 -5 19q-5 6 -5 12v15q-2 6 -12 14t-13 18q-2 9 -3 13t-4 7q-16 16 -17 26q-2 10 -6 17q-5 9 -7 22t-12 25q-10 13 -11 26q-1 14 -3 19t-7 14q-7 12 -8 29q-2 17 -30 17l-27 -2l-24 4
q-27 2 -45 0l-43 -12q-8 4 -25 4l-32 -2l-27 4l-33 -4l-29 6q-4 2 -12 0t-22 -2t-32 2t-24 -2t-17 -21t-14 -20l-2 -20q-2 -6 -13 -32q-30 -71 -30 -95l-55 -119v-18q-6 -38 -25 -48q-18 -9 -27 -10l-58 2l-27 -4q-4 -2 -12 -1t-16 1t-15 -6q-17 -1 -29 11t-15 22t15 51
q17 41 23 47t8 10l4 8t2 11v12l12 24q13 24 13 34q0 13 12 33t14 38q3 18 22 50t23 49q3 18 11 29q11 15 15 39q4 25 19 40q2 6 3 11q1 4 3 10t4 11q2 9 11 21q9 13 11 25q1 12 4 17t6 13q2 9 7 17t9 24t8 23l14 27l4 24q4 6 21 25t18 42q3 32 13 47t16 42q7 26 13 32
q9 9 10 20t6 17q4 5 6 8t4 7t5 19t6 21t12 18q10 12 12 18t3 15t10 30t16 41t11 31q3 10 10 19t9 24q3 15 11 31q8 15 12 25t5 16q1 7 11 20t30 0q21 -12 24 -20t5 -25q2 -16 5 -21q4 -6 4 -14zM567 724q0 -6 -26 -65q0 -21 -13 -34q-5 -21 -10 -31t-7 -18q-3 -9 -11 -25
t5 -22q13 -7 23 -4t22 3q11 0 20 1q10 1 14 0t12 -4t12 -3l41 6q61 -8 81 5q19 12 11 34l-8 25q0 8 -7 18t-8 14l-4 16q-3 11 -12 18q-10 6 -13 12t-1 16t2 14l-16 23q-2 1 -10 23t-33 57q-16 31 -21 -3q-2 -15 -11 -22q-9 -6 -13 -10q0 -15 -10 -26q-10 -12 -9 -18z
M612 1509h-4q-10 -25 -19 -37t-17 -24t-15 -22q-6 -10 -9 -13q-3 -4 -6 -7t-5 -7l4 2q-7 -10 -11 -12q-4 -1 -7 -11t-7 -11t-6 -6t-8 -4t-20 2t-18 5q-5 4 -15 0q-9 -4 -15 -1t-21 0t-20 -3q-47 2 -14 29q2 2 10 16t11 19q4 6 6 12t4 8t7 12t9 14q2 4 2 6t3 5q3 2 6 8t5 9
t4 8t14 21q11 15 13 20t4 8t7 16t13 22q7 11 8 15t3 7t5 11t5 10t23 11q3 0 29 2t75 -2q49 -5 51 -9t5 -11t5 -10t4 -8q1 -5 5 -9q6 -6 17 -32t23 -40q11 -14 13 -20t5 -9q3 -2 6 -8t5 -9t2 -5t6 -8t16 -27q9 -20 11 -22l7 -14q6 -11 12 -15h2q0 -3 5 -13t1 -13t-25 -3
l-28 4q-5 0 -11 -2t-15 2t-15 0t-20 -5t-17 -3q-4 -2 -8 3t-9 8t-12 22q-4 2 -12 12l4 -2q-4 8 -16 20q-23 37 -37 52q-13 15 -13 36z" />
    <glyph glyph-name="Atilde" unicode="&#xc3;" horiz-adv-x="1253" 
d="M666 1184q0 -8 2 -11t5 -9t10 -12q7 -7 13 -28q6 -20 8 -25t7 -10q12 -15 12 -36q10 -9 11 -23t17 -43t14 -39q-2 -17 9 -20q10 -3 13 -16t5 -17t6 -10q5 -6 10 -21q24 -67 46 -102q24 -71 37 -95t20 -42t13 -37t11 -26t7 -12t2 -12q0 -6 1 -14t3 -12t5 -8t6 -7t7 -9
t8 -17q10 -19 16 -37q6 -17 14 -22q4 -10 9 -33t9 -31l43 -90q2 -2 3 -8t3 -9t5 -9t6 -9q3 -4 5 -12q1 -7 9 -19t10 -16t4 -15t4 -17t9 -12q7 -7 10 -11l4 -21q0 -10 17 -39t16 -41t-2 -26t-17 -19q-2 -2 -37 -2l-29 -2q-12 6 -20 6l-21 -4q-2 2 -8 2l-8 2q-4 0 -24 -2
q-27 -3 -27 29l-14 33l-9 18v12q0 12 -5 19q-5 6 -5 12v15q-2 6 -11 13t-11 11t-3 11q-1 6 -3 10t-8 10q-5 6 -9 14t-5 14t-5 12q-5 9 -7 22t-12 25q-10 13 -11 26q-1 14 -3 19t-7 14q-7 12 -8 25q-3 27 -41 21q-13 -2 -16 -2l-24 4q-27 2 -45 0l-43 -12q-8 4 -25 4l-32 -2
l-27 4l-33 -4l-29 6q-4 2 -12 0t-22 -2t-32 2t-24 -2t-17 -21t-13 -20q-3 -20 -25 -72q-21 -52 -21 -75l-55 -119v-18q-6 -38 -25 -48q-18 -9 -27 -10l-58 2l-27 -4q-4 -2 -12 -1t-16 1t-15 -6q-19 -1 -29 11t-12 18t-2 12q0 28 18 59t24 37q9 11 9 23v12q5 15 15 31t10 26
t2 16q2 5 12 23t13 35q2 16 21 48t23 49q3 18 11 29q11 15 14 34q3 20 14 35t14 31q4 19 13 32t11 25q1 12 3 16t5 13t10 20q6 10 9 24q3 15 7 21l14 27l4 24q4 6 21 25t18 45q2 26 8 34q15 24 21 51q7 27 13 33t9 18q3 11 4 14q1 2 4 6t5 7t4 7t5 19t6 21t12 18
q10 12 12 18t3 15t10 30t15 37t8 21t2 10q2 10 10 21t11 26t11 31q15 25 17 43q3 18 17 21t30 -6t18 -17q3 -8 4 -17q1 -7 2 -13q0 -6 4 -14t4 -16zM558 528q5 0 14 1q10 1 14 0t12 -4t12 -3l41 6q63 -8 81 5q19 12 11 34l-8 25q0 8 -7 18t-8 14l-4 16q-3 11 -12 18
q-17 12 -14 28t-5 24q-9 9 -10 12q-1 2 -8 24t-34 57q-14 28 -21 -3q-2 -15 -11 -22q-9 -6 -13 -10q0 -24 -17 -35q-2 -4 -3 -14t-11 -31q-10 -20 -14 -29l-2 -18q-4 -7 -11 -16l-4 -17q-6 -12 -7 -16t-4 -9t-4 -12q-1 -6 -10 -23t8 -21q17 -5 31 -2t18 3z" />
    <glyph glyph-name="Adieresis" unicode="&#xc4;" horiz-adv-x="1251" 
d="M664 1184q0 -8 2 -11t5 -9t10 -12q7 -7 14 -32q7 -24 13 -30q13 -15 13 -37q10 -10 11 -27t17 -43q15 -25 14 -35q-2 -17 9 -20q10 -3 13 -16t5 -17t6 -10q6 -7 17 -40q12 -33 20 -48q8 -14 18 -35q9 -21 19 -51q10 -29 14 -38t10 -19l10 -20q5 -9 9 -18t9 -28
q6 -19 13 -29t8 -25q1 -16 3 -21t8 -12t10 -13t8 -17q10 -19 15 -35q6 -16 14 -24q3 -10 9 -33t10 -31l43 -90q2 -2 3 -8t3 -9t5 -9t6 -9q3 -4 5 -12q1 -8 9 -20q11 -17 14 -33q4 -16 12 -24t10 -13l5 -21q0 -10 17 -39t16 -41t-2 -26t-17 -19q-2 -2 -37 -2l-29 -2
q-12 6 -20 6l-21 -4q-2 2 -8 2l-8 2q-4 0 -24 -2q-27 -3 -27 29l-14 33l-9 18v12q0 12 -5 19q-5 6 -5 12v15q-2 6 -12 14t-13 18q-2 9 -3 13t-4 7q-16 16 -17 26q-2 10 -6 17q-5 9 -7 22t-12 25q-10 13 -11 26q-1 14 -3 19t-7 14q-7 12 -8 29q-2 17 -30 17l-27 -2l-24 4
q-27 2 -45 0l-43 -12q-8 4 -25 4l-32 -2l-27 4l-33 -4l-29 6q-4 2 -12 0t-22 -2t-32 2t-24 -2t-17 -21t-14 -20l-2 -20q-2 -6 -13 -32q-30 -71 -30 -95l-55 -119v-18q-6 -38 -25 -48q-18 -9 -27 -10l-58 2l-27 -4q-4 -2 -12 -1t-16 1t-15 -6q-17 -1 -29 11t-15 22t15 51
q17 41 23 47t8 10l4 8t2 11v12l12 24q13 24 13 34q0 13 12 33t14 38q3 18 22 50t23 49q3 18 11 29q11 15 15 39q4 25 19 40q2 6 3 11q1 4 3 10t4 11q2 9 11 21q9 13 11 25q1 12 4 17t6 13q2 9 7 17t9 24t8 23l14 27l4 24q4 6 21 25t18 42q3 32 13 47t16 42q7 26 13 32
q9 9 10 20t6 17q4 5 6 8t4 7t5 19t6 21t12 18q10 12 12 18t3 15t10 30t16 41t11 31q3 10 10 19t9 24q3 15 11 31q8 15 12 25t5 16q1 7 11 20t30 0q21 -12 24 -20t5 -25q2 -16 5 -21q4 -6 4 -14zM567 724q0 -6 -26 -65q0 -21 -13 -34q-5 -21 -10 -31t-7 -18q-3 -9 -11 -25
t5 -22q13 -7 23 -4t22 3q11 0 20 1q10 1 14 0t12 -4t12 -3l41 6q61 -8 81 5q19 12 11 34l-8 25q0 8 -7 18t-8 14l-4 16q-3 11 -12 18q-10 6 -13 12t-1 16t2 14l-16 23q-2 1 -10 23t-33 57q-16 31 -21 -3q-2 -15 -11 -22q-9 -6 -13 -10q0 -15 -10 -26q-10 -12 -9 -18z
M702 1628q12 0 23 10h6l12 -2h25l20 -6q44 -8 39 -45l-6 -22l6 -21q0 -2 -1 -15t-3 -42t-10 -41q-10 -10 -37 -17l-49 5l-34 -5q-22 0 -38 31q-2 6 -2 26t-2 52l-6 31l6 28q4 23 8 29q16 16 31 12q0 -8 12 -8zM399 1484q0 20 -2 52l-6 31l6 28q5 23 15 34t24 7q0 -8 12 -8
t23 10l18 -2h25l21 -6q43 -7 38 -45l-6 -22l6 -21q0 -2 -1 -15t-3 -42t-10 -41q-10 -10 -37 -17l-49 5h-8l-25 -5q-24 0 -39 31q-2 6 -2 26z" />
    <glyph glyph-name="Aring" unicode="&#xc5;" horiz-adv-x="1253" 
d="M666 1184q0 -8 2 -11t5 -9t10 -12q7 -7 13 -28q6 -20 8 -25t7 -10q12 -15 12 -36q10 -9 11 -23t17 -43t14 -39q-2 -17 9 -20q10 -3 13 -16t5 -17t6 -10q5 -6 10 -21q24 -67 46 -102q24 -71 37 -95t20 -42t13 -37t11 -26t7 -12t2 -12q0 -6 1 -14t3 -12t5 -8t6 -7t7 -9
t8 -17q10 -19 16 -37q6 -17 14 -22q4 -10 9 -33t9 -31l43 -90q2 -2 3 -8t3 -9t5 -9t6 -9q3 -4 5 -12q1 -7 9 -19t10 -16t4 -15t4 -17t9 -12q7 -7 10 -11l4 -21q0 -10 17 -39t16 -41t-2 -26t-17 -19q-2 -2 -37 -2l-29 -2q-12 6 -20 6l-21 -4q-2 2 -8 2l-8 2q-4 0 -24 -2
q-27 -3 -27 29l-14 33l-9 18v12q0 12 -5 19q-5 6 -5 12v15q-2 6 -11 13t-11 11t-3 11q-1 6 -3 10t-8 10q-5 6 -9 14t-5 14t-5 12q-5 9 -7 22t-12 25q-10 13 -11 26q-1 14 -3 19t-7 14q-7 12 -8 25q-3 27 -41 21q-13 -2 -16 -2l-24 4q-27 2 -45 0l-43 -12q-8 4 -25 4l-32 -2
l-27 4l-33 -4l-29 6q-4 2 -12 0t-22 -2t-32 2t-24 -2t-17 -21t-13 -20q-3 -20 -25 -72q-21 -52 -21 -75l-55 -119v-18q-6 -38 -25 -48q-18 -9 -27 -10l-58 2l-27 -4q-4 -2 -12 -1t-16 1t-15 -6q-19 -1 -29 11t-12 18t-2 12q0 28 18 59t24 37q9 11 9 23v12q5 15 15 31t10 26
t2 16q2 5 12 23t13 35q2 16 21 48t23 49q3 18 11 29q11 15 14 34q3 20 14 35t14 31q4 19 13 32t11 25q1 12 3 16t5 13t10 20q6 10 9 24q3 15 7 21l14 27l4 24q4 6 21 25t18 45q2 26 8 34q15 24 21 51q7 27 13 33t9 18q3 11 4 14q1 2 4 6t5 7t4 7t5 19t6 21t12 18
q10 12 12 18t3 15t10 30t15 37t8 21t2 10q2 10 10 21t11 26t11 31q15 25 17 43q3 18 17 21t30 -6t18 -17q3 -8 4 -17q1 -7 2 -13q0 -6 4 -14t4 -16zM558 528q5 0 14 1q10 1 14 0t12 -4t12 -3l41 6q63 -8 81 5q19 12 11 34l-8 25q0 8 -7 18t-8 14l-4 16q-3 11 -12 18
q-17 12 -14 28t-5 24q-9 9 -10 12q-1 2 -8 24t-34 57q-14 28 -21 -3q-2 -15 -11 -22q-9 -6 -13 -10q0 -24 -17 -35q-2 -4 -3 -14t-11 -31q-10 -20 -14 -29l-2 -18q-4 -7 -11 -16l-4 -17q-6 -12 -7 -16t-4 -9t-4 -12q-1 -6 -10 -23t8 -21q17 -5 31 -2t18 3z" />
    <glyph glyph-name="Ccedilla" unicode="&#xc7;" horiz-adv-x="1343" 
d="M827 -98l15 -48v-12l2 -20v-8q-2 -22 -4 -27q-2 -6 -3 -10t-3 -8q-2 -3 -4 -5t-2 -7q-1 -5 -5 -9t-7 -10t-9 -12t-10 -12t-9 -5h-2q-6 -6 -8 -6h-4t-9 -6t-22 -10q-14 -4 -19 -7q-6 -3 -12 0q-5 3 -11 2t-19 1q-14 2 -18 2l-41 14q-7 2 -9 4t-6 5t-5 3t-6 3t-7 9
q-2 5 -4 7q-2 0 -16 10t12 27q6 6 8 7q5 2 13 10q8 7 19 -3t15 -13t6 -8q2 -6 10 -6q13 -8 17 -8h8q4 0 6 -1t5 -2t8 -3t15 0t9 4q0 2 3 2t19 11t20 21q5 11 7 13t3 4t0 6q-1 5 -1 7t4 8q4 20 -5 44t-12 26l-22 16q-17 6 -25 7q-31 4 -18 21q2 0 3 6t3 9q2 2 1 5t1 5
q-4 2 -8 2l-18 2q-4 0 -8 3t-10 5q-12 4 -34 0t-55 15q-4 0 -10 -1q-9 -1 -17 5t-17 7t-13 3t-11 8q-13 11 -30 15q-18 4 -26 11q-20 17 -40 22q-19 5 -31 20t-21 19t-26 19q-20 18 -27 20t-16 15t-12 17q-21 11 -23 20q-2 10 -28 37q-2 4 -3 9q-1 6 -3 10l-4 8q-4 8 -18 22
q-28 39 -35 61t-14 31q-7 8 -9 13l-2 16v8l-10 33q-10 20 -9 30q0 10 -12 74q-12 66 -12 98t16 97l-2 23l17 49q0 4 -1 12q-1 7 6 21q10 19 16 41t18 42q13 19 24 40q10 22 14 28t8 11q5 4 6 8t4 8t13 19t36 44t41 39t20 21q10 24 30 24q31 30 57 39t36 18t26 14t34 14
q27 13 39 13h11q6 3 27 13t68 10t51 2l20 6q11 2 29 -1t25 -1t22 2l53 -10q2 0 10 1t36 -7t38 -8l18 -13q22 0 35 -11q12 -11 51 -25t48 -22q8 -9 12 -11t11 -3q11 -2 32 -21q21 -20 27 -22l9 -6t7 -7t6 -7t8 -7t14 -13t4 -26q-5 -25 -26 -39t-26 -24t-13 -15t-11 -8t-7 -10
t-7 -11q-46 -46 -90 8q-6 6 -18 17t-16 18q-6 11 -23 21t-27 20t-32 20l-31 12l-21 2q-4 1 -15 9t-17 8l-31 -2q-32 8 -45 8l-27 -2q-86 0 -100 -8t-35 -16t-28 -11q-7 -4 -12 -9q-6 -6 -28 -13t-30 -13l-19 -20q-4 -4 -10 -7t-8 -7t-9 -11q-8 -8 -20 -15q-12 -8 -16 -12
q-6 -7 -10 -13q-3 -7 -13 -15t-30 -43q1 -9 -5 -17t-12 -17l-14 -21t-15 -43q-6 -31 -10 -45t-5 -19q-1 -6 -1 -17t-2 -16l-8 -25q0 -10 3 -19t2 -21t-1 -17l-4 -34l10 -61v-13q6 -29 21 -49l10 -29q0 -14 22 -41t23 -36q2 -9 5 -12t9 -8q8 -7 15 -23t22 -27q23 -16 31 -29
t19 -18q17 -8 30 -21q10 -4 68 -27l22 -12q27 -10 74 -20l20 -5q13 0 25 3l27 -7l24 4l23 -4q7 0 22 11h21l39 12q51 18 55 20q4 1 12 8t24 13t39 30q25 26 32 32q8 5 12 13t6 10q2 3 10 11t17 19q17 21 42 18t42 -22q16 -19 24 -26t14 -17t13 -17q30 -15 34 -29
q4 -15 -7 -35q-13 -25 -27 -35t-26 -23q-11 -14 -29 -26t-25 -21t-13 -12l-18 -9t-16 -10t-10 -9q-8 -8 -33 -15q-24 -7 -36 -17q-36 -35 -120 -44h-16l-27 -6q-8 -2 -15 -2t-14 -1t-19 -10q-13 -9 -10 -10t5 -6q2 -6 6 -10l18 -20q4 -4 4 -6z" />
    <glyph glyph-name="Egrave" unicode="&#xc8;" horiz-adv-x="954" 
d="M523 162l52 4l19 2l35 -2l39 2l26 -2l39 4h43l27 6q81 8 57 -98l2 -33q0 -39 -31 -53q-3 -8 -29 -4t-28 4l-26 2h-13l-16 -4l-21 4l-24 -2l-49 8l-25 -6l-22 4l-52 -4l-49 6l-24 -4q-7 -2 -19 0t-18 2l-23 -4l-28 6l-121 -6l-21 8l-16 -6l-19 -2q-49 -10 -63 16
q-6 10 -4 51l-2 23v8t1 8l2 8t0 11q-1 6 -1 9t4 10t-4 30l2 22v61l-4 23q0 6 5 24t3 26l-6 38l2 21l-2 27q6 6 6 22l-2 15v34l-4 31v33l-2 24l10 33l-6 29l4 96l-6 31l6 22l-4 45l2 17l-2 16q4 4 4 16l-6 39l4 30l-2 34l-4 15l2 17v6l-2 13l2 31l-2 57q0 15 8 27q0 7 -10 43
t6 54t45 15l22 -6l52 4q14 0 42 -3t44 0q18 3 26 3q36 -12 58 -8l32 8l20 -4l19 4l17 -4l94 6l33 -4q45 0 80 4l20 5q4 0 8 2l25 -7l28 5q44 -6 40 -49q-1 -11 -3 -27t-2 -35v-31q0 -24 -8 -30q-7 -6 -33 -4t-42 -2q-16 -3 -23 -3l-35 6l-45 -6q-7 -2 -25 2t-26 4l-31 -2
l-20 9q-9 0 -19 -5l-72 -2l-18 -2l-51 2l-23 -4q-8 0 -16 2q-27 7 -36 -16q-3 -7 -2 -23t-1 -21t-2 -33v-32l4 -24l-4 -35l2 -49l-2 -17v-10l2 -47q0 -6 -5 -36t10 -41t54 -10l39 1l33 4l27 -2l22 6l66 -2l30 2l27 -2q4 0 11 2t11 1t11 -3q6 -2 9 -2l20 4l53 -4l24 6
q3 2 13 1t30 0t28 -8q9 -9 5 -40t-4 -43l2 -20l-4 -23q0 -2 2 -11q8 -35 -33 -36h-37l-26 4h-19l-22 8l-33 -8l-45 4l-49 -6l-49 8l-58 -6l-30 2l-91 4q-20 0 -26 -16l2 -18l-4 -35l4 -19l-2 -47l4 -22l-2 -25v-69l2 -31q-2 -12 0 -55v-23q6 -8 35 -10l51 4q20 -4 35 -4h18
l33 -2q12 6 30 6zM541 1483q0 -2 2 -4t10 -16q8 -13 11 -16t5 -7t4 -15t15 -24q2 -7 6 -15t4 -10q0 -10 -28 -6t-34 1t-14 1q-9 4 -16 0q-6 -4 -20 -5t-17 -2q-4 -1 -6 0t-4 4t-7 6t-12 22q-4 2 -12 12l4 -2q-6 6 -23 32q-18 26 -23 32t-16 26q-10 21 -14 25t-5 7
q-2 5 -17 24t-20 33q-5 13 -18 28t-13 39q0 2 38 1t40 4t17 1t50 -4q23 -8 23 -10q12 -25 13 -29t5 -9t9 -15t8 -18q3 -7 9 -17q6 -9 11 -17q4 -8 9 -14t7 -12t5 -9q3 -2 7 -8t5 -9q2 -3 2 -5zM588 1405q0 2 2 0q6 -12 -2 -4v4z" />
    <glyph glyph-name="Eacute" unicode="&#xc9;" horiz-adv-x="954" 
d="M523 162l52 4l19 2l35 -2l39 2l26 -2l39 4h43l27 6q81 8 57 -98l2 -33q0 -39 -31 -53q-3 -8 -29 -4t-28 4l-26 2h-13l-16 -4l-21 4l-24 -2l-49 8l-25 -6l-22 4l-52 -4l-49 6l-24 -4q-7 -2 -19 0t-18 2l-23 -4l-28 6l-121 -6l-21 8l-16 -6l-19 -2q-49 -10 -63 16
q-6 10 -4 51l-2 23v8t1 8l2 8t0 11q-1 6 -1 9t4 10t-4 30l2 22v61l-4 23q0 6 5 24t3 26l-6 38l2 21l-2 27q6 6 6 22l-2 15v34l-4 31v33l-2 24l10 33l-6 29l4 96l-6 31l6 22l-4 45l2 17l-2 16q4 4 4 16l-6 39l4 30l-2 34l-4 15l2 17v6l-2 13l2 31l-2 57q0 15 8 27q0 7 -10 43
t6 54t45 15l22 -6l52 4q14 0 42 -3t44 0q18 3 26 3q36 -12 58 -8l32 8l20 -4l19 4l17 -4l94 6l33 -4q45 0 80 4l20 5q4 0 8 2l25 -7l28 5q44 -6 40 -49q-1 -11 -3 -27t-2 -35v-31q0 -24 -8 -30q-7 -6 -33 -4t-42 -2q-16 -3 -23 -3l-35 6l-45 -6q-7 -2 -25 2t-26 4l-31 -2
l-20 9q-9 0 -19 -5l-72 -2l-18 -2l-51 2l-23 -4q-8 0 -16 2q-27 7 -36 -16q-3 -7 -2 -23t-1 -21t-2 -33v-32l4 -24l-4 -35l2 -49l-2 -17v-10l2 -47q0 -6 -5 -36t10 -41t54 -10l39 1l33 4l27 -2l22 6l66 -2l30 2l27 -2q4 0 11 2t11 1t11 -3q6 -2 9 -2l20 4l53 -4l24 6
q3 2 13 1t30 0t28 -8q9 -9 5 -40t-4 -43l2 -20l-4 -23q0 -2 2 -11q8 -35 -33 -36h-37l-26 4h-19l-22 8l-33 -8l-45 4l-49 -6l-49 8l-58 -6l-30 2l-91 4q-20 0 -26 -16l2 -18l-4 -35l4 -19l-2 -47l4 -22l-2 -25v-69l2 -31q-2 -12 0 -55v-23q6 -8 35 -10l51 4q20 -4 35 -4h18
l33 -2q12 6 30 6zM375 1483q0 2 2 5t5 9t5 9t5 8q3 6 8 12t14 19t13 25q3 11 9 21t11 19t7 12q5 6 9 19t65 16h27q2 -4 39 -3t38 -4q3 -16 -11 -33q-15 -17 -20 -29t-7 -16q-2 -3 -13 -18q-12 -16 -15 -19t-3 -6t-4 -7t-14 -24t-15 -23q-15 -22 -31 -48t-24 -30
q-2 -5 -6 -13t-8 -10t-7 -6q-4 -4 -8 -3t-18 2t-19 4t-15 0t-16 -1q-5 2 -10 2l-28 -4q-20 0 -26 3t8 26h2q2 2 9 14t9 14q2 1 7 13t6 13t7 12t10 15t3 5z" />
    <glyph glyph-name="Ecircumflex" unicode="&#xca;" horiz-adv-x="954" 
d="M523 162l52 4l19 2l35 -2l39 2l26 -2l39 4h43l27 6q81 8 57 -98l2 -33q0 -39 -31 -53q-3 -8 -29 -4t-28 4l-26 2h-13l-16 -4l-21 4l-24 -2l-49 8l-25 -6l-22 4l-52 -4l-49 6l-24 -4q-7 -2 -19 0t-18 2l-23 -4l-28 6l-121 -6l-21 8l-16 -6l-19 -2q-49 -10 -63 16
q-6 10 -4 51l-2 23v8t1 8l2 8t0 11q-1 6 -1 9t4 10t-4 30l2 22v61l-4 23q0 6 5 24t3 26l-6 38l2 21l-2 27q6 6 6 22l-2 15v34l-4 31v33l-2 24l10 33l-6 29l4 96l-6 31l6 22l-4 45l2 17l-2 16q4 4 4 16l-6 39l4 30l-2 34l-4 15l2 17v6l-2 13l2 31l-2 57q0 15 8 27q0 7 -10 43
t6 54t45 15l22 -6l52 4q14 0 42 -3t44 0q18 3 26 3q36 -12 58 -8l32 8l20 -4l19 4l17 -4l94 6l33 -4q45 0 80 4l20 5q4 0 8 2l25 -7l28 5q44 -6 40 -49q-1 -11 -3 -27t-2 -35v-31q0 -24 -8 -30q-7 -6 -33 -4t-42 -2q-16 -3 -23 -3l-35 6l-45 -6q-7 -2 -25 2t-26 4l-31 -2
l-20 9q-9 0 -19 -5l-72 -2l-18 -2l-51 2l-23 -4q-8 0 -16 2q-27 7 -36 -16q-3 -7 -2 -23t-1 -21t-2 -33v-32l4 -24l-4 -35l2 -49l-2 -17v-10l2 -47q0 -6 -5 -36t10 -41t54 -10l39 1l33 4l27 -2l22 6l66 -2l30 2l27 -2q4 0 11 2t11 1t11 -3q6 -2 9 -2l20 4l53 -4l24 6
q3 2 13 1t30 0t28 -8q9 -9 5 -40t-4 -43l2 -20l-4 -23q0 -2 2 -11q8 -35 -33 -36h-37l-26 4h-19l-22 8l-33 -8l-45 4l-49 -6l-49 8l-58 -6l-30 2l-91 4q-20 0 -26 -16l2 -18l-4 -35l4 -19l-2 -47l4 -22l-2 -25v-69l2 -31q-2 -12 0 -55v-23q6 -8 35 -10l51 4q20 -4 35 -4h18
l33 -2q12 6 30 6zM205 823v4q-8 -2 0 -4zM240 1130h-2l2 -2v2zM471 1509h-4q-4 -10 -10 -20l-17 -21q-4 -4 -7 -13q-5 -13 -17 -25t-15 -20t-9 -16q-7 -6 -10 -16t-7 -12t-7 -6q-2 -4 -8 -3t-12 1t-10 1t-9 2t-9 4t-13 -1q-10 -4 -15 -1t-20 0t-20 -3q-47 2 -14 29
q-8 0 6 14t20 31t15 27q10 9 9 13t2 6q3 3 7 8t6 7t3 11q2 14 20 30t18 26q0 11 2 14t9 11t7 10q2 3 2 9t3 9q2 3 5 11t5 11t12 5t12 3l39 6q12 0 62 -4q50 -5 53 -9q2 -4 5 -11t5 -10t3 -8t5 -9q12 -12 16 -29q4 -18 12 -27q7 -8 9 -11t5 -9t7 -10t9 -15q4 -2 7 -8t5 -9
t2 -5t3 -5t6 -16t13 -23q13 -15 19 -28t14 -21t4 -15t-24 -7l-29 4q-6 0 -11 -2t-13 2t-16 0q-7 -4 -20 -5t-17 -3t-9 3q-4 5 -8 7t-12 23q-1 1 -13 10q-2 6 -8 15q-6 10 -10 18t-20 24q-23 23 -23 51z" />
    <glyph glyph-name="Edieresis" unicode="&#xcb;" horiz-adv-x="954" 
d="M523 162l52 4l19 2l35 -2l39 2l26 -2l39 4h43l27 6q81 8 57 -98l2 -33q0 -39 -31 -53q-3 -8 -29 -4t-28 4l-26 2h-13l-16 -4l-21 4l-24 -2l-49 8l-25 -6l-22 4l-52 -4l-49 6l-24 -4q-7 -2 -19 0t-18 2l-23 -4l-28 6l-121 -6l-21 8l-16 -6l-19 -2q-49 -10 -63 16
q-6 10 -4 51l-2 23v8t1 8l2 8t0 11q-1 6 -1 9t4 10t-4 30l2 22v61l-4 23q0 6 5 24t3 26l-6 38l2 21l-2 27q6 6 6 22l-2 15v34l-4 31v33l-2 24l10 33l-6 29l4 96l-6 31l6 22l-4 45l2 17l-2 16q4 4 4 16l-6 39l4 30l-2 34l-4 15l2 17v6l-2 13l2 31l-2 57q0 15 8 27q0 7 -10 43
t6 54t45 15l22 -6l52 4q14 0 42 -3t44 0q18 3 26 3q36 -12 58 -8l32 8l20 -4l19 4l17 -4l94 6l33 -4q45 0 80 4l20 5q4 0 8 2l25 -7l28 5q44 -6 40 -49q-1 -11 -3 -27t-2 -35v-31q0 -24 -8 -30q-7 -6 -33 -4t-42 -2q-16 -3 -23 -3l-35 6l-45 -6q-7 -2 -25 2t-26 4l-31 -2
l-20 9q-9 0 -19 -5l-72 -2l-18 -2l-51 2l-23 -4q-8 0 -16 2q-27 7 -36 -16q-3 -7 -2 -23t-1 -21t-2 -33v-32l4 -24l-4 -35l2 -49l-2 -17v-10l2 -47q0 -6 -5 -36t10 -41t54 -10l39 1l33 4l27 -2l22 6l66 -2l30 2l27 -2q4 0 11 2t11 1t11 -3q6 -2 9 -2l20 4l53 -4l24 6
q3 2 13 1t30 0t28 -8q9 -9 5 -40t-4 -43l2 -20l-4 -23q0 -2 2 -11q8 -35 -33 -36h-37l-26 4h-19l-22 8l-33 -8l-45 4l-49 -6l-49 8l-58 -6l-30 2l-91 4q-20 0 -26 -16l2 -18l-4 -35l4 -19l-2 -47l4 -22l-2 -25v-69l2 -31q-2 -12 0 -55v-23q6 -8 35 -10l51 4q20 -4 35 -4h18
l33 -2q12 6 30 6zM205 823v4q-8 -2 0 -4zM240 1130h-2l2 -2v2zM559 1630q5 0 11 4t9 5t9 0t8 -1h25l20 -6q44 -8 39 -45l-6 -22l6 -21q0 -2 -1 -15t-3 -42t-10 -41q-10 -10 -37 -16l-49 4l-33 -4q-11 0 -23 10t-15 18t-3 28t-2 52l-6 31l6 28q4 23 8 29q16 16 31 12
q0 -2 6 -5t10 -3zM305 1630q5 0 11 4t9 5t9 0t19 -1h14l20 -6q44 -8 39 -45l-6 -22l6 -21q0 -2 -1 -15t-3 -42t-10 -41q-10 -10 -37 -16l-49 4l-33 -4q-11 0 -23 10t-15 18t-3 28t-2 52l-6 31l6 28q4 23 8 29q16 16 31 12q0 -2 6 -5t10 -3z" />
    <glyph glyph-name="Igrave" unicode="&#xcc;" horiz-adv-x="468" 
d="M154 47q6 18 6 58v18q0 4 -2 12t0 18t2 31l-2 19l4 35l-4 24l4 53l-6 50l4 59v63l4 25v8l-2 19l4 47l-6 145v6l2 14l-2 19q6 6 6 18l-4 21q-2 6 0 20q2 13 0 65t0 71l-8 98q4 35 2 57l-6 31l8 20q0 6 -3 17t-1 20q6 14 19 16t47 2q34 -1 44 2t33 2t36 -11t15 -41l-10 -86
l4 -39l-2 -29q2 -2 2 -5l2 -13l-6 -43l2 -23q-10 -20 -10 -23t3 -9l5 -10q2 -5 3 -9t-1 -12t-2 -13l2 -73l-4 -43q0 -29 2 -37l6 -23l-4 -22l2 -31l-4 -37l4 -23v-57q4 -8 4 -34t-4 -50l-8 -28l8 -37l-2 -64l4 -22q2 -3 1 -11t1 -26t0 -23l-2 -20l8 -76l-6 -53q0 -8 5 -26
q15 -54 -42 -73q-14 0 -39 5l-22 -5l-19 2l-20 -4q-26 13 -32 14q-7 1 -13 3q-11 4 -8 39zM369 1403l10 -26q0 -9 -28 -5t-34 1t-15 0t-14 0q-6 -3 -20 -4t-18 -3t-7 3t-7 7t-9 10q-4 8 -6 11q-3 3 -7 9t-12 17q-9 10 -20 28q-12 19 -16 23t-15 25t-15 25t-6 10q-3 6 -14 20
q-10 14 -14 18t-8 17q-4 12 -16 29t-15 37q2 2 39 1t39 4t17 1q16 -4 51 -4q21 -9 23 -13t7 -13t6 -14t5 -9q12 -12 17 -27q4 -15 11 -26t10 -16t8 -11t8 -12t5 -8t5 -9q3 -6 5 -9t3 -5l18 -33q2 -2 7 -12t7 -12t8 -12q6 -8 7 -11v-2zM369 1407q0 2 2 -2q4 -6 2 -6
q-1 1 -4 6v2z" />
    <glyph glyph-name="Iacute" unicode="&#xcd;" horiz-adv-x="473" 
d="M305 283q0 -10 2 -29t-2 -51l8 -76l-6 -53q0 -8 5 -26q8 -30 -6 -49q-14 -18 -36 -24q-14 0 -39 5l-22 -5l-13 2h-6l-20 -4q-25 12 -38 14t-15 9q-2 6 0 33l-2 18q4 12 4 43l2 33q0 4 -2 12t0 18t2 31l-2 19l4 35l-4 24l4 53l-6 49l4 60l-2 63q6 12 6 25l-2 27l2 47
q2 26 -2 74t-4 71l4 21l-2 18l4 18l-4 21q0 6 2 20q2 13 0 65t-2 71l-6 98q4 35 2 57l-6 31l8 20q0 6 -3 17t-1 20q6 14 19 16t75 1l22 6h27q23 -2 36 -12t15 -41l-10 -86l4 -39l-2 -29q4 -4 4 -18l-6 -43v-23l-8 -22l10 -29l-2 -25l2 -73l-4 -43q0 -29 2 -37l6 -23l-4 -22
v-11l2 -20l-4 -37l4 -23v-57l4 -24q0 -37 -4 -60l-8 -28l8 -37l-2 -64zM96 1397h2q2 2 10 14t9 14q2 2 10 21t15 27t8 10q0 2 2 5t5 9t6 9t5 8q2 6 7 12t8 11t8 13q9 14 16 31t13 24q5 7 6 11t3 7q6 9 10 20t35 12q31 2 42 5t13 -2q3 -5 41 -4t39 -4q1 -4 -5 -18t-15 -23
q-8 -9 -12 -22t-19 -31q-14 -18 -16 -21t-3 -6t-4 -7t-14 -24t-16 -23q-4 -7 -12 -19q-26 -40 -35 -49l4 2q-8 -10 -11 -13q-3 -4 -7 -12t-7 -10t-6 -6t-9 -3q-5 1 -18 2q-12 1 -18 4t-16 0t-15 -1t-12 2l-28 -4q-20 0 -25 3q-4 3 1 12t5 14z" />
    <glyph glyph-name="Icircumflex" unicode="&#xce;" horiz-adv-x="610" 
d="M401 1006q0 -25 -6 -43l2 -23q-10 -20 -10 -22l12 -29l-4 -25l4 -73l-4 -43v-37q6 -12 6 -23l-4 -22l2 -31l-4 -37l4 -23q2 -12 2 -29v-28l2 -24q0 -54 -6 -68t-6 -20l8 -37q2 -12 0 -34t-2 -30l4 -22q2 -3 2 -11v-10q2 -33 3 -39l-5 -20l9 -76l-7 -53q-1 -8 5 -26
q12 -40 -22 -64q-16 -11 -58 -4l-23 -5l-18 2l-21 -4q-26 13 -39 14t-14 8q-2 7 -1 25t1 27l4 43l2 33q-4 8 -4 25l4 36l-4 19l4 35l-4 24l6 53l-6 50l2 59v63l4 25v8l-2 19l4 47l-6 145v6l2 14v19l4 18l-4 21l2 41q-4 96 -2 115l-8 98q0 16 4 20v37l-6 31l6 20q0 6 -3 17
t-1 20q7 14 21 16t73 1l25 6h24q23 -2 40 -15t5 -75q-2 -18 -2 -49l4 -39l-2 -29l2 -12v-6zM184 1358q-7 0 -19 5q-11 5 -21 1t-15 -1q-6 3 -21 0q-14 -3 -18 -3q-49 2 -16 29q2 2 9 15q7 14 10 16t7 12t6 12l19 33q0 2 2 4t5 8t5 9t8 13t15 19q2 6 9 15t10 25q4 16 20 29
q3 12 5 15q3 4 6 12t6 13t36 9q34 3 60 1t53 -4q27 -1 27 -5q3 -23 13 -34q9 -10 15 -20t8 -18t5 -12t6 -10t22 -30l20 -39l21 -31q0 -2 6 -14t7 -13q1 -2 5 -8t7 -12t5 -8h5q0 -3 5 -13t1 -13t-27 -3l-28 4q-5 0 -10 -2t-15 1t-15 0q-4 -3 -18 -4t-19 -3t-9 3t-8 7
q-5 2 -10 14q-5 11 -13 21l4 -2q-20 20 -31 40q-12 21 -22 32t-15 36h-2q-10 -26 -23 -43t-23 -33q-11 -16 -17 -23t-9 -11l5 2q-8 -10 -12 -12q-4 -1 -7 -11q-4 -10 -8 -12t-7 -6t-8 -3q-4 1 -12 1z" />
    <glyph glyph-name="Idieresis" unicode="&#xcf;" horiz-adv-x="569" 
d="M377 283l2 -60l-4 -20q10 -50 10 -76l-6 -53q0 -8 5 -26q15 -55 -44 -73q-17 0 -37 5l-24 -5l-17 2l-20 -4q-25 12 -38 14t-16 9q-4 6 0 33l-2 18l4 43q0 12 3 33l-5 25q0 6 5 36l-3 19l5 35l-7 24l7 53l-7 50q0 4 5 59l-3 63l7 25l-2 17v10l2 47l-7 145l5 21l-2 18l4 18
l-4 21l2 41q-2 96 -2 115l-7 98q4 35 2 57l-6 31l6 20q2 7 0 13q-11 36 27 43q4 0 66 -2l22 6h25q25 -2 41 -15t9 -53t-7 -71l4 -39l-2 -29l4 -18l-6 -43v-23l-9 -22l11 -29q0 -15 -4 -25l4 -73l-4 -43q0 -29 2 -37l6 -23l-4 -22l2 -31l-6 -37q0 -14 6 -23v-57l4 -24
q0 -37 -4 -60l-8 -28q0 -13 8 -37l-2 -64zM418 1651h26l19 -6q44 -7 39 -46q0 -4 -3 -11t0 -18q3 -12 3 -14t-1 -15t-3 -42t-11 -41q-10 -10 -23 -13t-63 1l-32 -4q-12 0 -24 10q-18 16 -16 41q1 25 -3 57l-7 31l7 29q8 47 39 41q0 -5 10 -7t18 4t15 4q8 -1 10 -1zM176 1651
h14l19 -6q44 -7 39 -46q0 -4 -3 -11t-2 -11t3 -11q2 -8 2 -10t-1 -15t-3 -42t-11 -41q-10 -10 -23 -13t-63 1l-32 -4q-12 0 -24 10q-18 16 -16 41q1 25 -3 57l-6 31l6 29q8 47 39 41q0 -5 10 -7t18 4t15 4q8 -1 22 -1z" />
    <glyph glyph-name="Ocircumflex" unicode="&#xd4;" horiz-adv-x="1486" 
d="M826 1290h12l32 -6q2 -2 8 -1t12 0q5 -1 17 -7q20 -10 31 -10h10q6 -2 12 -8q11 -11 21 -10q9 1 36 -12t36 -16q10 -3 18 -12t29 -17q21 -7 24 -16t14 -17q11 -9 13 -11t9 -4t15 -13q9 -10 20 -17t15 -18q5 -14 15 -20t27 -31q18 -24 30 -36q2 -6 4 -20t14 -21
q11 -8 15 -13q23 -68 31 -82t9 -19t1 -12t1 -11t5 -12q8 -14 8 -27v-15q10 -30 10 -40v-21l9 -76v-8l-3 -18v-9l3 -35l-5 -20q0 -2 1 -15t-5 -37t-11 -35q-5 -12 -7 -26t-4 -19t-4 -8t-4 -9t-7 -9q-2 -6 -4 -26t-19 -33q-17 -14 -20 -34t-11 -25q-7 -5 -9 -8q-8 -11 -10 -20
t-15 -21q-12 -11 -14 -13t-5 -8t-7 -10l-21 -21q-2 -2 -17 -12t-41 -41t-29 -33q-6 -4 -13 -4t-47 -21q-19 -19 -37 -23t-35 -18t-53 -20h-16l-29 -8l-17 2l-26 -14q-6 -2 -18 -2q-15 1 -30 -4t-22 -5l-24 2l-45 -4q-6 6 -21 6h-26q-21 7 -26 9t-10 1q-4 -1 -8 0t-9 3t-8 2
h-12q-9 0 -14 2l-26 16l-23 2q-2 0 -26 10t-30 12q-5 1 -9 3t-11 9q-11 11 -27 11t-26 15q-16 12 -30 23q-13 11 -19 13q-10 3 -14 11q-5 8 -19 13q-23 9 -29 22t-17 23q-11 9 -15 19q-6 15 -19 25q-12 11 -16 19t-11 14t-9 10t-5 12l-6 12q-6 10 -11 20q-6 9 -14 32t-15 31
q-15 17 -15 41q-8 16 -8 18l-14 53l-11 27q-2 6 -1 25t1 24l-4 23q-4 25 -4 53l8 57l-4 43q0 7 3 17t4 34t23 73q21 50 30 77t32 51q40 68 54 84q14 17 42 41t34 32q5 8 10 13q4 2 7 4t15 8q49 35 53 37t14 11t32 17q22 7 49 22q26 15 50 18q25 4 64 14t45 4q21 0 25 4l20 6
q4 0 15 -1t21 2q10 4 14 5t20 -6h23l22 -6q4 -2 9 -2zM1192 684l-10 64q0 4 2 17t-15 41q-16 27 -28 56q-11 29 -13 32t-3 13t-11 15q-12 5 -17 16t-14 19q-10 7 -19 14t-21 23q-11 15 -17 22q-6 4 -17 9q-27 12 -36 26q-26 22 -51 27q-25 6 -35 16q-11 10 -26 10h-19
q-8 8 -21 8l-11 -2h-5l-27 6l-22 -6q-6 -2 -20 4t-28 0q-16 -6 -20 -6t-13 1t-20 -3q-12 -4 -18 -4l-15 2q-8 0 -16 -8h-10q-12 0 -29 -17q-70 -36 -73 -39q-2 -4 -6 -7t-5 -5q-2 -2 -15 -5t-21 -17q-9 -13 -12 -19t-6 -9t-11 -5t-28 -26t-25 -43t-22 -41t-21 -35t-13 -60
l-10 -25q-2 -4 -2 -10v-12t-2 -12l-12 -37l4 -25l-2 -16q0 -11 4 -17l2 -36l12 -48v-16q0 -19 14 -47q9 -45 11 -48t9 -10q8 -8 14 -24q7 -16 19 -32q13 -15 16 -22t9 -9q0 -3 15 -13q26 -39 36 -45q12 -6 30 -24t26 -23q8 -4 17 -6t12 -4t7 -4t10 -9q7 -7 66 -26h16
q7 0 9 -2l35 -10l22 2l39 -6l17 4q23 0 36 8l19 -8q5 0 20 4t26 3t34 11q22 12 40 19t25 14q23 0 33 14t34 24q27 12 38 40q13 7 24 23q14 22 35 44q2 4 16 33t23 44q16 24 16 46q20 74 23 127l-4 53zM750 1509h-5q-10 -25 -19 -37t-17 -24q-9 -12 -15 -22t-12 -16
q-6 -7 -8 -11l4 2q-8 -10 -11 -12q-3 -1 -7 -11t-7 -12q-4 -2 -7 -6t-8 -3t-18 2q-12 1 -18 5t-16 0t-14 -2q-11 6 -20 2q-10 -4 -22 -4q-47 2 -14 29q2 2 10 16t12 19q3 6 5 12t4 8t4 6t4 7t4 7t4 7t2 5t3 5q3 2 6 8t6 9l5 10t10 17t12 18t12 22t15 27q7 12 8 16t3 7t5 11
t5 10t23 11q4 0 30 2t74 -2q50 -5 52 -9t5 -11t5 -10t3 -8t5 -9t9 -14t7 -15q2 -4 4 -10t9 -16q6 -9 9 -14t8 -11t7 -12t5 -9q3 -2 6 -8l6 -9t2 -5t9 -11t15 -27t8 -20q4 -4 10 -16t9 -12h2q0 -3 5 -13t1 -13t-25 -3l-28 4q-6 0 -11 -2t-15 1t-16 0q-4 -3 -18 -4t-18 -3
t-8 3t-9 8t-12 22q-4 2 -12 12l4 -2q-4 8 -16 20q-23 37 -36 52t-13 36z" />
    <glyph glyph-name="Odieresis" unicode="&#xd6;" horiz-adv-x="1486" 
d="M826 1290h12l32 -6q2 -2 8 -1t12 0q5 -1 17 -7q20 -10 31 -10h10q6 -2 12 -8q11 -11 21 -10q9 1 36 -12t36 -16q10 -3 18 -12t29 -17q21 -7 24 -16t14 -17q11 -9 13 -11t9 -4t15 -13q9 -10 20 -17t15 -18q5 -14 15 -20t27 -31q18 -24 30 -36q2 -6 4 -20t14 -21
q11 -8 15 -13q23 -68 31 -82t9 -19t1 -12t1 -11t5 -12q8 -14 8 -27v-15q10 -30 10 -40v-21l9 -76v-8l-3 -18v-9l3 -35l-5 -20q0 -2 1 -15t-5 -37t-11 -35q-5 -12 -7 -26t-4 -19t-4 -8t-4 -9t-7 -9q-2 -6 -4 -26t-19 -33q-17 -14 -20 -34t-11 -25q-7 -5 -9 -8q-8 -11 -10 -20
t-15 -21q-12 -11 -14 -13t-5 -8t-7 -10l-21 -21q-2 -2 -17 -12t-41 -41t-29 -33q-6 -4 -13 -4t-47 -21q-19 -19 -37 -23t-35 -18t-53 -20h-16l-29 -8l-17 2l-26 -14q-6 -2 -18 -2q-15 1 -30 -4t-22 -5l-24 2l-45 -4q-6 6 -21 6h-26q-21 7 -26 9t-10 1q-4 -1 -8 0t-9 3t-8 2
h-12q-9 0 -14 2l-26 16l-23 2q-2 0 -26 10t-30 12q-5 1 -9 3t-11 9q-11 11 -27 11t-26 15q-16 12 -30 23q-13 11 -19 13q-10 3 -14 11q-5 8 -19 13q-23 9 -29 22t-17 23q-11 9 -15 19q-6 15 -19 25q-12 11 -16 19t-11 14t-9 10t-5 12l-6 12q-6 10 -11 20q-6 9 -14 32t-15 31
q-15 17 -15 41q-8 16 -8 18l-14 53l-11 27q-2 6 -1 25t1 24l-4 23q-4 25 -4 53l8 57l-4 43q0 7 3 17t4 34t23 73q21 50 30 77t32 51q40 68 54 84q14 17 42 41t34 32q5 8 10 13q4 2 7 4t15 8q49 35 53 37t14 11t32 17q22 7 49 22q26 15 50 18q25 4 64 14t45 4q21 0 25 4l20 6
q4 0 15 -1t21 2q10 4 14 5t20 -6h23l22 -6q4 -2 9 -2zM1192 684l-10 64q0 4 2 17t-15 41q-16 27 -28 56q-11 29 -13 32t-3 13t-11 15q-12 5 -17 16t-14 19q-10 7 -19 14t-21 23q-11 15 -17 22q-6 4 -17 9q-27 12 -36 26q-26 22 -51 27q-25 6 -35 16q-11 10 -26 10h-19
q-8 8 -21 8l-11 -2h-5l-27 6l-22 -6q-6 -2 -20 4t-28 0q-16 -6 -20 -6t-13 1t-20 -3q-12 -4 -18 -4l-15 2q-8 0 -16 -8h-10q-12 0 -29 -17q-70 -36 -73 -39q-2 -4 -6 -7t-5 -5q-2 -2 -15 -5t-21 -17q-9 -13 -12 -19t-6 -9t-11 -5t-28 -26t-25 -43t-22 -41t-21 -35t-13 -60
l-10 -25q-2 -4 -2 -10v-12t-2 -12l-12 -37l4 -25l-2 -16q0 -11 4 -17l2 -36l12 -48v-16q0 -19 14 -47q9 -45 11 -48t9 -10q8 -8 14 -24q7 -16 19 -32q13 -15 16 -22t9 -9q0 -3 15 -13q26 -39 36 -45q12 -6 30 -24t26 -23q8 -4 17 -6t12 -4t7 -4t10 -9q7 -7 66 -26h16
q7 0 9 -2l35 -10l22 2l39 -6l17 4q23 0 36 8l19 -8q5 0 20 4t26 3t34 11q22 12 40 19t25 14q23 0 33 14t34 24q27 12 38 40q13 7 24 23q14 22 35 44q2 4 16 33t23 44q16 24 16 46q20 74 23 127l-4 53zM833 1632q5 0 11 4t9 5t9 0t8 -1h25l20 -6q44 -8 39 -45l-6 -22l6 -21
q0 -2 -1 -15t-3 -42t-10 -41q-10 -10 -37 -16l-49 4l-33 -4q-24 0 -39 30q-2 6 -2 26t-2 52l-6 31l6 28q4 23 8 29q19 19 31 12q11 -8 16 -8zM616 1640h25l21 -6q43 -7 38 -45l-6 -22l6 -21q0 -2 -1 -15t-3 -42t-10 -41q-10 -10 -37 -16l-49 4l-33 -4q-19 0 -27 13
q-9 13 -12 18q-2 5 -2 25t-2 52l-6 31l6 28q4 23 8 29q19 19 31 12q11 -8 16 -8t11 4t9 5t9 0t8 -1z" />
    <glyph glyph-name="Oslash" unicode="&#xd8;" horiz-adv-x="1492" 
d="M1196 684l-10 64v9q0 5 2 12t-14 36q-17 29 -29 57t-15 33q0 7 4 19q1 3 -4 1q-12 -12 -23 -27t-22 -24q-12 -10 -15 -19t-12 -24t-16 -21q-6 -6 -20 -22t-60 -61q-47 -45 -52 -47t-8 -7t-5 -9t-10 -9q-8 -6 -15 -20t-21 -20q-14 -5 -29 -24t-31 -32q-23 -18 -35 -43
q-8 -8 -25 -21t-48 -47q-41 -44 -50 -49q-10 -5 -27 -25q-16 -20 -27 -28t-15 -15q-5 -8 -7 -10q-2 -1 -18 -23q-19 -25 -34 -39q-15 -13 -18 -22q0 -16 21 -16q4 -2 11 -2l18 -2q19 -19 81 -39h16q7 0 9 -2l35 -10l22 2l39 -6l17 4h5l11 -2q23 11 30 7q6 -5 12 -5t19 4
t24 3t34 11q21 12 27 14l12 4t12 5q6 2 14 10q27 5 35 16t28 20q19 9 26 14t16 28q10 5 17 14l13 18q10 16 20 26t24 40q16 34 28 51q13 17 13 41q20 74 22 127l-4 53l2 20v9zM607 1282q45 12 55 6q20 0 24 4l21 6q4 0 14 -1q12 -1 26 4t29 -3h8q2 0 8 1t8 0l6 -2t7 -3
q8 -4 17 -4h12l32 -6q2 -2 8 -1t12 0q5 -1 17 -7q21 -10 33 -10t20 -8q12 -12 21 -10q9 1 33 -10q24 -12 37 -17q12 -4 20 -13t25 -16q18 -6 24 -10q0 -2 5 -14t13 -13q8 0 14 5q5 5 10 12q10 14 15 22q46 73 95 39q10 -9 26 -27t23 -26q43 -33 29 -68q-7 -14 -35 -36
q-29 -23 -32 -26q-3 -4 -10 -6t-12 -5t-5 -9t6 -10t12 -7t8 -5q2 -6 4 -20t14 -21q11 -8 15 -13q19 -56 29 -76t11 -25t1 -12t1 -11t5 -12q8 -14 8 -27v-15q10 -30 10 -41v-20l9 -76l-2 -35l2 -35l-4 -20q0 -2 1 -21t-10 -48q-12 -29 -14 -45t-9 -28q-11 -19 -11 -26
q0 -31 -32 -57q-9 -7 -9 -24q1 -17 -9 -25q-10 -7 -13 -11t-8 -16t-9 -19q-17 -9 -23 -20q-6 -12 -10 -16l-21 -21q-2 -2 -11 -8t-37 -35q-27 -29 -31 -35q-8 -12 -18 -12t-32 -12t-28 -19q-6 -8 -21 -12q-15 -3 -37 -18t-57 -21h-16l-29 -8l-16 2q-5 -2 -13 -8
q-15 -11 -49 -6q-33 -11 -35 -11l-24 2l-45 -4q-10 10 -26 8q-17 -2 -21 -1t-10 2q-6 2 -10 4q-5 2 -8 3t-8 0q-6 -1 -14 2t-12 3h-11q-7 0 -13 2l-27 16l-23 2q-2 0 -26 10t-30 12q-10 2 -20 13q-10 10 -22 10q-10 0 -16 3q-6 2 -14 10q-51 45 -57 43q-5 -2 -11 -11
t-19 -18q-12 -8 -16 -12l-20 -23q-5 -6 -11 -13t-9 -11q-3 -3 -13 -7t-25 -15t-39 24q-8 12 -10 14q-33 16 -49 43q-16 26 -13 36t16 20q13 9 20 21q8 12 18 18q10 5 17 11t26 25q23 29 17 34l-14 10t-13 19q-5 14 -15 28t-16 35t-13 29q-16 20 -16 42q-8 16 -8 18l-14 53
q0 4 -7 15t-5 34q1 22 1 27l-4 23q-4 25 -4 53l8 57l-4 43q0 7 3 17t5 34t23 73q21 50 30 80t32 48q39 68 53 84t67 61q11 22 41 37q48 35 52 37q8 5 17 13q8 8 30 15t51 24q29 16 44 16q14 0 59 12zM303 743q-2 -5 -2 -21t-7 -30t-7 -20l4 -25l-2 -16q0 -11 4 -17l2 -36
l12 -48v-16q0 -27 15 -47q8 -47 19 -58t11 -16q8 -12 30 -7q26 6 43 29q17 24 39 41t31 28q9 10 12 14t10 8q11 6 17 15q2 7 13 14q10 7 20 21q11 15 15 19q4 3 10 9q10 9 19 20q10 11 18 16t16 14t35 38t39 43q89 78 96 92q7 15 21 24q19 12 27 26q8 13 15 17t10 6t6 8
q3 5 5 7t5 4t28 24t49 37t49 56q4 4 -2 7t-17 5q-21 4 -34 23q-25 21 -50 27t-36 16q-10 10 -45 10q-8 8 -21 8l-16 -2l-27 6l-22 -6q-6 -2 -20 4t-28 0q-15 -6 -22 -6l-22 2l-27 -8l-15 2l-23 -8q-15 -2 -22 -9t-39 -23t-37 -20t-10 -9q-9 -9 -22 -12t-22 -17
q-9 -13 -12 -20t-6 -9t-11 -4q-8 -3 -24 -21t-23 -36q-8 -18 -9 -24q-1 -7 -17 -25t-21 -35q-6 -17 -15 -64z" />
    <glyph glyph-name="Ugrave" unicode="&#xd9;" 
d="M530 -53l-46 14q-13 0 -35 10q-23 10 -41 11q-39 14 -47 22q-9 8 -13 10q-6 3 -12 5t-12 9t-8 9t-9 5q-6 3 -8 5t-5 8t-9 10t-12 7q-5 2 -9 4t-8 6t-9 13t-9 14q-23 12 -26 19t-4 14t-12 19q-10 11 -14 16t-6 12t-4 10l-10 18q-2 4 -2 11v10q-2 4 -8 8t-7 8q-4 2 -4 14
t-7 18q-7 7 -8 11t0 10t-2 17t-9 41l2 20q-8 24 -6 62t-7 94l17 55q0 5 -8 25q-7 51 -7 76t13 61q-9 18 -13 41l3 75l-5 23l5 18v19l4 14l-9 21q0 14 5 49l-7 20l7 27l-5 20v10l2 21l-6 25q0 68 9 81t15 16q5 3 41 4t65 1q30 0 33 1t7 0l8 -2q19 -4 17 -42l2 -18
q0 -11 -6 -29l4 -35q-2 -23 -6 -123l-4 -20l4 -29l2 -84l-6 -45q0 -26 6 -53l-2 -21v-45l-6 -53v-20l-2 -27l8 -63l-6 -58l4 -20q0 -1 -2 -11t0 -13t3 -6t5 -9t4 -10l-2 -21q0 -13 14 -41q28 -79 41 -91q14 -11 22 -17t10 -10q7 -10 11 -19q4 -8 17 -14t25 -18
q11 -11 17 -13t9 -4l4 -4t4 -5q4 -6 14 -7q9 -1 31 -11t36 -12t22 1q9 3 38 3q28 0 42 2t23 6t19 4t22 10q13 10 68 37q4 4 8 10q7 10 14 13q21 8 43 53q1 2 6 8t8 17t9 19q6 7 8 12q2 6 7 20q4 14 11 32l13 98l-4 21q0 23 6 29l-2 25l4 20q0 17 -8 41l6 31l-4 53l2 68
q2 4 4 13t3 13l-5 19l-2 40l2 27v43l-4 19l4 24l-4 29l4 37l-4 41l2 20l-2 31v51l-4 27l10 24q0 2 -1 10t4 11q20 28 56 14q15 -6 24 -6l28 4l21 -6q2 0 11 2t19 0t22 -18q11 -15 5 -35l-10 -21l4 -24l-6 -39q0 -6 2 -66l-4 -20q6 -26 6 -62l-4 -20l8 -25l-2 -20v-22l-2 -53
v-21l-4 -25q-2 -66 0 -98t2 -37l2 -17v-30l4 -18l-4 -15l2 -16l-4 -19l4 -45q-6 -12 -6 -22l2 -29l-4 -25l2 -34l-12 -36q-1 -3 0 -15t-10 -33q-12 -23 -14 -37q-2 -13 -12 -25t-16 -28q-6 -15 -25 -38q-19 -25 -35 -45t-19 -23t-19 -11q-41 -29 -54 -45t-26 -18
q-12 -2 -24 -12q-20 -19 -48 -19l-22 -13q-32 -16 -144 -16l-34 -4l-23 2zM480 1499q-11 21 -15 25t-4 6q1 2 -13 20t-17 22t-7 17q-4 12 -19 30t-12 36q0 2 37 1t39 3h29q54 -3 59 -9q7 -8 12 -23q5 -14 9 -19q10 -10 17 -26t15 -32q9 -15 15 -22q6 -6 8 -12t4 -8t5 -9
q3 -6 6 -9t3 -5l19 -33q2 -2 7 -12t7 -13l25 -50q0 -9 -29 -3q-29 2 -34 -1t-15 0q-9 3 -15 0t-19 -4t-18 -3t-9 3q-3 5 -5 7q-7 2 -15 19t-16 25t-12 16q-6 8 -14 21t-12 17t-16 25zM702 1399q-2 0 -4 2q0 1 -1 3t0 3q1 2 4 -3t1 -5z" />
    <glyph glyph-name="Uacute" unicode="&#xda;" 
d="M530 -53l-46 14q-13 0 -35 10q-23 10 -41 11q-39 14 -47 22q-9 8 -13 10q-6 3 -12 5t-12 9t-8 9t-9 5q-6 3 -8 5t-5 8t-9 10t-12 7q-5 2 -9 4t-8 6t-9 13t-9 14q-23 12 -26 19t-4 14t-12 19q-10 11 -14 16t-6 12t-4 10l-10 18q-2 4 -2 11v10q-2 4 -8 8t-7 8q-4 2 -4 14
t-7 18q-7 7 -8 11t0 10t-2 17t-9 41l2 20q-8 24 -6 62t-7 94l17 55q0 5 -8 25q-7 51 -7 76t13 61q-9 18 -13 41l3 75l-5 23l5 18v19l4 14l-9 21q0 14 5 49l-7 20l7 27l-5 20v10l2 21l-6 25q0 68 9 81t15 16q5 3 41 4t65 1q30 0 33 1t7 0l8 -2q19 -4 17 -42l2 -18
q0 -11 -6 -29l4 -35q-2 -23 -6 -123l-4 -20l4 -29l2 -84l-6 -45q0 -26 6 -53l-2 -21v-45l-6 -53v-20l-2 -27l8 -63l-6 -58l4 -20q0 -1 -2 -11t0 -13t3 -6t5 -9t4 -10l-2 -21q0 -13 14 -41q28 -79 41 -91q14 -11 22 -17t10 -10q7 -10 11 -19q4 -8 17 -14t25 -18
q11 -11 17 -13t9 -4l4 -4t4 -5q4 -6 14 -7q9 -1 31 -11t36 -12t22 1q9 3 38 3q28 0 42 2t23 6t19 4t22 10q13 10 68 37q4 4 8 10q7 10 14 13q21 8 43 53q1 2 6 8t8 17t9 19q6 7 8 12q2 6 7 20q4 14 11 32l13 98l-4 21q0 23 6 29l-2 25l4 20q0 17 -8 41l6 31l-4 53l2 68
q2 4 4 13t3 13l-5 19l-2 40l2 27v43l-4 19l4 24l-4 29l4 37l-4 41l2 20l-2 31v51l-4 27l10 24q0 2 -1 10t4 11q20 28 56 14q15 -6 24 -6l28 4l21 -6q2 0 11 2t19 0t22 -18q11 -15 5 -35l-10 -21l4 -24l-6 -39q0 -6 2 -66l-4 -20q6 -26 6 -62l-4 -20l8 -25l-2 -20v-22l-2 -53
v-21l-4 -25q-2 -66 0 -98t2 -37l2 -17v-30l4 -18l-4 -15l2 -16l-4 -19l4 -45q-6 -12 -6 -22l2 -29l-4 -25l2 -34l-12 -36q-1 -3 0 -15t-10 -33q-12 -23 -14 -37q-2 -13 -12 -25t-16 -28q-6 -15 -25 -38q-19 -25 -35 -45t-19 -23t-19 -11q-41 -29 -54 -45t-26 -18
q-12 -2 -24 -12q-20 -19 -48 -19l-22 -13q-32 -16 -144 -16l-34 -4l-23 2zM723 1529q0 -3 -4 -7t-14 -24t-15 -23q-4 -6 -17 -26t-19 -29q-7 -8 -11 -14t-7 -10t-7 -12t-8 -10q-3 -2 -7 -6t-8 -3t-18 2t-18 4t-11 2q-6 -1 -10 -3t-10 0t-12 2l-27 -4q-20 0 -26 3q-5 3 0 12
t7 14h2q2 2 10 14q7 12 9 14q2 1 7 13t6 13t7 12t9 15t4 5q0 2 2 5l10 18q2 3 5 8q3 6 8 12t8 11t10 15t9 20q3 9 9 19q6 9 9 15l5 10t4 7q6 9 10 20t64 14h27q2 -4 39 -3t38 -4q3 -14 -12 -32q-14 -18 -19 -30t-8 -17t-13 -19t-14 -17q-3 -3 -3 -6z" />
    <glyph glyph-name="Ucircumflex" unicode="&#xdb;" 
d="M530 -53l-46 14q-13 0 -35 10q-23 10 -41 11q-39 14 -47 22q-9 8 -13 10q-6 3 -12 5t-12 9t-8 9t-9 5q-6 3 -8 5t-5 8t-9 10t-12 7q-5 2 -9 4t-8 6t-9 13t-9 14q-23 12 -26 19t-4 14t-12 19q-10 11 -14 16t-6 12t-4 10l-10 18q-2 4 -2 11v10q-2 4 -8 8t-7 8q-4 2 -4 14
t-7 18q-7 7 -8 11t0 10t-2 17t-9 41l2 20q-8 24 -6 62t-7 94l17 55q0 5 -8 25q-7 51 -7 76t13 61q-9 18 -13 41l3 75l-5 23l5 18v19l4 14l-9 21q0 14 5 49l-7 20l7 27l-5 20v10l2 21l-6 25q0 68 9 81t15 16q5 3 41 4t65 1q30 0 33 1t7 0l8 -2q19 -4 17 -42l2 -18
q0 -11 -6 -29l4 -35q-2 -23 -6 -123l-4 -20l4 -29l2 -84l-6 -45q0 -26 6 -53l-2 -21v-45l-6 -53v-20l-2 -27l8 -63l-6 -58l4 -20q0 -1 -2 -11t0 -13t3 -6t5 -9t4 -10l-2 -21q0 -13 14 -41q28 -79 41 -91q14 -11 22 -17t10 -10q7 -10 11 -19q4 -8 17 -14t25 -18
q11 -11 17 -13t9 -4l4 -4t4 -5q4 -6 14 -7q9 -1 31 -11t36 -12t22 1q9 3 38 3q28 0 42 2t23 6t19 4t22 10q13 10 68 37q4 4 8 10q7 10 14 13q21 8 43 53q1 2 6 8t8 17t9 19q6 7 8 12q2 6 7 20q4 14 11 32l13 98l-4 21q0 23 6 29l-2 25l4 20q0 17 -8 41l6 31l-4 53l2 68
q2 4 4 13t3 13l-5 19l-2 40l2 27v43l-4 19l4 24l-4 29l4 37l-4 41l2 20l-2 31v51l-4 27l10 24q0 2 -1 10t4 11q20 28 56 14q15 -6 24 -6l28 4l21 -6q2 0 11 2t19 0t22 -18q11 -15 5 -35l-10 -21l4 -24l-6 -39q0 -6 2 -66l-4 -20q6 -26 6 -62l-4 -20l8 -25l-2 -20v-22l-2 -53
v-21l-4 -25q-2 -66 0 -98t2 -37l2 -17v-30l4 -18l-4 -15l2 -16l-4 -19l4 -45q-6 -12 -6 -22l2 -29l-4 -25l2 -34l-12 -36q-1 -3 0 -15t-10 -33q-12 -23 -14 -37q-2 -13 -12 -25t-16 -28q-6 -15 -25 -38q-19 -25 -35 -45t-19 -23t-19 -11q-41 -29 -54 -45t-26 -18
q-12 -2 -24 -12q-20 -19 -48 -19l-22 -13q-32 -16 -144 -16l-34 -4l-23 2zM592 1509h-4q-12 -29 -20 -39t-17 -22t-15 -22t-9 -13q-3 -4 -6 -7t-5 -7l4 2q-8 -10 -11 -12q-3 -1 -6 -11t-7 -12t-8 -6t-8 -3q-5 1 -18 2q-12 1 -18 5t-16 0t-15 -1t-11 2t-15 -3q-10 -2 -14 -2
q-47 2 -15 29q4 4 12 17q7 13 10 18q3 6 5 12t4 8t7 12t9 14q3 4 3 6t3 5q3 2 6 8t5 9l5 10q6 15 18 30t17 27t13 25q8 14 9 18t3 7t6 11q3 8 5 10t22 11q4 0 30 2t74 -2q50 -5 52 -9t5 -11t5 -10t3 -8t5 -9t10 -16l11 -22q4 -10 9 -18t8 -13t8 -11q6 -6 8 -12t5 -9
q3 -2 6 -8t5 -9t2 -5t3 -5t16 -27q12 -23 14 -25t7 -13q5 -10 11 -16h2q0 -3 5 -13t1 -13t-24 -3l-29 4q-6 0 -11 -2t-15 1t-16 0q-5 -3 -18 -4q-14 -1 -18 -3t-8 3t-8 7t-12 23q-4 2 -13 12l4 -2q-4 8 -16 20q-25 40 -37 54q-12 13 -12 34z" />
    <glyph glyph-name="Udieresis" unicode="&#xdc;" 
d="M530 -53l-46 14q-13 0 -35 10q-23 10 -41 11q-39 14 -47 22q-9 8 -13 10q-6 3 -12 5t-12 9t-8 9t-9 5q-6 3 -8 5t-5 8t-9 10t-12 7q-5 2 -9 4t-8 6t-9 13t-9 14q-23 12 -26 19t-4 14t-12 19q-10 11 -14 16t-6 12t-4 10l-10 18q-2 4 -2 11v10q-2 4 -8 8t-7 8q-4 2 -4 14
t-7 18q-7 7 -8 11t0 10t-2 17t-9 41l2 20q-8 24 -6 62t-7 94l17 55q0 5 -8 25q-7 51 -7 76t13 61q-9 18 -13 41l3 75l-5 23l5 18v19l4 14l-9 21q0 14 5 49l-7 20l7 27l-5 20v10l2 21l-6 25q0 68 9 81t15 16q5 3 41 4t65 1q30 0 33 1t7 0l8 -2q19 -4 17 -42l2 -18
q0 -11 -6 -29l4 -35q-2 -23 -6 -123l-4 -20l4 -29l2 -84l-6 -45q0 -26 6 -53l-2 -21v-45l-6 -53v-20l-2 -27l8 -63l-6 -58l4 -20q0 -1 -2 -11t0 -13t3 -6t5 -9t4 -10l-2 -21q0 -13 14 -41q28 -79 41 -91q14 -11 22 -17t10 -10q7 -10 11 -19q4 -8 17 -14t25 -18
q11 -11 17 -13t9 -4l4 -4t4 -5q4 -6 14 -7q9 -1 31 -11t36 -12t22 1q9 3 38 3q28 0 42 2t23 6t19 4t22 10q13 10 68 37q4 4 8 10q7 10 14 13q21 8 43 53q1 2 6 8t8 17t9 19q6 7 8 12q2 6 7 20q4 14 11 32l13 98l-4 21q0 23 6 29l-2 25l4 20q0 17 -8 41l6 31l-4 53l2 68
q2 4 4 13t3 13l-5 19l-2 40l2 27v43l-4 19l4 24l-4 29l4 37l-4 41l2 20l-2 31v51l-4 27l10 24q0 2 -1 10t4 11q20 28 56 14q15 -6 24 -6l28 4l21 -6q2 0 11 2t19 0t22 -18q11 -15 5 -35l-10 -21l4 -24l-6 -39q0 -6 2 -66l-4 -20q6 -26 6 -62l-4 -20l8 -25l-2 -20v-22l-2 -53
v-21l-4 -25q-2 -66 0 -98t2 -37l2 -17v-30l4 -18l-4 -15l2 -16l-4 -19l4 -45q-6 -12 -6 -22l2 -29l-4 -25l2 -34l-12 -36q-1 -3 0 -15t-10 -33q-12 -23 -14 -37q-2 -13 -12 -25t-16 -28q-6 -15 -25 -38q-19 -25 -35 -45t-19 -23t-19 -11q-41 -29 -54 -45t-26 -18
q-12 -2 -24 -12q-20 -19 -48 -19l-22 -13q-32 -16 -144 -16l-34 -4l-23 2zM692 1628q4 0 10 4t10 5q3 1 9 0t19 -1h14l20 -6q44 -8 39 -45l-6 -22l6 -21q0 -2 -1 -15t-3 -42t-10 -41q-10 -10 -37 -17l-49 5l-33 -5q-12 1 -24 11t-14 18q-3 8 -3 28t-2 52l-6 31l6 28
q4 23 8 29q16 16 31 12q0 -2 6 -5t10 -3zM438 1628q4 0 10 4t10 5q3 1 9 0t8 -1h25l20 -6q44 -8 39 -45l-6 -22l6 -21q0 -2 -1 -15t-3 -42t-10 -41q-10 -10 -37 -17l-49 5l-33 -5q-12 1 -24 11t-14 18q-3 8 -3 28t-2 52l-6 31l6 28q4 23 8 29q16 16 31 12q0 -2 6 -5t10 -3z
" />
    <glyph glyph-name="agrave" unicode="&#xe0;" horiz-adv-x="845" 
d="M182 631l-4 49q0 12 25 23t30 11h14q9 -1 11 1t10 6t21 3q12 -1 23 4t22 9l28 -2q30 2 48 5t28 -1t17 -4l17 2l20 -2l19 2l32 -10h7q16 -2 48 -18q4 0 14 1t15 -6q13 -24 26 -24q5 -4 13 -9t17 -17t10 -13q1 -2 6 -8t7 -13q2 -6 2 -10q1 -4 5 -9q6 -8 6 -16t6 -23t3 -55
t-3 -46l4 -49l-6 -31q0 -19 8 -47q5 -46 -4 -86l2 -27l-4 -33q0 -6 4 -82l-4 -30l2 -25l4 -16q4 -27 -24 -35q-5 -2 -21 -1t-20 1l-37 -4q-3 -2 -11 0t-10 2h-9l-56 22q-20 -10 -38 -13q-25 -4 -35 -13q-10 -8 -19 -8q-3 -4 -21 -2t-22 2l-25 -6l-29 4h-8l-53 4
q-44 0 -60 13q-23 19 -36 19q-12 0 -19 10q-10 13 -20 18q-10 6 -16 18t-7 15q-2 3 -5 6t-6 5t-6 6t-3 10q0 5 -2 7q-29 61 -25 110l6 21l-2 26q0 6 5 14q9 15 9 25q0 9 10 20t14 20q5 9 10 17q4 7 26 22q22 16 32 24q14 13 29 17q15 5 29 19q14 13 28 13l13 -2q45 0 56 7
t15 7h8l27 6l46 2h65q20 -2 22 0q2 1 18 17q15 16 16 26t-10 30t-25 19h-17l-37 13l-24 -2l-29 4q-70 -10 -72 -10l-22 -9q-8 -4 -28 -9t-30 -10t-26 -10t-29 13q-14 18 -17 37t-12 27q-8 8 -10 12zM313 145h9q4 0 7 -1q38 -13 77 -8q40 5 55 14q92 18 104 47q2 2 4 30l4 31
l-4 43q-2 39 -4 41q-12 18 -45 14l-41 -8l-30 2q-3 -2 -9 -4t-10 -4t-8 -3t-11 0t-12 1l-20 -8q-143 -39 -115 -123q11 -48 41 -63q4 -1 8 -1zM303 1151h29q63 -3 64 -10q2 -15 7 -21t6 -11t5 -9q6 -6 17 -32t23 -40q11 -14 13 -20t5 -8t6 -9q3 -6 5 -9t2 -6q-1 -3 5 -9
q6 -7 9 -13t5 -8t7 -13t6 -13t15 -24v-1l11 -25q0 -10 -28 -6t-34 1t-16 0t-15 0q-4 -3 -18 -4t-18 -3t-8 3t-8 7t-7 10q-4 8 -7 12q-3 3 -11 13l4 -2q-7 7 -25 34t-22 31t-16 25q-11 21 -14 25t-4 7t-11 18t-17 21q-6 6 -10 19q-4 12 -16 26t-15 40q0 2 38 1t38 3zM532 899
q0 2 3 0q4 -8 2 -8q-2 1 -5 5v3z" />
    <glyph glyph-name="aacute" unicode="&#xe1;" horiz-adv-x="843" 
d="M182 631l-4 49q0 12 25 23t30 11h14q9 -1 11 1t10 6t21 3q12 -1 23 4t22 9l28 -2q30 2 48 5t28 -1t17 -4l17 2l20 -2l19 2l32 -10h7q16 -2 48 -18q4 0 14 1t15 -6q13 -24 26 -24q5 -4 13 -9t17 -17t10 -13q1 -2 6 -8t7 -13q2 -6 2 -10q1 -4 5 -9q6 -8 6 -16t6 -23t3 -55
t-3 -46l4 -49l-6 -31q0 -19 8 -47q5 -46 -4 -86l2 -27l-4 -33q0 -6 4 -82l-4 -30l2 -25l4 -16q4 -27 -24 -35q-5 -2 -21 -1t-20 1l-37 -4q-3 -2 -11 0t-10 2h-9l-56 22q-20 -10 -38 -13q-25 -4 -35 -13q-10 -8 -19 -8q-3 -4 -21 -2t-22 2l-25 -6l-29 4h-8l-53 4
q-44 0 -60 13q-23 19 -36 19q-12 0 -19 10q-10 13 -20 18q-10 6 -16 18t-7 15q-2 3 -5 6t-6 5t-6 6t-3 10q0 5 -2 7q-29 61 -25 110l6 21l-2 26q0 6 5 14q9 15 9 25q0 9 10 20t14 20q5 9 10 17q4 7 26 22q22 16 32 24q14 13 29 17q15 5 29 19q14 13 28 13l13 -2q45 0 56 7
t15 7h8l27 6l46 2h65q20 -2 22 0q2 1 18 17q15 16 16 26t-10 30t-25 19h-17l-37 13l-24 -2l-29 4q-70 -10 -72 -10l-22 -9q-8 -4 -28 -9t-30 -10t-26 -10t-29 13q-14 18 -17 37t-12 27q-8 8 -10 12zM313 145h9q4 0 7 -1q38 -13 77 -8q40 5 55 14q92 18 104 47q2 2 4 30l4 31
l-4 43q-2 39 -4 41q-12 18 -45 14l-41 -8l-30 2q-3 -2 -9 -4t-10 -4t-8 -3t-11 0t-12 1l-20 -8q-143 -39 -115 -123q11 -48 41 -63q4 -1 8 -1zM309 891h2q1 2 9 14q8 13 10 15t10 21t15 26q7 8 7 10t3 5q2 3 5 9t6 8q3 3 5 9t7 12t8 11t5 9q1 4 5 8q5 6 13 25t14 25
q5 6 6 11t3 8q6 9 10 20t35 12q31 2 42 5t13 -2q3 -5 41 -4t38 -1q0 -24 -23 -47q-4 -6 -8 -19t-19 -31q-14 -16 -16 -20t-3 -7t-4 -7t-14 -24q-12 -20 -16 -25t-12 -17l-14 -21t-12 -17q-5 -8 -9 -11l4 2q-8 -10 -11 -13t-7 -11q-4 -9 -7 -11q-4 -2 -8 -7t-8 -3t-17 3
t-19 4t-15 0q-10 -3 -15 -1t-12 2l-28 -4q-20 0 -25 3q-4 3 1 13t5 13z" />
    <glyph glyph-name="acircumflex" unicode="&#xe2;" horiz-adv-x="843" 
d="M182 631l-4 49q0 12 25 23t30 11h14q9 -1 11 1t10 6t21 3q12 -1 23 4t22 9l28 -2q30 2 48 5t28 -1t17 -4l17 2l20 -2l19 2l32 -10h7q16 -2 48 -18q4 0 14 1t15 -6q13 -24 26 -24q5 -4 13 -9t17 -17t10 -13q1 -2 6 -8t7 -13q2 -6 2 -10q1 -4 5 -9q6 -8 6 -16t6 -23t3 -55
t-3 -46l4 -49l-6 -31q0 -19 8 -47q5 -46 -4 -86l2 -27l-4 -33q0 -6 4 -82l-4 -30l2 -25l4 -16q4 -27 -24 -35q-5 -2 -21 -1t-20 1l-37 -4q-3 -2 -11 0t-10 2h-9l-56 22q-20 -10 -38 -13q-25 -4 -35 -13q-10 -8 -19 -8q-3 -4 -21 -2t-22 2l-25 -6l-29 4h-8l-53 4
q-44 0 -60 13q-23 19 -36 19q-12 0 -19 10q-10 13 -20 18q-10 6 -16 18t-7 15q-2 3 -5 6t-6 5t-6 6t-3 10q0 5 -2 7q-29 61 -25 110l6 21l-2 26q0 6 5 14q9 15 9 25q0 9 10 20t14 20q5 9 10 17q4 7 26 22q22 16 32 24q14 13 29 17q15 5 29 19q14 13 28 13l13 -2q45 0 56 7
t15 7h8l27 6l46 2h65q20 -2 22 0q2 1 18 17q15 16 16 26t-10 30t-25 19h-17l-37 13l-24 -2l-29 4q-70 -10 -72 -10l-22 -9q-8 -4 -28 -9t-30 -10t-26 -10t-29 13q-14 18 -17 37t-12 27q-8 8 -10 12zM313 145h9q4 0 7 -1q38 -13 77 -8q40 5 55 14q92 18 104 47q2 2 4 30l4 31
l-4 43q-2 39 -4 41q-12 18 -45 14l-41 -8l-30 2q-3 -2 -9 -4t-10 -4t-8 -3t-11 0t-12 1l-20 -8q-143 -39 -115 -123q11 -48 41 -63q4 -1 8 -1zM625 975q0 -2 3 -6q3 -3 9 -15t7 -13t6 -11t7 -12q1 -2 9 -16t10 -15l2 2q2 -5 7 -15t0 -12t-17 -2t-22 1q-9 1 -14 2
q-6 1 -12 -2t-15 2t-14 0t-13 -5t-15 -1q-6 -1 -10 -2t-7 4t-7 7q-5 2 -9 10t-8 14q-4 4 -8 10t-8 11q-4 3 -10 13q-10 16 -25 37q-15 20 -20 47q-9 -9 -27 -45q-6 -7 -13 -19t-19 -27t-17 -22l4 4q-6 -10 -9 -13q-4 -4 -8 -12t-8 -10t-8 -7t-8 -3t-18 2t-18 4q-5 4 -15 1
q-9 -3 -15 -1t-11 2l-28 -4q-49 0 -16 27q2 4 9 16t7 14q15 15 15 25l20 33l21 39q8 10 11 15t8 12t12 21q6 14 16 30t10 22q10 5 10 23q16 16 97 11t83 -9q2 -5 3 -9q2 -4 3 -8t3 -7t4 -7t5 -9l9 -15q7 -12 10 -24t19 -28q2 -6 9 -15t10 -16l6 -12t5 -8t3 -4z" />
    <glyph glyph-name="adieresis" unicode="&#xe4;" horiz-adv-x="845" 
d="M182 631l-4 49q0 12 25 23t30 11h14q9 -1 11 1t10 6t21 3q12 -1 23 4t22 9l28 -2q30 2 48 5t28 -1t17 -4l17 2l20 -2l19 2l32 -10h7q16 -2 48 -18q4 0 14 1t15 -6q13 -24 26 -24q5 -4 13 -9t17 -17t10 -13q1 -2 6 -8t7 -13q2 -6 2 -10q1 -4 5 -9q6 -8 6 -16t6 -23t3 -55
t-3 -46l4 -49l-6 -31q0 -19 8 -47q5 -46 -4 -86l2 -27l-4 -33q0 -6 4 -82l-4 -30l2 -25l4 -16q4 -27 -24 -35q-5 -2 -21 -1t-20 1l-37 -4q-3 -2 -11 0t-10 2h-9l-56 22q-20 -10 -38 -13q-25 -4 -35 -13q-10 -8 -19 -8q-3 -4 -21 -2t-22 2l-25 -6l-29 4h-8l-53 4
q-44 0 -60 13q-23 19 -36 19q-12 0 -19 10q-10 13 -20 18q-10 6 -16 18t-7 15q-2 3 -5 6t-6 5t-6 6t-3 10q0 5 -2 7q-29 61 -25 110l6 21l-2 26q0 6 5 14q9 15 9 25q0 9 10 20t14 20q5 9 10 17q4 7 26 22q22 16 32 24q14 13 29 17q15 5 29 19q14 13 28 13l13 -2q45 0 56 7
t15 7h8l27 6l46 2h65q20 -2 22 0q2 1 18 17q15 16 16 26t-10 30t-25 19h-17l-37 13l-24 -2l-29 4q-70 -10 -72 -10l-22 -9q-8 -4 -28 -9t-30 -10t-26 -10t-29 13q-14 18 -17 37t-12 27q-8 8 -10 12zM313 145h9q4 0 7 -1q38 -13 77 -8q40 5 55 14q92 18 104 47q2 2 4 30l4 31
l-4 43q-2 39 -4 41q-12 18 -45 14l-41 -8l-30 2q-3 -2 -9 -4t-10 -4t-8 -3t-11 0t-12 1l-20 -8q-143 -39 -115 -123q11 -48 41 -63q4 -1 8 -1zM557 1071h21l18 -6q44 -7 39 -45q0 -6 -3 -12t-2 -10l2 -8q1 -3 2 -7t1 -6q0 -1 -1 -15t-3 -43t-11 -40q-8 -9 -22 -13t-42 -1
t-38 0q-12 -3 -20 -3t-20 10q-18 16 -16 41q1 25 -3 58l-6 33l6 26q4 23 8 29q15 16 29 11t18 -5t10 3t10 4q3 1 9 0t14 -1zM260 1065q4 0 10 3t10 4q3 1 9 0q7 -1 21 -1h14l18 -6q44 -7 39 -45l-4 -23l4 -20q0 -1 -1 -15t-3 -43t-11 -40q-8 -9 -22 -13t-42 -1t-38 0
q-12 -3 -20 -3t-20 10q-18 16 -16 41q1 25 -3 58l-6 33l6 26q4 23 8 29q15 16 29 11t18 -5z" />
    <glyph glyph-name="ccedilla" unicode="&#xe7;" horiz-adv-x="876" 
d="M508 -70q-41 12 -41 16q0 5 2 9v2q0 4 6 10q0 9 -13 7q-56 -6 -73 2q-16 7 -52 19t-46 24q-9 12 -13 14t-9 3q-6 1 -17 8t-20 8t-13 7q-4 5 -6 9t-5 8t-14 15t-20 23t-14 26q-6 14 -12 18t-9 8q-2 4 -4 16t-4 18t-6 10q-4 5 -8 13q-4 9 -4 17t-5 17t-10 75l-4 22l8 58
l-2 20q3 38 16 70t15 46q2 15 4 21l19 23q27 37 38 49q11 11 19 23t13 16t9 5q5 1 9 3t8 3t9 7t8 8t13 5q17 4 56 26q2 1 26 7t35 12l23 -4q16 4 46 4t45 -2t25 -3t20 -8q10 -6 19 -6t12 -1t6 -3t6 -5t6 -5t8 -2t9 -1t8 -5q6 -5 25 -11t39 -34q20 -27 29 -33q50 -31 45 -59
q-4 -12 -16 -24t-19 -18q-6 -8 -10 -10t-13 -7t-20 -14t-13 -11l-9 -6q-28 -21 -52 6l-18 28q-4 8 -24 25q-19 16 -24 21t-15 7q-11 3 -20 9t-21 10l-29 -4q-2 -2 -10 0q-33 8 -93 -21q-4 0 -13 -9t-23 -17q-14 -9 -20 -17t-28 -70t-12 -114l8 -25q2 -4 -1 -20t14 -33
q20 -47 29 -58t34 -24q24 -13 31 -23q7 -9 22 -9q2 -2 20 -10q31 -14 73 10q43 0 62 13q18 13 22 15l8 4t10 10t8 12q2 3 8 6t25 23q0 5 10 15q11 10 21 14t26 -10t24 -18q9 -4 12 -7q3 -2 9 -9t22 -18q17 -10 21 -20t-2 -28t-13 -26t-15 -11q-8 -5 -14 -9t-10 -15
q-5 -11 -9 -17q-19 -10 -31 -22t-18 -15q-6 -4 -22 -10q-16 -5 -22 -9q-4 -4 -10 -8t-15 -7t-11 -5t-8 -2l-15 -4q-20 0 -20 -8v-2q-2 -2 0 -4t1 -4q0 -4 20 -24t20 -26l10 -34v-11q0 -4 1 -14t-7 -49q-6 -6 -6 -13l-6 -10l-23 -26q0 -5 -5 -5h-3q-6 -6 -9 -6h-5q0 -6 -7 -6
q-19 -14 -36 -14l-31 2q-10 0 -14 4h-15l-37 16q-6 0 -12 9q-5 3 -8 7q-2 5 -14 13t-5 18l11 7q8 8 11 9t10 7t26 -14q6 -3 9 -12q4 -9 20 -9t24 -3t17 1t13 4l27 19l13 23v11q2 7 4 7q2 18 -6 40t-23 29l-2 2q-4 2 -4 4z" />
    <glyph glyph-name="egrave" unicode="&#xe8;" horiz-adv-x="915" 
d="M92 324l2 22l-2 51q8 24 11 59q3 36 5 44t13 22q10 14 12 20t3 11q1 6 2 9t4 6q8 8 12 19t11 16t9 9q51 72 101 93q30 9 50 18q19 10 34 10t61 17q4 0 29 -5l26 3q22 0 43 -7h25l18 -10q24 0 46 -13q21 -13 37 -19q18 -7 24 -11t9 -11t5 -9t7 -4t8 -4t6 -8q6 -9 16 -17
q11 -7 15 -21t14 -22q9 -8 12 -19q6 -17 18 -26q12 -10 23 -72l6 -20l2 -20l8 -39l-4 -36q0 -10 2 -20t-6 -21q-16 -16 -29 -10l-15 10l-20 -8l-24 4l-25 -4l-28 8l-50 -8l-20 6l-57 -6q-17 2 -92 2l-14 2h-5l-33 -4l-15 2h-42l-29 -4q-6 0 -17 4q-10 4 -18 2
q-13 -3 -25 -15q-11 -12 -1 -33t25 -36t17 -25q3 -10 18 -23q16 -13 27 -16t29 -15q30 -21 56 -21h22l43 -6q1 2 7 3t11 3t29 7q60 12 82 34q34 21 50 38t37 7q21 -11 26 -23q6 -12 9 -14t8 -3q6 -1 8 -3t6 -5t6 -5t14 -6t16 -24q5 -18 1 -26t-37 -30q-39 -39 -56 -43
q-17 -5 -32 -17l-21 -2q-4 -2 -26 -14t-60 -18h-20l-33 -9l-55 9q-48 0 -80 4l-25 8l-22 2q-4 2 -12 7t-11 7q-4 2 -18 5q-20 4 -31 17t-30 25q-19 11 -24 17t-10 15q-4 9 -8 11t-8 6t-10 9q-6 6 -11 14t-10 11t-15 20q-9 18 -9 29q0 15 -13 31q-12 15 -18 102zM334 442
q33 11 39 11l41 -11l28 4l20 -4l21 2q13 -4 23 0t21 3t20 -1l16 -6h33l16 4q10 -2 16 -1t5 27q-2 26 -13 35q-10 9 -12 12t-4 9t-5 10t-8 9q-5 4 -12 8q-13 7 -29 23q-15 15 -38 20l-20 -2q-42 8 -46 8q-44 -7 -54 -16q-11 -9 -28 -10t-23 -12q-6 -10 -24 -27t-23 -25
q-4 -8 -12 -26t-14 -29q-6 -10 2 -17q8 -6 41 4zM530 977q0 -2 6 -8t16 -27q9 -20 10 -26t16 -20v-1l10 -25q0 -10 -28 -6t-34 1t-16 0t-15 0t-19 -4t-17 -3q-4 -2 -8 3q-3 5 -7 7t-8 10t-7 12q-3 3 -11 13l4 -2q-6 6 -21 29t-22 32q-8 9 -20 29q-11 21 -14 25t-4 7t-11 18
t-16 21t-11 19q-4 12 -16 26t-15 40q0 2 38 1t40 4t17 1q16 -4 51 -4q22 -8 23 -11q5 -16 9 -20q3 -4 4 -9t5 -9q6 -6 17 -32t23 -40q11 -14 13 -20t5 -8t6 -9q3 -6 5 -9t2 -5zM578 899q0 2 2 0q4 -8 2 -8q-1 1 -4 5v3z" />
    <glyph glyph-name="eacute" unicode="&#xe9;" horiz-adv-x="915" 
d="M92 324l2 22l-2 51q8 24 11 59q3 36 5 44t13 22q10 14 12 20t3 11q1 6 2 9t4 6q8 8 12 19t11 16t9 9q51 72 101 93q30 9 50 18q19 10 34 10t61 17q4 0 29 -5l26 3q22 0 43 -7h25l18 -10q24 0 46 -13q21 -13 37 -19q18 -7 24 -11t9 -11t5 -9t7 -4t8 -4t6 -8q6 -9 16 -17
q11 -7 15 -21t14 -22q9 -8 12 -19q6 -17 18 -26q12 -10 23 -72l6 -20l2 -20l8 -39l-4 -36q0 -10 2 -20t-6 -21q-16 -16 -29 -10l-15 10l-20 -8l-24 4l-25 -4l-28 8l-50 -8l-20 6l-57 -6q-17 2 -92 2l-14 2h-5l-33 -4l-15 2h-42l-29 -4q-6 0 -17 4q-10 4 -18 2
q-13 -3 -25 -15q-11 -12 -1 -33t25 -36t17 -25q3 -10 18 -23q16 -13 27 -16t29 -15q30 -21 56 -21h22l43 -6q1 2 7 3t11 3t29 7q60 12 82 34q34 21 50 38t37 7q21 -11 26 -23q6 -12 9 -14t8 -3q6 -1 8 -3t6 -5t6 -5t14 -6t16 -24q5 -18 1 -26t-37 -30q-39 -39 -56 -43
q-17 -5 -32 -17l-21 -2q-4 -2 -26 -14t-60 -18h-20l-33 -9l-55 9q-48 0 -80 4l-25 8l-22 2q-4 2 -12 7t-11 7q-4 2 -18 5q-20 4 -31 17t-30 25q-19 11 -24 17t-10 15q-4 9 -8 11t-8 6t-10 9q-6 6 -11 14t-10 11t-15 20q-9 18 -9 29q0 15 -13 31q-12 15 -18 102zM334 442
q33 11 39 11l41 -11l28 4l20 -4l21 2q13 -4 23 0t21 3t20 -1l16 -6h33l16 4q10 -2 16 -1t5 27q-2 26 -13 35q-10 9 -12 12t-4 9t-5 10t-8 9q-5 4 -12 8q-13 7 -29 23q-15 15 -38 20l-20 -2q-42 8 -46 8q-44 -7 -54 -16q-11 -9 -28 -10t-23 -12q-6 -10 -24 -27t-23 -25
q-4 -8 -12 -26t-14 -29q-6 -10 2 -17q8 -6 41 4zM389 977q0 2 2 5t5 9t6 8q4 3 6 9t7 12t8 11t5 9t5 8q5 7 12 24t14 25q6 7 7 12t3 8q4 6 8 18t36 14t42 5t13 -2t41 -4t38 -1q0 -25 -22 -47q-5 -6 -9 -18t-18 -30q-14 -16 -16 -23q-3 -7 -7 -12t-15 -25t-17 -27
q-6 -6 -18 -25q-13 -20 -19 -28t-8 -11l4 2q-8 -10 -13 -12q-10 -21 -13 -23t-7 -7t-8 -3q-3 2 -17 3t-19 4t-15 0t-16 -1t-11 2l-29 -4q-23 0 -25 5t3 12q4 8 4 12h2q18 18 18 29q2 2 8 13q5 11 7 13t4 6t3 7t4 7t5 7q2 2 2 4z" />
    <glyph glyph-name="ecircumflex" unicode="&#xea;" horiz-adv-x="913" 
d="M334 442q33 11 39 11l41 -11l28 4l20 -4l21 2q13 -4 23 0t21 3t20 -1l16 -6h33l16 4q10 -2 16 -1t5 27q-2 26 -13 35q-10 9 -12 12t-4 9t-5 10t-8 9q-5 4 -12 8q-13 7 -29 23q-15 15 -38 20l-20 -2q-42 8 -46 8q-44 -7 -54 -16q-11 -9 -28 -10t-23 -12q-6 -10 -24 -27
t-23 -25q-4 -8 -12 -26t-14 -29q-6 -10 2 -17q8 -6 41 4zM92 324l2 22l-2 51q8 24 11 59q3 36 5 44t13 22q10 14 12 20t3 11q1 6 2 9t4 6q8 8 12 19t11 16t9 9q51 72 101 93q30 9 50 18q19 10 34 10t61 17q4 0 29 -5l26 3q22 0 43 -7h25l18 -10q24 0 46 -13q21 -13 37 -19
q18 -7 24 -11t9 -11t5 -9t7 -4t8 -4t6 -8q6 -9 16 -17q11 -7 15 -21t14 -22q9 -8 12 -19q6 -17 18 -26q12 -10 23 -72l6 -20l2 -20l8 -39l-4 -36q0 -10 2 -20t-6 -21q-16 -16 -29 -10l-15 10l-20 -8l-24 4l-25 -4l-28 8l-50 -8l-20 6l-57 -6q-17 2 -92 2l-14 2h-5l-33 -4
l-15 2h-42l-29 -4q-6 0 -17 4q-10 4 -18 2q-13 -3 -25 -15q-11 -12 -1 -33t25 -36t17 -25q3 -10 18 -23q16 -13 27 -16t29 -15q30 -21 56 -21h22l43 -6q1 2 7 3t11 3t29 7q60 12 82 34q34 21 50 38t37 7q21 -11 26 -23q6 -12 9 -14t8 -3q6 -1 8 -3t6 -5t6 -5t14 -6t16 -24
q5 -18 1 -26t-37 -30q-39 -39 -56 -43q-17 -5 -32 -17l-21 -2q-4 -2 -26 -14t-60 -18h-20l-33 -9l-55 9q-48 0 -80 4l-25 8l-22 2q-4 2 -12 7t-11 7q-4 2 -18 5q-20 4 -31 17t-30 25q-19 11 -24 17t-10 15q-4 9 -8 11t-8 6t-10 9q-6 6 -11 14t-10 11t-15 20q-9 18 -9 29
q0 15 -13 31q-12 15 -18 102zM633 975q0 -2 3 -6q3 -3 9 -15t7 -13t6 -11q6 -10 8 -12t9 -16t9 -15l2 2q2 -5 7 -15t0 -12t-17 -2t-22 1t-14 2q-5 1 -11 -2t-16 1t-14 1q-3 -3 -8 -4t-9 -1t-10 -1t-11 -2q-4 -1 -7 4t-7 7t-8 10t-9 13q-5 4 -27 37q-21 32 -30 43t-14 39
q-9 -9 -27 -45q-6 -7 -13 -19t-19 -27t-17 -22l4 4q-6 -10 -9 -13q-3 -4 -7 -12q-5 -8 -9 -10t-8 -7t-7 -4t-17 3t-20 5t-15 0q-10 -3 -15 -1t-11 2l-27 -4q-49 0 -17 27q2 4 9 16l16 27q6 10 6 12l20 33l21 39q16 20 20 28q3 8 7 12t6 12q2 7 13 25t11 23q7 4 11 23
q2 2 22 10q4 0 80 1t76 -9q6 -11 7 -16t3 -8t4 -7t5 -9l9 -15l7 -14q2 -3 3 -7t3 -7t10 -16t13 -21q5 -7 8 -12t5 -9t6 -9q3 -6 5 -8t2 -4z" />
    <glyph glyph-name="edieresis" unicode="&#xeb;" horiz-adv-x="917" 
d="M94 324l2 22l-2 51q8 24 11 59q3 36 5 44t13 22q13 18 15 29t9 21t9 16t4 9t8 7t8 8q53 75 92 88q38 13 58 23t35 10t61 17q4 0 29 -5l26 3q22 0 43 -7h25l18 -10q29 0 41 -9t20 -13q9 -5 18 -9t16 -7l12 -6t9 -10q4 -10 12 -13t13 -10t7 -10t8 -7t10 -8t6 -11
q5 -18 14 -26q9 -9 13 -19q6 -17 18 -26q12 -10 23 -72l6 -20q0 -24 5 -38q5 -13 5 -21l-4 -36q0 -10 2 -20t-6 -21q-16 -16 -29 -10l-15 10l-19 -8l-25 4l-25 -4l-28 8l-49 -8q-9 0 -21 6l-57 -6h-5q-12 2 -87 2l-19 2l-33 -4l-22 2h-35l-29 -4q-6 0 -17 4q-10 4 -18 2
q-13 -3 -25 -15q-11 -12 -1 -33t14 -25t7 -8t7 -7l7 -7q6 -9 8 -17t17 -19q16 -12 21 -14t11 -4t24 -14q30 -21 56 -21h22l43 -6q16 8 44 13q62 11 85 34q34 21 47 35t21 15t24 -7t22 -22t14 -16q8 -1 10 -3t6 -5t6 -5t10 -5t13 -7q19 -25 6 -48q-2 -4 -35 -26
q-38 -38 -56 -44q-17 -5 -32 -16l-21 -2q-4 -2 -26 -14t-60 -18h-20l-33 -9l-55 9q-48 0 -80 4l-25 8l-22 2q-4 2 -11 7t-11 7t-19 5q-20 4 -31 17t-30 25q-19 11 -24 17t-10 15q-4 9 -8 11t-8 6t-10 8q-6 5 -8 9t-5 8t-5 8q-6 0 -16 19q-11 19 -11 31q0 15 -13 31
q-12 15 -18 102zM336 442q33 11 40 11l40 -11l28 4l20 -4l21 2q14 -4 24 0q9 4 20 3t20 -1l16 -6h33l16 4q12 -2 18 -1q5 1 3 26t-13 35q-10 10 -12 13t-4 9t-4 10q-5 9 -19 15q-13 7 -30 24t-39 21l-20 -2q-41 8 -45 8q-45 -7 -55 -16q-11 -9 -28 -10t-23 -12
q-6 -10 -24 -27t-23 -25t-12 -26t-14 -29q-7 -10 1 -17q9 -6 42 4zM551 1065q4 0 12 4t16 3q7 -1 21 -1h14l19 -6q44 -7 39 -45q0 -6 -3 -12t-2 -10l2 -8q1 -3 2 -7t1 -6q0 -1 -1 -15t-3 -43t-11 -40q-10 -9 -23 -13t-40 -1t-36 0t-20 -3t-23 10q-18 16 -16 41q1 25 -3 58
l-7 33l7 26q4 23 8 29q16 16 30 11t17 -5zM297 1065q4 0 12 4t16 3q7 -1 9 -1h26l19 -6q44 -7 39 -45l-4 -23l4 -20q0 -1 -1 -15t-3 -43t-11 -40q-10 -9 -23 -13t-41 -1t-39 0t-19 -3t-20 10q-18 16 -16 41q1 25 -3 58l-6 33l6 26q4 23 8 29q16 16 30 11t17 -5z" />
    <glyph glyph-name="igrave" unicode="&#xec;" horiz-adv-x="473" 
d="M296 715h13q17 0 23 -4q17 -10 4 -88v-39l2 -31l-6 -55q6 -30 6 -74l-4 -59v-11l2 -10l-2 -98q0 -29 6 -41v-39l4 -39l-4 -28q0 -5 5 -30t-12 -44t-29 -21t-23 2q-10 4 -17 4l-24 -2q-54 -7 -70 21q-6 10 -4 43v57q8 16 8 25l-6 20q-2 4 -1 12t1 15l2 26l-4 41l2 20
l-2 21l6 72q0 35 -8 63l2 29l4 29v53l-6 25l2 26q0 4 -5 30t1 58q16 27 59 23q6 -6 25 -6l33 6q2 2 8 0t9 -2zM240 1139l14 -29q0 -4 4 -9t10 -15t8 -18q2 -7 4 -11t6 -8q3 -4 6 -11t10 -16q7 -8 10 -14t5 -8q3 -2 5 -8q2 -5 5 -9t3 -6l18 -31q2 -2 7 -13t7 -13t8 -11t7 -12
v-2l10 -25q0 -10 -28 -6q-27 4 -33 1t-16 0t-14 0q-6 -3 -20 -4t-18 -3t-7 3t-7 7t-8 10t-8 12q-4 3 -11 13l4 -2q-2 4 -8 11t-16 23t-19 26q-8 10 -19 30q-11 21 -15 25t-4 7q-1 3 -17 25q-16 21 -20 33q-5 12 -18 30t-13 36q2 2 39 1t39 4t17 1t50 -4q23 -8 23 -10z
M377 899q0 2 2 0q4 -8 2 -8q-1 1 -4 6v2z" />
    <glyph glyph-name="iacute" unicode="&#xed;" horiz-adv-x="479" 
d="M258 715h17q8 0 19 -6t1 -86v-70l-4 -55l6 -74q-6 -30 -6 -59l4 -21l-2 -98l4 -41v-39l4 -39q0 -4 -2 -13q-2 -10 1 -26t2 -34t-15 -34q-15 -14 -27 -16t-22 2t-17 4l-22 -2q-56 -6 -72 21q-4 10 -4 43l2 57l8 25l-8 20v12l2 28v13l-4 41l4 20l-2 21l6 72l-8 63
q-2 10 1 32t3 28v51q2 6 -2 13t-4 12l2 26q0 4 -5 31t3 57q16 27 57 23q12 -6 25 -6l35 6q2 2 8 0t12 -2zM145 979q0 2 2 4q1 2 5 8t7 9q3 4 5 10t8 13q13 16 27 44t18 33q4 6 5 10t3 8l5 10t6 13l22 10q4 -2 41 2l23 2q4 0 5 -4t39 -2t38 -4q0 -5 -5 -19q-6 -14 -14 -21
t-12 -21t-19 -32q-15 -19 -30 -48q-15 -28 -21 -34q-6 -8 -14 -20t-19 -26t-16 -22q-6 -8 -8 -10t-6 -11t-8 -11t-7 -7q-4 -5 -8 -4t-18 3t-19 5q-4 3 -14 -1t-15 -1t-12 3l-28 -4q-20 0 -25 2q-4 2 1 12t5 15l2 -2q13 13 20 31t16 32t12 18q3 5 3 7z" />
    <glyph glyph-name="icircumflex" unicode="&#xee;" horiz-adv-x="622" 
d="M349 715h13q18 0 28 -6t5 -47q-6 -41 -6 -78l2 -31l-4 -55l4 -74l-4 -59q0 -2 2 -11v-10l-2 -98l6 -41v-39l4 -39q0 -4 -2 -13q-2 -8 -1 -14q10 -54 -8 -74t-30 -22t-22 2t-17 4l-22 -2q-53 -6 -72 21q-4 10 -4 43l2 57l8 25q-8 16 -8 24v23l2 26l-4 41q0 11 2 17t0 13
t0 11l6 72q0 12 -6 43t-2 51q4 19 4 27v53q2 6 -2 13t-4 12l2 26q0 4 -5 31t3 57q16 27 57 23q12 -6 25 -6l33 6q4 2 8 0t9 -2zM428 856q-8 0 -13 -2t-8 3t-8 7t-13 19t-26 35q-10 14 -17 26t-17 25t-15 37l-2 -2q-19 -38 -23 -42t-14 -18q-8 -14 -14 -22l-12 -16
q-6 -7 -8 -11l4 2q-8 -10 -12 -13q-4 -4 -7 -12q-4 -8 -8 -10t-7 -6t-7 -3q-5 1 -19 2t-19 4t-15 0t-15 -1q-6 2 -11 2l-28 -4q-49 0 -16 29q2 2 9 14t9 14q2 3 7 13t8 12l18 33q0 2 2 5t5 9t7 10t5 8q0 5 6 11t8 11t4 8t4 5q6 6 12 24t14 27q9 9 10 14q2 5 4 9t9 21
q0 12 84 12t94 -10q0 -16 11 -23q0 -8 5 -14t11 -18t8 -17q2 -6 5 -10q3 -5 7 -13t8 -13t13 -15l20 -39l21 -33q0 -4 7 -16t14 -23q7 -12 10 -16l4 2q0 -5 5 -15t1 -12t-27 -2l-27 4q-5 0 -11 -2t-8 -1q-3 1 -11 3t-11 -1q-4 -3 -10 -4t-14 -1z" />
    <glyph glyph-name="idieresis" unicode="&#xef;" horiz-adv-x="589" 
d="M338 715h17q12 0 17 -4q15 -12 3 -88v-39l2 -31l-6 -55l6 -74l-4 -59v-11l2 -10l-2 -98l4 -41q2 -5 1 -19t1 -21t2 -38l-2 -28l4 -48q-2 -16 -19 -35t-37 -13q-20 7 -24 7l-24 -2q-33 -4 -51 5t-21 17q-4 8 -2 42v57q8 16 8 25l-6 20q-2 4 -2 12l4 41l-4 41l2 20l-2 21
l6 72l-8 63q0 46 6 58v53l-6 25q-2 4 0 13t2 13t-5 30t1 58q16 27 59 23q2 -2 5 -2l20 -4l32 6q2 2 9 0q6 -2 12 -2zM387 1065q5 0 11 3t9 4t9 0t8 -1h27l18 -6q44 -7 39 -45l-4 -23l4 -20q0 -1 -1 -15t-3 -43t-11 -40q-9 -9 -23 -13t-40 -1q-28 3 -40 0t-19 -3q-8 0 -20 10
q-18 16 -16 41q1 25 -3 58l-6 33l6 26q4 23 8 29q16 16 24 13t14 -5q5 -2 9 -2zM254 977q0 -1 -1 -15t-3 -43t-11 -40q-9 -9 -23 -13t-40 -1q-28 3 -40 0t-19 -3q-8 0 -20 10q-18 16 -16 41q1 25 -3 58l-6 33l6 26q4 23 8 29q16 16 30 11t18 -5t20 8l16 -2h27l18 -6
q44 -7 39 -45q0 -6 -3 -12t-2 -10l2 -8q1 -3 2 -7t1 -6z" />
    <glyph glyph-name="ocircumflex" unicode="&#xf4;" horiz-adv-x="925" 
d="M471 754h32q13 0 21 -4t16 -4q8 1 9 -1l22 -6q3 -2 9 -1t12 -2t10 -6t18 -7q19 -6 34 -21q15 -14 31 -24t19 -11t10 -3t11 -6q5 -5 9 -22q5 -16 19 -19q11 -2 11 -15q0 -14 3 -20l5 -10t6 -11q4 -5 14 -27t16 -54t13 -50q6 -17 4 -61q-2 -43 -2 -85t-20 -83q0 -7 -6 -14
t-7 -14q-3 -19 -15 -31q-13 -13 -31 -38t-26 -34q-7 -8 -12 -16t-13 -14q-8 -7 -17 -12q-8 -4 -12 -8t-8 -7t-12 -12q-9 -9 -26 -12q-18 -3 -25 -2t-9 -1l-23 -9q-4 0 -10 1t-9 0t-8 -4q-11 -7 -22 -1t-20 -1t-13 -7l-16 4l-19 -4q-12 0 -18 6l-49 6h-10l-23 7q-23 0 -39 10
t-27 12q-10 2 -13 4t-7 4t-9 8t-9 11q-4 6 -8 9t-20 12q-14 10 -20 16t-8 12t-8 16t-12 18t-10 11q-4 5 -9 15l-12 24q-13 13 -15 26q-2 12 -8 36t-8 31t-1 17t1 15l-8 24q-2 18 0 62l-2 20l4 25q2 6 1 18t0 20t8 22q7 15 24 63t50 80q34 31 38 38q8 12 17 14q10 2 15 10
q5 9 9 11t11 4t11 4t15 11q9 8 17 11t15 3t31 12l35 2q10 3 32 7t32 4zM458 592h-20q-2 -2 -26 -10t-34 -9q-8 0 -24 -16q-16 -10 -43 -39q-4 0 -14 -10q-4 -8 -10 -24t-18 -44q-12 -27 -9 -79q2 -52 4 -61t2 -15l2 -23q2 -2 5 -6t7 -7t4 -7q1 -4 4 -10t5 -14q2 -9 33 -43
t55 -34q47 -18 53 -19t13 2q9 4 22 -2q20 -8 41 5q21 12 36 13t23 13q7 11 11 13q42 24 53 67q2 8 2 13q11 11 18 35v45l4 18v18l-6 52q-5 54 -16 65q-10 10 -10 15q-5 2 -9 14t-10 16t-9 7l-5 5t-9 8q-7 7 -13 9t-10 4q-3 2 -7 7t-7 7q-3 3 -29 13t-36 9t-23 -1zM633 965
q0 -2 3 -6q3 -3 9 -15t7 -13t6 -11q6 -10 8 -12t9 -16q7 -13 9 -15l2 2q2 -5 7 -15t0 -12t-17 -2t-22 1t-14 2q-5 1 -11 -2t-16 1t-15 0q-4 -4 -18 -5t-18 -2t-8 4q-3 5 -7 7t-8 10q-3 8 -7 12t-13 16q-9 13 -15 21l-14 21t-17 23t-14 38q-1 -1 -13 -21l-16 -24t-11 -18
t-13 -20t-13 -16q-6 -7 -10 -13l4 4q-6 -9 -9 -13t-7 -12q-5 -8 -9 -10t-8 -7t-7 -4t-17 3t-20 5t-15 0q-10 -3 -15 -1t-11 2l-27 -4q-49 0 -17 26q2 4 9 16l16 28q6 10 6 12l41 71q15 18 19 28q5 9 9 13q3 4 6 14t13 25q10 14 10 21q6 3 11 22q2 2 22 11q4 0 80 1t76 -10
q6 -12 7 -16t3 -7t4 -7t10 -18t12 -22q3 -9 11 -23q8 -13 15 -23t10 -16t5 -8l6 -9q3 -6 5 -8t2 -4z" />
    <glyph glyph-name="odieresis" unicode="&#xf6;" horiz-adv-x="929" 
d="M473 752h32q13 0 21 -4t16 -4q8 1 9 -1l22 -6q3 -2 9 -1t12 -2t10 -6t11 -5q23 -7 40 -22t32 -25q16 -10 19 -11t10 -3t11 -6q5 -5 9 -22q5 -16 19 -19q11 -2 11 -15q0 -21 17 -43t25 -67q9 -45 15 -62t4 -61q-2 -43 -2 -85t-20 -83q0 -4 -2 -6q-2 -1 -4 -5t-4 -7t-3 -10
q-2 -7 -4 -12q-3 -5 -11 -17q-9 -11 -11 -13q-2 -1 -18 -23t-23 -31q-8 -9 -16 -23t-37 -29q-32 -32 -66 -37q-4 -2 -11 -1t-9 -1l-23 -9q-4 0 -10 1t-9 0t-8 -4q-6 -3 -10 -4t-12 3t-12 3t-10 -6t-11 -5l-16 4l-19 -4q-12 0 -18 6l-49 6h-10l-32 9h-10q-7 0 -21 8t-31 13
t-27 19q-11 14 -32 27t-40 51q-26 26 -35 45q-8 19 -14 27t-7 19q-1 9 -8 33q-6 24 -8 31t-1 17t1 15l-8 24q-2 18 0 62l-2 20l4 25q2 6 1 18t0 20t8 21q6 14 23 63t51 81q34 31 40 41t13 11q8 1 11 3t7 9t8 9t11 4q11 3 25 15q14 11 28 13q13 2 36 13l35 2q10 3 32 7t32 4z
M414 580q-24 -8 -37 -9q-12 0 -64 -55q-4 0 -14 -10q-4 -8 -10 -24t-18 -44q-12 -27 -9 -79q2 -52 4 -61t2 -24t8 -22q8 -8 14 -26q4 -18 16 -29t28 -31q17 -20 26 -21q9 -2 15 -4q7 -2 31 -11t32 -9l23 2l28 -6q10 0 27 10t30 11q17 1 24 12q7 10 12 14q41 21 53 67
q2 8 2 13q11 11 18 35v45l4 18l-6 70q-5 54 -16 65q-10 10 -10 15q-4 2 -9 16t-14 19q-8 5 -10 6t-9 8t-13 10q-7 2 -10 4t-7 7q-10 13 -25 13q-37 17 -47 16t-23 -1h-20q-2 -2 -26 -10zM543 850q-43 0 -40 56q1 20 -3 52l-6 31l6 29q4 23 8 29q16 16 31 12q0 -2 6 -5t10 -3
l20 10l17 -2h26l19 -6q44 -7 39 -45l-4 -23l4 -20q0 -1 -1 -15l-3 -42t-10 -42q-17 -17 -54 -15q-37 3 -41 3zM301 1051q5 0 11 4t9 5t9 0t20 -1h15l18 -6q44 -7 39 -45l-4 -23l4 -20q0 -1 -1 -15l-3 -42t-10 -42q-18 -18 -55 -14t-49 1t-19 -3q-8 0 -20 10q-18 16 -16 41
q1 25 -3 57l-6 31l6 29q4 23 8 29q16 16 31 12q0 -2 6 -5t10 -3z" />
    <glyph glyph-name="oslash" unicode="&#xf8;" horiz-adv-x="954" 
d="M337 -16q-9 0 -19 10q-25 24 -42 -25q-23 -29 -28 -32q-27 -20 -55 -3q-7 2 -20 20q-13 17 -23 21t-13 7q-80 51 14 114q5 4 13 7t8 17t-12 27t-15 17q-2 4 -8 10t-7 17t-8 35t-7 36v27q0 12 -9 24q-2 18 0 62l-2 20q0 16 7 25q0 6 -1 18t1 20t8 22q6 15 22 63t50 80
t39 41q6 9 15 11q10 2 18 12q7 10 17 13q9 2 13 4t15 11q10 8 16 10t14 3t10 3l23 10l37 2l24 6q27 5 38 5l13 -2h30q13 0 23 -4t16 -4q7 1 9 -1l25 -6q2 -2 7 -1q10 2 21 -9q47 -21 54 -14q8 8 10 18t8 25q10 14 36 17t32 -1q8 -4 18 -16t12 -14t19 -10q17 -7 34 -30
q17 -24 16 -34t-14 -20t-18 -13q0 -2 -4 -10t-6 -13q-20 -10 -31 -37q2 -4 17 -24q20 -41 30 -100l11 -39q2 -16 0 -52t-2 -76t-16 -74t-21 -50q-6 -16 -14 -24q-9 -8 -25 -30t-24 -31t-11 -13q-2 -4 -7 -10q-5 -7 -7 -11q-21 -14 -29 -18q-33 -33 -66 -37q-4 -2 -10 -1
t-10 -1l-23 -9q-4 0 -10 1q-8 1 -18 -4q-10 -6 -19 -2q-10 5 -13 4t-10 -6t-11 -5l-15 4l-20 -4q-13 0 -19 6l-49 6h-10l-31 9h-11zM656 259q8 13 10 19t0 22q-2 15 4 42l-6 70q-6 42 -26 9q-5 -8 -9 -14q-4 -5 -7 -11t-9 -8q-6 -3 -15 -13q-12 -14 -36 -46q-40 -54 -77 -93
q-37 -40 -51 -68q-4 -4 -23 -15t-16 -14q4 -14 54 -18q4 -2 11 1q8 4 22 -2q12 -5 20 -4t23 10q18 11 34 12t24 13q8 13 23 20q15 8 26 29q11 20 13 30t3 13t8 16zM471 590h-20q-2 -2 -26 -10t-31 -9q-11 0 -27 -16q-16 -10 -43 -39q-4 0 -13 -11q-8 -11 -9 -17t-5 -13
t-11 -27q-8 -20 -12 -36t-1 -60q3 -45 5 -54q2 -8 0 -22q-1 -14 5 -16q14 5 23 15q8 9 18 19t11 14t4 8t5 8t9 11l11 11t6 12q6 15 17 21q11 5 23 23l16 24t16 16t16 16t8 16q3 9 5 13q4 4 51 43t37 42t-16 3q-39 15 -49 15h-23z" />
    <glyph glyph-name="ugrave" unicode="&#xf9;" horiz-adv-x="874" 
d="M147 731q14 0 52 -4l24 2l23 -6l16 2q10 0 20 -7q10 -6 13 -18q2 -12 -2 -38t-4 -40t4 -22q0 -83 -12 -125l6 -45l-4 -27q0 -122 10 -156t12 -42l25 -47q5 -5 11 -7q5 -1 7 -4l19 -10q4 -4 20 -1t40 1t29 0t11 8q6 5 8 7t10 5q7 3 11 5t9 9t7 9t10 6t10 8t4 9l4 8
q1 4 3 8l26 51q6 21 6 72q6 78 7 86l-9 41q0 29 5 57l4 29q0 2 -5 15t-1 41t2 40l-7 23l4 24q0 35 41 35h17l24 -2q43 -6 61 -3t24 -5t8 -17q2 -8 10 -24l-2 -96q0 -35 -2 -58l-2 -22l2 -62v-30q-4 -38 -4 -52v-28l-4 -41l4 -27q0 -27 -11 -55l11 -53q10 -63 6 -87t-5 -37
t-5 -24q-6 -8 -28 -15t-32 -4t-17 6t-13 3l-23 -10q-41 -14 -64 28q-8 14 -12 15q-8 0 -22 -12q-15 -12 -43 -26q-27 -13 -39 -13l-80 -9q-38 -8 -45 -7t-19 6q-11 6 -33 10t-29 8t-13 10t-10 9t-13 8q-10 5 -14 9t-6 7q-2 4 -5 6q-2 2 -4 6t-4 6t-10 8q-8 7 -11 11t-7 14
t-8 16q-3 6 -4 10t-9 15q-8 10 -12 31q-4 22 -3 38t-1 23l-4 33l4 20q-6 47 -6 54l2 24l-2 68l4 22l-4 21l2 25l-2 24l6 31l-4 24l-5 70q-4 19 -1 49t15 40q13 10 27 9zM236 1147q0 2 38 1t39 4q2 5 17 1q16 -4 51 -4q21 -9 23 -13t7 -13t6 -14t5 -9q6 -6 14 -25t15 -29
l9 -15t8 -11t7 -12t4 -8t6 -9q5 -6 7 -9t2 -5t5 -7t15 -27q10 -23 27 -47v-1l10 -25q0 -10 -28 -6t-34 1t-16 0t-15 0q-4 -3 -18 -4t-18 -3t-8 3t-7 7t-14 23q-4 2 -12 12l4 -2q-2 4 -8 11t-16 23t-19 26q-8 10 -19 30q-11 21 -15 25t-4 7q-1 3 -3 6t-7 10t-11 15
q-5 8 -9 12q-4 3 -8 15t-17 27q-13 16 -13 39zM541 899q0 2 2 0q4 -8 2 -8q-1 1 -4 5v3z" />
    <glyph glyph-name="uacute" unicode="&#xfa;" horiz-adv-x="874" 
d="M147 731q14 0 52 -4l24 2l23 -6l16 2q10 0 20 -7q10 -6 13 -18q2 -12 -2 -38t-4 -40t4 -22q0 -83 -12 -125l6 -45l-4 -27q0 -122 10 -156t12 -42l25 -47q5 -5 11 -7q5 -1 7 -4l19 -10q4 -4 20 -1t40 1t29 0t11 8q6 5 8 7t10 5q7 3 11 5t9 9t7 9t10 6t10 8t4 9l4 8
q1 4 3 8l26 51q6 21 6 72q6 78 7 86l-9 41q0 29 5 57l4 29q0 2 -5 15t-1 41t2 40l-7 23l4 24q0 35 41 35h17l24 -2q43 -6 61 -3t24 -5t8 -17q2 -8 10 -24l-2 -96q0 -35 -2 -58l-2 -22l2 -62v-30q-4 -38 -4 -52v-28l-4 -41l4 -27q0 -27 -11 -55l11 -53q10 -63 6 -87t-5 -37
t-5 -24q-6 -8 -28 -15t-32 -4t-17 6t-13 3l-23 -10q-41 -14 -64 28q-8 14 -12 15q-8 0 -22 -12q-15 -12 -43 -26q-27 -13 -39 -13l-80 -9q-38 -8 -45 -7t-19 6q-11 6 -33 10t-29 8t-13 10t-10 9t-13 8q-10 5 -14 9t-6 7q-2 4 -5 6q-2 2 -4 6t-4 6t-10 8q-8 7 -11 11t-7 14
t-8 16q-3 6 -4 10t-9 15q-8 10 -12 31q-4 22 -3 38t-1 23l-4 33l4 20q-6 47 -6 54l2 24l-2 68l4 22l-4 21l2 25l-2 24l6 31l-4 24l-5 70q-4 19 -1 49t15 40q13 10 27 9zM332 977q0 2 2 5t5 9t7 8q0 1 2 5t3 7t9 14t11 15q2 4 5 8q5 7 13 26t13 24q6 6 7 11t3 8q4 6 8 18
q5 16 94 16q0 -4 38 -3t38 -1q0 -26 -23 -47q-4 -6 -8 -18t-7 -17q-3 -4 -14 -18q-12 -13 -14 -17t-3 -7t-4 -7t-14 -24t-16 -25q-5 -4 -18 -26q-14 -21 -20 -29t-9 -11l4 2q-8 -10 -11 -13t-7 -11q-4 -9 -7 -11t-7 -7t-8 -3t-18 3q-13 1 -18 4q-6 3 -16 0t-15 -1t-11 2
l-29 -4q-20 0 -25 3q-4 3 1 13t6 13h2q18 18 20 32t12 23q11 22 15 26t4 5z" />
    <glyph glyph-name="ucircumflex" unicode="&#xfb;" horiz-adv-x="874" 
d="M147 731q14 0 52 -4l24 2l23 -6l16 2q10 0 20 -7q10 -6 13 -18q2 -12 -2 -38t-4 -40t4 -22q0 -83 -12 -125l6 -45l-4 -27q0 -122 10 -156t12 -42l25 -47q5 -5 11 -7q5 -1 7 -4l19 -10q4 -4 20 -1t40 1t29 0t11 8q6 5 8 7t10 5q7 3 11 5t9 9t7 9t10 6t10 8t4 9l4 8
q1 4 3 8l26 51q6 21 6 72q6 78 7 86l-9 41q0 29 5 57l4 29q0 2 -5 15t-1 41t2 40l-7 23l4 24q0 35 41 35h17l24 -2q43 -6 61 -3t24 -5t8 -17q2 -8 10 -24l-2 -96q0 -35 -2 -58l-2 -22l2 -62v-30q-4 -38 -4 -52v-28l-4 -41l4 -27q0 -27 -11 -55l11 -53q10 -63 6 -87t-5 -37
t-5 -24q-6 -8 -28 -15t-32 -4t-17 6t-13 3l-23 -10q-41 -14 -64 28q-8 14 -12 15q-8 0 -22 -12q-15 -12 -43 -26q-27 -13 -39 -13l-80 -9q-38 -8 -45 -7t-19 6q-11 6 -33 10t-29 8t-13 10t-10 9t-13 8q-10 5 -14 9t-6 7q-2 4 -5 6q-2 2 -4 6t-4 6t-10 8q-8 7 -11 11t-7 14
t-8 16q-3 6 -4 10t-9 15q-8 10 -12 31q-4 22 -3 38t-1 23l-4 33l4 20q-6 47 -6 54l2 24l-2 68l4 22l-4 21l2 25l-2 24l6 31l-4 24l-5 70q-4 19 -1 49t15 40q13 10 27 9zM606 975q0 -2 3 -6q3 -3 9 -15t9 -12q0 -12 7 -19t14 -21t9 -15l2 2q1 -5 7 -15t1 -12t-21 -2t-27 2
t-17 -1t-15 2t-14 1q-4 -4 -9 -5t-9 -1t-10 -1t-10 -2q-3 -1 -7 4t-8 7t-8 10t-7 12q-3 3 -7 9t-18 24t-29 44q-14 15 -19 43q-5 -5 -14 -23q-10 -18 -14 -23t-14 -21t-34 -46l4 4q-6 -10 -9 -13q-3 -4 -7 -12t-8 -10t-8 -7t-7 -4t-17 3t-20 5q-5 3 -15 0t-15 -1q-6 2 -11 2
l-28 -4q-49 0 -16 27q2 4 9 16t7 14q2 3 8 13t6 12l21 33l20 39l12 15t9 13q4 8 7 12t7 16q4 11 13 24q10 13 10 20q10 5 10 23q2 2 22 10q4 0 80 1t76 -9q6 -11 7 -16t3 -8t4 -7t6 -9t9 -15q6 -10 7 -14q1 -3 2 -7t3 -7t10 -16t15 -23q8 -10 14 -22t8 -14t2 -4z" />
    <glyph glyph-name="udieresis" unicode="&#xfc;" horiz-adv-x="874" 
d="M147 731q14 0 52 -4l24 2l23 -6l16 2q10 0 20 -7q10 -6 13 -18q2 -12 -2 -38t-4 -40t4 -22q0 -83 -12 -125l6 -45l-4 -27q0 -122 10 -156t12 -42l25 -47q5 -5 11 -7q5 -1 7 -4l19 -10q4 -4 20 -1t40 1t29 0t11 8q6 5 8 7t10 5q7 3 11 5t9 9t7 9t10 6t10 8t4 9l4 8
q1 4 3 8l26 51q6 21 6 72q6 78 7 86l-9 41q0 29 5 57l4 29q0 2 -5 15t-1 41t2 40l-7 23l4 24q0 35 41 35h17l24 -2q43 -6 61 -3t24 -5t8 -17q2 -8 10 -24l-2 -96q0 -35 -2 -58l-2 -22l2 -62v-30q-4 -38 -4 -52v-28l-4 -41l4 -27q0 -27 -11 -55l11 -53q10 -63 6 -87t-5 -37
t-5 -24q-6 -8 -28 -15t-32 -4t-17 6t-13 3l-23 -10q-41 -14 -64 28q-8 14 -12 15q-8 0 -22 -12q-15 -12 -43 -26q-27 -13 -39 -13l-80 -9q-38 -8 -45 -7t-19 6q-11 6 -33 10t-29 8t-13 10t-10 9t-13 8q-10 5 -14 9t-6 7q-2 4 -5 6q-2 2 -4 6t-4 6t-10 8q-8 7 -11 11t-7 14
t-8 16q-3 6 -4 10t-9 15q-8 10 -12 31q-4 22 -3 38t-1 23l-4 33l4 20q-6 47 -6 54l2 24l-2 68l4 22l-4 21l2 25l-2 24l6 31l-4 24l-5 70q-4 19 -1 49t15 40q13 10 27 9zM524 1065q4 0 10 3t10 4q3 1 9 0t8 -1h27l18 -6q44 -7 39 -45q0 -6 -3 -12t-2 -10l2 -8q1 -3 2 -7t1 -6
q0 -1 -1 -15t-3 -43t-11 -40q-8 -9 -22 -13t-42 -1t-38 0q-12 -3 -20 -3t-20 10q-18 16 -16 41q1 25 -3 58l-6 33l6 26q4 23 8 29q15 16 29 11t18 -5zM270 1065q4 0 10 3t10 4q3 1 9 0t8 -1h27l18 -6q44 -7 39 -45l-4 -23l4 -20q0 -1 -1 -15t-3 -43t-11 -40q-8 -9 -22 -13
t-42 -1t-38 0q-12 -3 -20 -3t-20 10q-18 16 -16 41q1 25 -3 58l-6 33l6 26q4 23 8 29q17 16 25 13t13 -5t9 -2z" />
    <glyph glyph-name="quotedblleft" unicode="&#x201c;" horiz-adv-x="774" 
d="M492 807q-15 0 -25 10q-11 0 -21 4q-2 1 -8 14t-6 15l6 37v41q6 6 6 18l-4 21q0 26 9 32l2 27q3 10 11 22q7 12 9 20q2 7 5 13q3 5 6 13t17 25t26 42q13 27 27 35t38 13q26 5 32 3t11 -6q8 -6 21 -7q12 -2 15 -16q3 -15 -13 -45t-17 -36q-2 -6 -6 -38t-7 -43
q-6 -22 -1 -38q5 -15 0 -34q-4 -19 -4 -27l8 -58q0 -42 -39 -44q-24 -2 -44 -5q-20 -4 -32 -1t-22 -7zM168 807q-10 0 -18 5q-9 5 -16 6q-8 0 -10 2t-8 15t-7 15l6 37v41q6 6 6 18l-4 21q0 24 8 32l2 27q3 10 11 22q7 12 13 30q6 17 20 36q15 19 30 47t28 35q12 8 38 13
q29 6 40 -2q11 -7 23 -8t15 -16t-12 -45t-17 -36t-7 -38q-4 -32 -7 -43q-6 -22 -1 -38q5 -15 0 -34q-4 -19 -4 -27l8 -58q-1 -42 -39 -44q-34 -2 -48 -5q-15 -4 -27 -1q-13 3 -23 -7z" />
    </font>
</defs>
</svg>
